<?xml version="1.0" encoding="UTF-8"?>
<svg width="50px" height="52px" viewBox="0 0 50 52" version="1.1" xmlns="http://www.w3.org/2000/svg" xmlns:xlink="http://www.w3.org/1999/xlink">
    <!-- Generator: Sketch 53.1 (72631) - https://sketchapp.com -->
    <title>down-all</title>
    <desc>Created with Sketch.</desc>
    <g id="页面-5" stroke="none" stroke-width="1" fill="none" fill-rule="evenodd">
        <g id="1920*1080-首页-流程图01" transform="translate(-1503.000000, -186.000000)" fill="#3998FC">
            <g id="订单" transform="translate(1503.000000, 186.000000)">
                <path d="M30.1875,7.01754947 L30.1875,7 L34,7 C35.1045695,7 36,7.8954305 36,9 L36,37 C36,38.1045695 35.1045695,39 34,39 L7,39 C5.8954305,39 5,38.1045695 5,37 L5,9 C5,7.8954305 5.8954305,7 7,7 L10.8125,7 L10.8125,7.01754947 C10.8732345,7.00602854 10.9359132,7 11,7 C11.5522847,7 12,7.44771525 12,8 C12,8.55228475 11.5522847,9 11,9 C10.7924811,9 10.5997258,8.9367892 10.439938,8.82857143 L8.87878788,8.82857143 C7.77421838,8.82857143 6.87878788,9.72400193 6.87878788,10.8285714 L6.87878788,35.1714286 C6.87878788,36.2759981 7.77421838,37.1714286 8.87878788,37.1714286 L32.1212121,37.1714286 C33.2257816,37.1714286 34.1212121,36.2759981 34.1212121,35.1714286 L34.1212121,10.8285714 C34.1212121,9.72400193 33.2257816,8.82857143 32.1212121,8.82857143 L30.560062,8.82857143 C30.4002742,8.9367892 30.2075189,9 30,9 C29.4477153,9 29,8.55228475 29,8 C29,7.44771525 29.4477153,7 30,7 C30.0640868,7 30.1267655,7.00602854 30.1875,7.01754947 Z" id="合并形状"></path>
                <path d="M39.5492614,16.8744831 C39.4041675,16.9544491 39.2220357,17 39,17 C38.303894,17 38,16.5522847 38,16 C38,15.4477153 38.2572632,15 39,15 L41,15 C42.1045695,15 43,15.8954305 43,17 L43,45 C43,46.1045695 42.1045695,47 41,47 L14,47 C12.8954305,47 12,46.1045695 12,45 L12,43 C12,42.2784119 12.4477153,42 13,42 C13.5522847,42 14,42.2784119 14,43 C14,43.1986056 13.9660839,43.363639 13.9054062,43.4985354 C14.0615259,44.4475015 14.8856158,45.1714286 15.8787879,45.1714286 L39.1212121,45.1714286 C40.2257816,45.1714286 41.1212121,44.2759981 41.1212121,43.1714286 L41.1212121,18.8285714 C41.1212121,17.8709235 40.4481463,17.0704786 39.5492614,16.8744831 Z" id="合并形状"></path>
                <path d="M16,5 L25,5 C26.1045695,5 27,5.8954305 27,7 L27,9 C27,10.1045695 26.1045695,11 25,11 L16,11 C14.8954305,11 14,10.1045695 14,9 L14,7 C14,5.8954305 14.8954305,5 16,5 Z M17,7 C16.4477153,7 16,7.44771525 16,8 C16,8.55228475 16.4477153,9 17,9 L24,9 C24.5522847,9 25,8.55228475 25,8 C25,7.44771525 24.5522847,7 24,7 L17,7 Z" id="合并形状"></path>
                <rect id="矩形" x="14" y="15" width="13" height="2" rx="1"></rect>
                <rect id="矩形" x="14" y="22" width="9" height="2" rx="1"></rect>
            </g>
        </g>
    </g>
</svg>