<?xml version="1.0" encoding="UTF-8"?>
<svg width="50px" height="52px" viewBox="0 0 50 52" version="1.1" xmlns="http://www.w3.org/2000/svg" xmlns:xlink="http://www.w3.org/1999/xlink">
    <!-- Generator: Sketch 53.1 (72631) - https://sketchapp.com -->
    <title>down-all</title>
    <desc>Created with Sketch.</desc>
    <g id="页面-5" stroke="none" stroke-width="1" fill="none" fill-rule="evenodd">
        <g id="1920*1080-首页-流程图01" transform="translate(-1503.000000, -563.000000)" fill="#3998FC" fill-rule="nonzero">
            <g id="常见问题-(2)" transform="translate(1503.000000, 563.000000)">
                <path d="M42,26.5839294 L42,26.1841424 L42,11.8706437 C42,9.18475115 39.823239,7 37.1428572,7 L8.9680711,7 L8,7 L8,7.97412875 L8,39.1406179 C8,41.8265105 10.1711653,44 12.8515471,44 L24.5131665,44 L24.921659,44 L25.2070441,43.7071983 L41.7202106,26.8598387 L42,26.5839294 Z M24.1046742,42.0573733 L12.8515471,42.0573733 C11.2455563,42.0573733 9.94173802,40.756658 9.94173802,39.1462487 L9.94173802,8.94825749 L37.148453,8.94825749 C38.7544438,8.94825749 40.058262,10.2546036 40.058262,11.8706437 L40.058262,25.7843555 L24.1046742,42.0573733 Z" id="形状"></path>
                <path d="M47.3141264,32.5584 L43.4442379,28.6832 L42.7583644,28 L42.0724907,28.6832 L39.1672863,31.5896 L28.5167286,42.2408 L28.3104089,42.448 L28.2546468,42.7336 L27.2843866,47.5776 L27,49 L28.4219331,48.7144 L33.2620817,47.7456 L33.5520446,47.6896 L33.7583643,47.4824 L44.4089219,36.8312 L47.3141264,33.9248 L48,33.2416 L47.3141264,32.5584 Z M43.7286246,34.7816 L41.2249071,32.2784001 L42.7583644,30.7384 L45.2620818,33.2416 L43.7286246,34.7816 Z M32.598513,45.9088 L29.4702602,46.536 L30.0947955,43.4056 L39.8531598,33.6448 L42.3568773,36.148 L32.598513,45.9088 Z" id="形状"></path>
                <path d="M24.5,32 C23.664557,32 23,32.5943925 23,33.3233645 L23,33.6766355 C23,34.4056075 23.6708861,35 24.5,35 C25.335443,35 26,34.4056075 26,33.6766355 L26,33.3233645 C25.9999999,32.5887851 25.3291139,32 24.5,32 Z" id="路径"></path>
                <path d="M24.3051823,15.0015539 C20.1017274,14.9321464 18,17.1878925 18,21.7630085 C18,21.7630085 18.109405,22.7057947 19.1631478,22.7057947 C20.2168906,22.7057947 20.2802303,21.7630085 20.2802303,21.7630085 C20.2111325,18.7090753 21.6276392,17.2573001 24.5182341,17.4018992 C26.4472168,17.6216899 27.443378,18.7090753 27.5124759,20.6698392 C27.3800383,21.5432179 26.6487523,22.6768749 25.3474088,24.0534585 C23.6257197,25.8002158 22.7619961,27.3618863 22.7619961,28.7384698 L22.7619961,30.1555412 C22.7619961,30.1555412 22.8944338,31 23.8445297,31 C24.7946257,31 24.9270633,30.1555412 24.9270633,30.1555412 L24.9270633,29.1722672 C24.9270633,28.0212582 25.7504798,26.6331068 27.4088292,25.0309486 C29.1362764,23.4345743 30,21.9770153 30,20.6698393 C29.8502878,17.0432934 27.9616122,15.151937 24.3051823,15.0015539 Z" id="路径"></path>
            </g>
        </g>
    </g>
</svg>