<?xml version="1.0" encoding="UTF-8"?>
<svg width="18px" height="18px" viewBox="0 0 18 18" version="1.1" xmlns="http://www.w3.org/2000/svg" xmlns:xlink="http://www.w3.org/1999/xlink">
    <!-- Generator: Sketch 53.1 (72631) - https://sketchapp.com -->
    <title>down-all</title>
    <desc>Created with Sketch.</desc>
    <g id="页面-5" stroke="none" stroke-width="1" fill="none" fill-rule="evenodd">
        <g id="1920*1080-首页-流程图03" transform="translate(-52.000000, -68.000000)" fill="#333333" fill-rule="nonzero">
            <g id="首页-选中" transform="translate(52.000000, 68.000000)">
                <path d="M9.79253947,2.29114759 C9.36449664,1.9029508 8.71165252,1.9029508 8.28360969,2.29114759 L2.18204128,8.08362535 C1.95466146,8.29250599 1.93805295,8.64553772 2.14481854,8.87483436 C2.35158414,9.10413101 2.70451685,9.12407241 2.93580564,8.91952671 L3.03282829,8.82742698 L3.03282829,14.8730914 C3.0324564,15.1718373 3.15089692,15.4584746 3.36205499,15.6698513 C3.57321305,15.881228 3.85976268,16.0000002 4.15857116,15.9999999 L7.43457399,15.9999999 L7.43457399,12.6115703 C7.43429497,12.4011494 7.51773028,12.1992564 7.6664858,12.0504006 C7.81524132,11.9015448 8.01710274,11.8179486 8.22756773,11.8180418 L9.7690719,11.8180418 C9.97953689,11.8179486 10.1813983,11.9015448 10.3301538,12.0504006 C10.4789093,12.1992564 10.5623447,12.4011494 10.5620656,12.6115703 L10.5620656,15.9999999 L13.9158267,15.9999999 C14.2146959,16.0000931 14.5013355,15.881362 14.7125694,15.6699752 C14.9238032,15.4585884 15.0422918,15.171898 15.0419198,14.8730914 L15.0419198,8.90131688 C15.2920071,9.12753903 15.6468227,9.11037976 15.8548785,8.87855459 C15.9549467,8.76776294 16.0068858,8.62175981 15.9992658,8.47267521 C15.9916458,8.32359061 15.9250911,8.1836414 15.8142481,8.08362535 L9.79253947,2.29149778 L9.79253947,2.29114759 Z" id="路径"></path>
            </g>
        </g>
    </g>
</svg>