<?xml version="1.0" encoding="UTF-8"?>
<svg width="20px" height="23px" viewBox="0 0 20 23" version="1.1" xmlns="http://www.w3.org/2000/svg" xmlns:xlink="http://www.w3.org/1999/xlink">
    <!-- Generator: Sketch 53.1 (72631) - https://sketchapp.com -->
    <title>分组 3</title>
    <desc>Created with Sketch.</desc>
    <g id="页面-5" stroke="none" stroke-width="1" fill="none" fill-rule="evenodd">
        <g id="1920*1080-基础数据-01-1登录页优化" transform="translate(-1279.000000, -505.000000)" fill="#999999" fill-rule="nonzero">
            <g id="分组-5" transform="translate(1190.000000, 299.000000)">
                <g id="分组-3" transform="translate(84.000000, 202.000000)">
                    <g id="账户" transform="translate(15.000000, 15.500000) scale(-1, 1) translate(-15.000000, -15.500000) translate(5.000000, 4.000000)">
                        <path d="M20,22.3467175 L20,22.3467175 C20,18.8581565 18.3589229,15.8097114 15.8909828,14.1140573 L15.8868353,14.1093857 C15.8621566,14.090854 15.837455,14.0723222 15.8128221,14.0584363 C15.5249267,13.9102083 15.1876051,14.0537905 15.0560082,14.3781217 C14.9614409,14.609691 14.9860738,14.8877187 15.1341231,15.0498585 C15.1382706,15.0545302 15.1423494,15.0545302 15.1423494,15.0591244 C17.2811253,16.6805999 18.8524055,19.2333597 18.8524055,22.3420975 L18.8524055,22.3420975 C18.8524055,22.3467433 18.8524055,22.3513376 18.8524055,22.3560092 C18.8524055,22.7127322 19.1073959,23 19.4240946,23 C19.7408392,23 19.9958296,22.7127581 19.9958296,22.3560092 C19.9999771,22.3560092 19.9999771,22.3513634 19.9999771,22.3467691 L20,22.3467175 L20,22.3467175 Z" id="路径"></path>
                        <path d="M14.6714626,12.0292114 C14.7338611,11.9772523 14.7915256,11.9252669 14.8539241,11.8685699 C14.9307655,11.7976855 15.0075534,11.7220895 15.079634,11.6417819 C15.1420325,11.5756091 15.2044578,11.509489 15.2668831,11.4386045 C15.3292816,11.3677465 15.3964944,11.2968884 15.4588929,11.2212661 C15.5692739,11.0889731 15.67016,10.9519422 15.7709658,10.8101998 C15.8189482,10.7440269 15.8621698,10.6732215 15.9053914,10.6022845 C15.9677899,10.5030779 16.0302419,10.4038976 16.0926405,10.2999268 C16.1310478,10.2290424 16.1742694,10.162896 16.2078624,10.0919852 C16.2847038,9.9455575 16.3567042,9.79907712 16.4238902,9.64788514 C16.4430939,9.60069029 16.4671386,9.55336382 16.4862887,9.50616897 C16.5535283,9.35023909 16.6111125,9.18967658 16.6639092,9.02424456 C16.6831129,8.96283599 16.7023165,8.90140109 16.721547,8.83996618 C16.7647953,8.69348579 16.8031759,8.54229381 16.8367689,8.39112817 C16.8463707,8.3391691 16.8607869,8.29186895 16.8704154,8.2399362 C16.9088228,8.04154937 16.9424158,7.84305726 16.9616194,7.63990621 C16.9664337,7.59268505 16.9711945,7.5453849 16.9711945,7.49816374 C16.9856106,7.332837 16.995159,7.16745762 16.995159,6.99734032 C16.995159,6.9642276 17,6.93116751 17,6.89339585 C17,6.86504735 16.995159,6.84143678 16.995159,6.81308828 C16.995159,6.77052606 16.995159,6.72801646 16.995159,6.68076899 C16.9903447,6.59103823 16.9807429,6.50120219 16.9759553,6.41620934 C16.9663802,6.31226487 16.9615392,6.2036088 16.9519909,6.09966432 C16.937548,5.99577247 16.9231854,5.89651327 16.9040085,5.7973067 C16.8848048,5.669699 16.8607869,5.54217025 16.8367689,5.41461517 C16.8271938,5.36739401 16.8128045,5.3248581 16.8031491,5.28226954 C16.2990129,3.21288208 14.8538974,1.51199868 12.9287706,0.637906924 C12.9287706,0.637906924 12.9287706,0.637906924 12.9239563,0.637906924 C12.7559109,0.562337261 12.583078,0.491426539 12.4102718,0.42999163 C12.3623161,0.411092629 12.3142267,0.392193629 12.2662711,0.378032561 C12.1270311,0.330837713 11.9877645,0.288275491 11.8437905,0.250424863 C11.7573741,0.226840608 11.6661701,0.203230015 11.5749393,0.184252047 C11.4597173,0.155903546 11.3445488,0.137057199 11.2245126,0.113393977 C11.1092906,0.0944949769 10.9940687,0.0755959764 10.8740859,0.0614349087 C10.7684658,0.0472475013 10.6627922,0.0377980011 10.557172,0.0283485008 C10.4995343,0.0235842799 10.4467911,0.0141347796 10.3891266,0.00944950027 C10.2595153,0 10.1250897,0 9.9954516,0 C9.99061057,0 9.99061057,0 9.9858765,0 C9.98103548,0 9.97143365,0 9.96667284,0 C9.73144138,0 9.50091722,0.00944950027 9.27528759,0.0331127217 L9.27044657,0.0331127217 C9.0447902,0.0566969759 8.81918731,0.0898360371 8.59831846,0.132319292 C8.58874336,0.132319292 8.57911479,0.137083513 8.56469868,0.137083513 C8.35340492,0.179619421 8.14221815,0.236290083 7.93579218,0.297724992 C7.92134933,0.302462899 7.90214566,0.307148178 7.88780978,0.311912399 C7.68622484,0.373320968 7.49413475,0.444231691 7.3020714,0.524512947 C7.28286774,0.533962447 7.25884979,0.538726668 7.23972636,0.548149854 C7.0524773,0.628510077 6.87006928,0.71352924 6.69242204,0.808024217 C6.66840409,0.817447403 6.64917369,0.831661125 6.62518248,0.841110625 C6.44756201,0.935631941 6.27948984,1.03952377 6.11149794,1.14823249 C6.08747999,1.16244621 6.06354228,1.17658099 6.04425838,1.19545365 C5.88102726,1.30408341 5.72266393,1.42218898 5.56898117,1.54505877 C5.54501672,1.56395777 5.52575956,1.58285677 5.50174161,1.59701784 C5.35295337,1.71986132 5.20887242,1.85215429 5.06968601,1.98447359 C5.05048235,2.00337259 5.02643766,2.02700949 5.0072875,2.04588216 C4.86804759,2.18286039 4.73843625,2.32460286 4.61358573,2.47108325 C4.59438206,2.49472016 4.5751784,2.51830441 4.555948,2.53725607 C4.43112421,2.68844804 4.31595572,2.83964002 4.20552131,3.00030782 C4.19107846,3.02394472 4.17187479,3.04752898 4.15753892,3.07119222 C4.04715798,3.2318337 3.9462719,3.39718675 3.85030711,3.57201564 C3.83586426,3.59565254 3.82628916,3.6192368 3.81189978,3.64290004 C3.71585472,3.81770259 3.62943826,3.99255782 3.55265037,4.17675721 C3.54307528,4.20034146 3.53344671,4.22395206 3.52384487,4.24761528 C3.44705698,4.43189367 3.37500314,4.62090996 3.31257786,4.8193231 C3.30776357,4.8382221 3.30300276,4.86185901 3.29337419,4.88073167 C3.23097568,5.0791185 3.17815224,5.28229586 3.13493062,5.4855259 C3.13011634,5.4997133 3.13011634,5.5186123 3.12535553,5.53272075 C3.08213392,5.74532129 3.04856764,5.95794818 3.02449619,6.17528663 C3.02449619,6.18473613 3.02449619,6.19423826 3.02449619,6.20363514 C3.00053174,6.43042309 2.99087641,6.65718473 2.99087641,6.88873693 C2.99087641,7.10133748 3.00529252,7.30925277 3.02449619,7.51711542 C3.02933721,7.57383873 3.03409802,7.63050939 3.04369985,7.68718005 C3.06290351,7.85729735 3.09168225,8.02265039 3.12054124,8.19271506 C3.13011634,8.23051306 3.13495736,8.26828472 3.13974491,8.31087328 C3.18296652,8.50457483 3.23092218,8.69356481 3.28853315,8.88255476 C3.30773681,8.93927808 3.32694047,8.99594874 3.34617088,9.05264574 C3.39415327,9.18962397 3.44221593,9.3266812 3.49980016,9.45894784 C3.52376461,9.51567115 3.54775582,9.57705341 3.57180051,9.63375038 C3.6486419,9.80381502 3.72542979,9.96922072 3.8166873,10.1298096 C3.85033382,10.1912181 3.88871441,10.2479678 3.92230743,10.3093764 C3.98465247,10.4180061 4.04713122,10.5219769 4.11913156,10.6259214 C4.16708722,10.6967795 4.21517662,10.7676376 4.26313228,10.8385219 C4.33515939,10.9377285 4.41197402,11.0369088 4.48884215,11.1361943 C4.57044433,11.2400862 4.65683405,11.3441096 4.74803806,11.4433162 C4.81527762,11.5188858 4.88246368,11.5944818 4.95449079,11.6654189 C5.0265179,11.7410412 5.10333253,11.8118993 5.17533287,11.8827837 C5.23773139,11.939507 5.3001834,11.9961776 5.36258194,12.048163 C5.5066094,12.1757181 5.66023868,12.2938763 5.8138412,12.4119293 C5.87147893,12.4544652 5.92422214,12.4969747 5.98188661,12.5347727 C6.07793166,12.6009456 6.17389646,12.6623804 6.2747558,12.723789 C6.33715431,12.761587 6.39481881,12.7993587 6.45719058,12.8324188 C6.55804992,12.8937747 6.66364331,12.9505244 6.76926344,13.0072213 L6.76926344,13.0072213 C2.8325666,14.3300721 0,18.0012944 0,22.3290856 L0,22.3290856 C0,22.3338499 0,22.3385088 0,22.3432994 C0,22.7070656 0.29765674,23 0.667340562,23 C1.03699765,23 1.33468112,22.7070919 1.33468112,22.3432994 C1.33468112,22.3385351 1.33468112,22.3338499 1.33468112,22.3290856 L1.33468112,22.3290856 C1.33468112,17.6138649 5.21860802,13.7915297 10.0098677,13.7915297 C11.1764767,13.7915297 12.2758729,13.5079921 13.2456577,13.0071687 L13.2456577,13.0071687 L13.2456577,13.0071687 C13.3560386,12.9504454 13.4616855,12.8890105 13.5673056,12.8276282 C13.6249433,12.7945155 13.6873151,12.7567438 13.7449261,12.7236837 C13.8457319,12.6622752 13.946511,12.5961287 14.0425561,12.5299822 C14.1001938,12.4921842 14.152937,12.4496746 14.2057872,12.4118766 C14.3642307,12.2842689 14.5227011,12.1614781 14.6715428,12.0291325 L14.6714626,12.0292114 L14.6714626,12.0292114 Z M13.1783914,11.5236237 C12.2709784,12.1236537 11.1812108,12.4779967 10.0097608,12.4779967 C8.83354995,12.4779967 7.74375562,12.1283653 6.84113009,11.5236237 C5.63608704,10.7204427 4.75753297,9.47308259 4.45508871,8.02254511 C4.37830081,7.6587789 4.33986675,7.28077265 4.33986675,6.8980285 C4.33986675,3.81751837 6.87951068,1.31811288 10.009734,1.31811288 C13.1399841,1.31811288 15.6796013,3.81746572 15.6796013,6.8980285 C15.6796013,7.28548425 15.6411672,7.65867365 15.5643793,8.02254511 C15.2619083,9.47300362 14.3833275,10.7203901 13.178338,11.5236237 L13.1783914,11.5236237 L13.1783914,11.5236237 Z" id="形状"></path>
                    </g>
                </g>
            </g>
        </g>
    </g>
</svg>