<?xml version="1.0" encoding="UTF-8"?>
<svg width="50px" height="52px" viewBox="0 0 50 52" version="1.1" xmlns="http://www.w3.org/2000/svg" xmlns:xlink="http://www.w3.org/1999/xlink">
    <!-- Generator: Sketch 53.1 (72631) - https://sketchapp.com -->
    <title>down-all</title>
    <desc>Created with Sketch.</desc>
    <g id="页面-5" stroke="none" stroke-width="1" fill="none" fill-rule="evenodd">
        <g id="1920*1080-首页-流程图01" transform="translate(-1781.000000, -285.000000)" fill="#3998FC" fill-rule="nonzero">
            <g id="组合-(1)" transform="translate(1781.000000, 285.000000)">
                <path d="M20.1670561,20.2146172 C20.1588785,19.0858469 21.0911215,18.1519722 22.2278037,18.1519722 L32,18.1519722 L32,16 L22.2278037,16 C19.8971963,16 18,17.8921114 18,20.2227378 L18,30 L20.1670561,30 L20.1670561,20.2146172 Z" id="路径"></path>
                <path d="M36,29.6781883 L36,10.3218117 C36,7.94398093 34.0643623,6 31.6781883,6 L12.3218117,6 C9.94398093,6 8,7.93563766 8,10.3218117 L8,29.6781883 C8,32.0560191 9.93563766,34 12.3218117,34 L31.6781883,34 C34.0560191,34 35.9916567,32.0560191 36,29.6781883 Z M10.2109654,10.3218117 C10.2109654,9.16209774 11.1620977,8.2193087 12.3134684,8.2193087 L31.6698451,8.2193087 C32.829559,8.2193087 33.772348,9.170441 33.772348,10.3218117 L33.772348,29.6781883 C33.772348,30.8379023 32.8212157,31.7806913 31.6698451,31.7806913 L12.3218117,31.7806913 C11.1620977,31.7806913 10.2193087,30.829559 10.2193087,29.6781883 L10.2109654,10.3218117 Z" id="形状"></path>
                <path d="M40.6615018,15 L36.965435,15 L36.965435,17.2116244 L40.6615018,17.2116244 C41.8212157,17.2116244 42.772348,18.1546945 42.772348,19.3147541 L42.772348,38.6769001 C42.772348,39.8369598 41.8212157,40.7800298 40.6698451,40.7800298 L21.3134684,40.7800298 C20.1620977,40.7800298 19.2109654,38.885544 19.2109654,37.7004471 L19.2109654,35.1549925 L17,35.1549925 L17,37.7087928 C17,40.1040238 18.9272944,43 21.3218117,43 L40.6781883,43 C43.0560191,43 45,41.0637854 45,38.6769001 L45,19.3230999 C44.9916567,16.9362146 43.0476758,15 40.6615018,15 Z" id="路径"></path>
            </g>
        </g>
    </g>
</svg>