<?xml version="1.0" encoding="UTF-8"?>
<svg width="50px" height="52px" viewBox="0 0 50 52" version="1.1" xmlns="http://www.w3.org/2000/svg" xmlns:xlink="http://www.w3.org/1999/xlink">
    <!-- Generator: Sketch 53.1 (72631) - https://sketchapp.com -->
    <title>down-all</title>
    <desc>Created with Sketch.</desc>
    <g id="页面-5" stroke="none" stroke-width="1" fill="none" fill-rule="evenodd">
        <g id="1920*1080-首页-流程图01" transform="translate(-1503.000000, -380.000000)" fill="#3998FC" fill-rule="nonzero">
            <g id="店铺" transform="translate(1503.000000, 380.000000)">
                <path d="M41.0277777,32 C40.491111,32 40.0555555,32.448 40.0555555,33 L40.0555555,43 C40.0555555,43.553 39.62,44 39.0833333,44 L9.91666662,44 C9.37999995,44 8.94444441,43.553 8.94444441,43 L8.94444441,33 C8.94444441,32.448 8.50888887,32 7.97222221,32 C7.43555554,32 7,32.448 7,33 L7,43 C7,44.654 8.30861113,46 9.91666667,46 L39.0833333,46 C40.6913889,46 42,44.654 42,43 L42,33 C41.9999999,32.448 41.5644444,32 41.0277777,32 Z" id="路径"></path>
                <path d="M43.9910757,17.4697917 C43.9784008,17.0730417 43.8789512,16.6820417 43.6946769,16.306375 L43.7015018,16.2987083 C43.7015018,16.2987083 39.0829445,8.54291664 39.0497946,8.48158332 C38.6227463,7.67370832 38.163523,7 36.1706307,7 L12.82922,7 C11.1922013,7 10.4512041,7.664125 9.84183145,8.66270832 L5.37634853,16.1578333 L5.36952357,16.177 C5.36952357,16.18275 5.36952357,16.1885 5.36952357,16.1923333 C5.14527441,16.6044166 5.02437489,17.0347083 5.00682496,17.4803333 C5.00389997,17.4899166 5,17.502375 5,17.5177083 L5,24.2164583 C5,27.4057916 7.51451539,30 10.6062286,30 C12.4635965,30 14.1893398,29.057 15.2374608,27.4719167 C16.2855818,29.0560417 18.0113252,30 19.8686931,30 C21.726061,30 23.4518044,29.057 24.4999253,27.4719167 C25.5480463,29.0560417 27.2737897,30 29.1311576,30 C30.9885255,30 32.7142689,29.057 33.7623899,27.4719167 C34.8105108,29.0560417 36.5362542,30 38.3936221,30 C41.4853353,30 43.9998507,27.4057917 43.9998507,24.2164583 L43.9998507,17.5177083 C44.0008257,17.502375 43.9969257,17.4889584 43.9910757,17.4697917 Z M11.5938997,9.69579168 C11.8971236,9.20608336 12.2549472,9.00675 12.830195,9.00675 L36.1716057,9.00675 C36.7634284,9.00675 37.0237524,9.06616668 37.4079009,9.69483332 C38.1128232,10.8486666 40.1086406,14.1185 40.4313644,14.6475 L8.57141133,14.6475 C8.89316005,14.1175417 10.8860524,10.838125 11.5938997,9.69579168 Z M42.0508332,24.2164584 C42.0508332,26.2979584 40.4108894,27.9922917 38.3945971,27.9922917 C36.3783049,27.9922917 34.7383611,26.297 34.7383611,24.2164584 L34.7383611,23.261 C34.7383611,22.7070834 34.3015628,22.2566667 33.7643399,22.2566667 C33.2261419,22.2566667 32.7893436,22.7070834 32.7893436,23.261 L32.7893436,24.2164584 C32.7893436,26.2979584 31.1484249,27.9922917 29.1331076,27.9922917 C27.1168153,27.9922917 25.4768716,26.297 25.4768716,24.2164584 L25.4768716,23.261 C25.4768716,22.7070834 25.0400733,22.2566667 24.5018753,22.2566667 C23.9636774,22.2566667 23.5268791,22.7070834 23.5268791,23.261 L23.5268791,24.2164584 C23.5268791,26.2979584 21.8869354,27.9922917 19.8706431,27.9922917 C17.8543508,27.9922917 16.2144071,26.297 16.2144071,24.2164584 L16.2144071,23.261 C16.2144071,22.7070834 15.7776088,22.2566667 15.2394108,22.2566667 C14.7021879,22.2566667 14.2653896,22.7070834 14.2653896,23.261 L14.2653896,24.2164584 C14.2653896,26.2979584 12.6244708,27.9922917 10.6091535,27.9922917 C8.59286128,27.9922917 6.95291754,26.297 6.95291754,24.2164584 L6.95291754,17.5301667 C6.97241748,17.0385417 7.37509091,16.65425 7.86941402,16.65425 L41.1362867,16.65425 C41.6315848,16.65425 42.0342582,17.0385417 42.0527832,17.52825 L42.0527832,24.2164584 L42.0508332,24.2164584 Z" id="形状"></path>
            </g>
        </g>
    </g>
</svg>