<?xml version="1.0" encoding="UTF-8"?>
<svg width="50px" height="52px" viewBox="0 0 50 52" version="1.1" xmlns="http://www.w3.org/2000/svg" xmlns:xlink="http://www.w3.org/1999/xlink">
    <!-- Generator: Sketch 53.1 (72631) - https://sketchapp.com -->
    <title>down-all</title>
    <desc>Created with Sketch.</desc>
    <g id="页面-5" stroke="none" stroke-width="1" fill="none" fill-rule="evenodd">
        <g id="1920*1080-首页-流程图01" transform="translate(-1691.000000, -380.000000)" fill="#3998FC">
            <g id="出库" transform="translate(1691.000000, 380.000000)">
                <path d="M41,24 L39,24 L39,12 C39,10.8954305 38.1045695,10 37,10 L35,10 C34.4477153,10 34,9.55228475 34,9 C34,8.44771525 34.4477153,8 35,8 L39,8 C40.1045695,8 41,8.8954305 41,10 L41,24 Z M24,46 L10,46 C8.8954305,46 8,45.1045695 8,44 L8,10 C8,8.8954305 8.8954305,8 10,8 L14,8 C14.5522847,8 15,8.44771525 15,9 C15,9.55228475 14.5522847,10 14,10 L12,10 C10.8954305,10 10,10.8954305 10,12 L10,42 C10,43.1045695 10.8954305,44 12,44 L24,44 L24,46 Z" id="合并形状"></path>
                <circle id="椭圆形" cx="40" cy="24" r="1"></circle>
                <circle id="椭圆形" cx="24" cy="45" r="1"></circle>
                <path d="M19,6 L30,6 C31.1045695,6 32,6.8954305 32,8 L32,10 C32,11.1045695 31.1045695,12 30,12 L19,12 C17.8954305,12 17,11.1045695 17,10 L17,8 C17,6.8954305 17.8954305,6 19,6 Z M20,8 C19.4477153,8 19,8.44771525 19,9 C19,9.55228475 19.4477153,10 20,10 L29,10 C29.5522847,10 30,9.55228475 30,9 C30,8.44771525 29.5522847,8 29,8 L20,8 Z" id="合并形状"></path>
                <rect id="矩形" x="17" y="17" width="15" height="2" rx="1"></rect>
                <rect id="矩形" x="17" y="24" width="9" height="2" rx="1"></rect>
                <rect id="矩形" x="17" y="30" width="9" height="2" rx="1"></rect>
                <g id="齿轮-(1)" transform="translate(28.000000, 29.000000)" fill-rule="nonzero">
                    <path d="M10.5245932,0 C11.0110141,0 11.44611,0.3075625 11.6175821,0.7706875 L12.2661433,2.53175 C12.6254182,2.7063125 12.9695289,2.909375 13.292643,3.137375 L15.1181794,2.828625 C15.5976699,2.74736094 16.0763997,2.97731811 16.3196506,3.40575 L17.8442359,6.09425 C18.0868631,6.5229375 18.042537,7.0596875 17.7357536,7.4420625 L16.5587784,8.89675 C16.589337,9.29831506 16.589337,9.70168494 16.5587784,10.10325 L17.7345871,11.55675 C18.042537,11.9403125 18.0845302,12.4770625 17.8430695,12.90575 L16.3184841,15.59425 C16.074757,16.0221546 15.5964064,16.2519296 15.1170129,16.171375 L13.292643,15.862625 C12.9664002,16.0919153 12.6227615,16.2944288 12.2649768,16.46825 L11.6164156,18.2305 C11.4449435,18.6924375 11.0098476,19 10.5234268,19 L7.47542255,19 C6.99016815,19 6.55390578,18.6924375 6.38360015,18.2305 L5.73387251,16.46825 C5.37622452,16.2941648 5.03260585,16.0916632 4.70620634,15.862625 L2.88183643,16.171375 C2.40215007,16.2517512 1.92356207,16.0220851 1.67919872,15.59425 L0.156946332,12.90575 C-0.0871621915,12.4769746 -0.0434223409,11.938847 0.266595163,11.55675 L1.44123743,10.10325 C1.41066949,9.70168531 1.41066949,9.29831469 1.44123743,8.89675 L0.266595163,7.4420625 C-0.0432204391,7.06033976 -0.0869625294,6.52265837 0.156946332,6.09425 L1.6803652,3.40575 C1.92409234,2.97784541 2.40244288,2.7480704 2.88183643,2.828625 L4.70737281,3.137375 C5.03339833,2.90839082 5.37662516,2.70589028 5.73387251,2.53175 L6.38476663,0.7706875 C6.55525006,0.307684428 6.98971394,0.000680288768 7.47542255,0 L10.5245932,0 Z M10.5245932,1.1875 L7.47542255,1.1875 L6.82686138,2.9485625 L6.66122166,3.39625 L6.23779054,3.602875 C5.93571556,3.75066325 5.64519234,3.92176692 5.36876523,4.1146875 L4.98032841,4.386625 L4.5160706,4.30825 L2.69170069,3.9995 L1.16711535,6.688 L2.34175761,8.1415 L2.6403757,8.5108125 L2.60421492,8.9881875 C2.57830642,9.32888613 2.57830642,9.67111387 2.60421492,10.0118125 L2.63920923,10.4891875 L2.34175761,10.8585 L1.16711535,12.312 L2.69170069,15.0005 L4.5160706,14.69175 L4.98032841,14.613375 L5.36876523,14.884125 C5.64405378,15.0776875 5.93683949,15.249875 6.23779054,15.397125 L6.66122166,15.60375 L6.82686138,16.0514375 L7.47542255,17.8125 L10.5245932,17.8125 L11.1743209,16.0514375 L11.3376276,15.60375 L11.7633917,15.397125 C12.0643428,15.249875 12.355962,15.0776875 12.632417,14.884125 L13.0208538,14.613375 L13.4851117,14.69175 L15.3094816,15.0005 L16.8340669,12.312 L15.6582582,10.8585 L15.3608066,10.4891875 L15.3958009,10.0118125 C15.4193649,9.6710258 15.4193649,9.3289742 15.3958009,8.9881875 L15.3608066,8.5108125 L15.6582582,8.1415 L16.8340669,6.688 L15.3094816,3.9995 L13.4851117,4.30825 L13.0208538,4.386625 L12.632417,4.1146875 C12.3558335,3.92201945 12.0653296,3.75092715 11.7633917,3.602875 L11.3387941,3.39625 L11.1743209,2.9485625 L10.5245932,1.1875 Z M9.00000789,13.0625 C7.06732564,13.0625 5.50057712,11.4675144 5.50057712,9.5 C5.50057712,7.53248558 7.06732564,5.9375 9.00000789,5.9375 C10.9326901,5.9375 12.4994387,7.53248558 12.4994387,9.5 C12.4994387,11.4675144 10.9326901,13.0625 9.00000789,13.0625 Z M9.00000789,11.875 C10.2884627,11.875 11.3329617,10.8116763 11.3329617,9.5 C11.3329617,8.18832372 10.2884627,7.125 9.00000789,7.125 C7.71155306,7.125 6.66705405,8.18832372 6.66705405,9.5 C6.66705405,10.8116763 7.71155306,11.875 9.00000789,11.875 Z" id="形状"></path>
                </g>
            </g>
        </g>
    </g>
</svg>