<?xml version="1.0" encoding="UTF-8"?>
<svg width="50px" height="52px" viewBox="0 0 50 52" version="1.1" xmlns="http://www.w3.org/2000/svg" xmlns:xlink="http://www.w3.org/1999/xlink">
    <!-- Generator: Sketch 53.1 (72631) - https://sketchapp.com -->
    <title>down-all</title>
    <desc>Created with Sketch.</desc>
    <g id="页面-5" stroke="none" stroke-width="1" fill="none" fill-rule="evenodd">
        <g id="1920*1080-首页-流程图01" transform="translate(-1597.000000, -563.000000)" fill="#3998FC" fill-rule="nonzero">
            <g id="视频文件" transform="translate(1597.000000, 563.000000)">
                <path d="M40.7356082,9 L10.2643918,9 C9.01681939,9 8,10.0288331 8,11.2910554 L8,42.7089446 C8,43.9712074 9.01685944,45 10.2643918,45 L40.7356082,45 C41.9831806,45 43,43.9711669 43,42.7089446 L43,11.2910554 C43,10.0287926 41.9831406,9 40.7356082,9 Z M41.2910417,11.2910554 L41.2910417,17.6758023 L37.2578504,17.6758023 L37.2578504,10.7291221 L40.739894,10.7291221 C41.0432255,10.7291221 41.2910417,10.9841521 41.2910417,11.2910959 L41.2910417,11.2910554 Z M13.6652854,25.8025991 L9.70899838,25.8025991 L9.70899838,19.4048838 L13.6652854,19.4048838 L13.6652854,25.8025991 Z M13.6652854,27.5317211 L13.6652854,34.2925492 L9.70899838,34.2925492 L9.70899838,27.5317211 L13.6652854,27.5317211 Z M15.3742837,10.7291221 L35.5445662,10.7291221 L35.5445662,43.2666227 L15.3742837,43.2666227 L15.3742837,10.7291221 Z M37.2535645,27.5317211 L41.2867559,27.5317211 L41.2867559,34.2925492 L37.2535645,34.2925492 L37.2535645,27.5317211 Z M37.2535645,25.8025991 L37.2535645,19.4048838 L41.2867559,19.4048838 L41.2867559,25.7982628 L37.2535645,25.7982628 L37.2535645,25.8025991 Z M10.2644319,10.7291221 L13.6653254,10.7290816 L13.6653254,17.6758023 L9.70903843,17.6758023 L9.70903843,11.2910554 C9.70903843,10.9841521 9.95685461,10.7290816 10.2644719,10.7290816 L10.2644319,10.7291221 Z M9.70899838,42.7089852 L9.70899838,36.0216713 L13.6652854,36.0216713 L13.6652854,43.270959 L10.2643918,43.270959 C9.9567745,43.270959 9.70895832,43.015929 9.70895832,42.7089852 L9.70899838,42.7089852 Z M40.7356082,43.2709184 L37.2535645,43.2709184 L37.2535645,36.0216307 L41.2867559,36.0216307 L41.2867559,42.7089446 C41.2910417,43.0158479 41.0432255,43.2709184 40.7356082,43.2709184 Z" id="形状"></path>
                <path d="M20.9834098,34 L20.8256833,34 C20.6169468,33.9741539 20.3618099,33.9009366 20.2226523,33.7242945 C20.0927573,33.5606158 20,33.3667698 20,33.0824624 L20,20.9175376 C20,20.4566284 20.4499576,20 20.941619,20 C21.4379335,20 21.883238,20.4609092 21.883238,20.9175376 L21.883238,31.3464506 L29.3791829,26.8578261 L24.0680133,23.0455221 C23.5299515,22.597536 23.3675719,22.1796768 23.6412776,21.7359714 C23.9335087,21.2621392 24.443739,21.3741256 24.940097,21.6024196 L31.6150116,26.1944287 C31.8608423,26.4227227 32,26.6252109 32,26.8578261 C32,27.0861201 31.8608423,27.3445814 31.6150116,27.5729158 L21.725555,33.7716656 C21.4194081,33.9569097 21.2292405,33.9999596 20.9833663,33.9999596 L20.9834098,34 Z" id="路径"></path>
            </g>
        </g>
    </g>
</svg>