<?xml version="1.0" encoding="UTF-8"?>
<svg width="50px" height="52px" viewBox="0 0 50 52" version="1.1" xmlns="http://www.w3.org/2000/svg" xmlns:xlink="http://www.w3.org/1999/xlink">
    <!-- Generator: Sketch 53.1 (72631) - https://sketchapp.com -->
    <title>down-all</title>
    <desc>Created with Sketch.</desc>
    <g id="页面-5" stroke="none" stroke-width="1" fill="none" fill-rule="evenodd">
        <g id="1920*1080-首页-流程图01" transform="translate(-1597.000000, -186.000000)" fill="#666666">
            <g id="入库" transform="translate(1597.000000, 186.000000)">
                <path d="M40,23 L38,23 L38,11 C38,9.8954305 37.1045695,9 36,9 L34,9 C33.4477153,9 33,8.55228475 33,8 C33,7.44771525 33.4477153,7 34,7 L38,7 C39.1045695,7 40,7.8954305 40,9 L40,23 Z M23,45 L9,45 C7.8954305,45 7,44.1045695 7,43 L7,9 C7,7.8954305 7.8954305,7 9,7 L13,7 C13.5522847,7 14,7.44771525 14,8 C14,8.55228475 13.5522847,9 13,9 L11,9 C9.8954305,9 9,9.8954305 9,11 L9,41 C9,42.1045695 9.8954305,43 11,43 L23,43 L23,45 Z" id="合并形状"></path>
                <circle id="椭圆形" cx="39" cy="23" r="1"></circle>
                <circle id="椭圆形" cx="23" cy="44" r="1"></circle>
                <path d="M18,5 L29,5 C30.1045695,5 31,5.8954305 31,7 L31,9 C31,10.1045695 30.1045695,11 29,11 L18,11 C16.8954305,11 16,10.1045695 16,9 L16,7 C16,5.8954305 16.8954305,5 18,5 Z M19,7 C18.4477153,7 18,7.44771525 18,8 C18,8.55228475 18.4477153,9 19,9 L28,9 C28.5522847,9 29,8.55228475 29,8 C29,7.44771525 28.5522847,7 28,7 L19,7 Z" id="合并形状"></path>
                <path d="M45.9805677,36.7689657 L33.9577312,36.7689657 L37.0995719,33.4632854 C37.4950227,33.0444926 37.4931848,32.3699322 37.0954583,31.9535085 C36.6977319,31.5370847 36.053459,31.5351604 35.6534698,31.9492016 L30.8059449,37.0886519 C30.4191609,37.5038327 30.4191609,38.1662078 30.8059449,38.5813886 L35.6534698,43.6786654 C35.8372586,43.8868757 36.0968085,44.0036379 36.3675697,43.9999135 C36.6333562,44.0017563 36.8892896,43.8946824 37.080675,43.7015745 C37.4684124,43.2785172 37.4684124,42.610548 37.080675,42.1874907 L33.9577312,38.9036781 L45.9805677,38.9036781 C46.5435846,38.9036781 47,38.4258065 47,37.8363219 C47,37.2468374 46.5435846,36.7689657 45.9805677,36.7689657 L45.9805677,36.7689657 Z" id="形状" fill-rule="nonzero"></path>
                <rect id="矩形" x="16" y="16" width="15" height="2" rx="1"></rect>
                <rect id="矩形" x="16" y="23" width="9" height="2" rx="1"></rect>
                <rect id="矩形" x="16" y="29" width="9" height="2" rx="1"></rect>
            </g>
        </g>
    </g>
</svg>