<?xml version="1.0" encoding="UTF-8"?>
<svg width="50px" height="52px" viewBox="0 0 50 52" version="1.1" xmlns="http://www.w3.org/2000/svg" xmlns:xlink="http://www.w3.org/1999/xlink">
    <!-- Generator: Sketch 53.1 (72631) - https://sketchapp.com -->
    <title>down-all</title>
    <desc>Created with Sketch.</desc>
    <g id="页面-5" stroke="none" stroke-width="1" fill="none" fill-rule="evenodd">
        <g id="1920*1080-首页-流程图01" transform="translate(-1691.000000, -285.000000)" fill="#666666">
            <g id="分组-2" transform="translate(1691.000000, 285.000000)">
                <path d="M9,6 L22,6 C23.1045695,6 24,6.8954305 24,8 L24,26 C24,27.1045695 23.1045695,28 22,28 L9,28 C7.8954305,28 7,27.1045695 7,26 L7,8 C7,6.8954305 7.8954305,6 9,6 Z M11,8 C9.8954305,8 9,8.8954305 9,10 L9,24 C9,25.1045695 9.8954305,26 11,26 L20,26 C21.1045695,26 22,25.1045695 22,24 L22,10 C22,8.8954305 21.1045695,8 20,8 L11,8 Z" id="合并形状"></path>
                <path d="M28,20 L41,20 C42.1045695,20 43,20.8954305 43,22 L43,40 C43,41.1045695 42.1045695,42 41,42 L28,42 C26.8954305,42 26,41.1045695 26,40 L26,22 C26,20.8954305 26.8954305,20 28,20 Z M30,22 C28.8954305,22 28,22.8954305 28,24 L28,38 C28,39.1045695 28.8954305,40 30,40 L39,40 C40.1045695,40 41,39.1045695 41,38 L41,24 C41,22.8954305 40.1045695,22 39,22 L30,22 Z" id="合并形状"></path>
                <path d="M28,6 L41,6 C42.1045695,6 43,6.8954305 43,8 L43,16 C43,17.1045695 42.1045695,18 41,18 L28,18 C26.8954305,18 26,17.1045695 26,16 L26,8 C26,6.8954305 26.8954305,6 28,6 Z M30,8 C28.8954305,8 28,8.8954305 28,10 L28,14 C28,15.1045695 28.8954305,16 30,16 L39,16 C40.1045695,16 41,15.1045695 41,14 L41,10 C41,8.8954305 40.1045695,8 39,8 L30,8 Z" id="合并形状"></path>
                <path d="M9,30 L22,30 C23.1045695,30 24,30.8954305 24,32 L24,40 C24,41.1045695 23.1045695,42 22,42 L9,42 C7.8954305,42 7,41.1045695 7,40 L7,32 C7,30.8954305 7.8954305,30 9,30 Z M11,32 C9.8954305,32 9,32.8954305 9,34 L9,38 C9,39.1045695 9.8954305,40 11,40 L20,40 C21.1045695,40 22,39.1045695 22,38 L22,34 C22,32.8954305 21.1045695,32 20,32 L11,32 Z" id="合并形状"></path>
            </g>
        </g>
    </g>
</svg>