<?xml version="1.0" encoding="UTF-8"?>
<svg width="50px" height="52px" viewBox="0 0 50 52" version="1.1" xmlns="http://www.w3.org/2000/svg" xmlns:xlink="http://www.w3.org/1999/xlink">
    <!-- Generator: Sketch 53.1 (72631) - https://sketchapp.com -->
    <title>down-all</title>
    <desc>Created with Sketch.</desc>
    <g id="页面-5" stroke="none" stroke-width="1" fill="none" fill-rule="evenodd">
        <g id="1920*1080-首页-流程图01" transform="translate(-1781.000000, -186.000000)" fill="#666666">
            <g id="拣货单" transform="translate(1781.000000, 186.000000)">
                <path d="M35,9 C34.4477153,9 34,8.55228475 34,8 C34,7.44771525 34.4477153,7 35,7 L39,7 C40.1045695,7 41,7.8954305 41,9 L41,43 C41,44.1045695 40.1045695,45 39,45 L10,45 C8.8954305,45 8,44.1045695 8,43 L8,9 C8,7.8954305 8.8954305,7 10,7 L14,7 C14.5522847,7 15,7.44771525 15,8 C15,8.55228475 14.5522847,9 14,9 L12,9 C10.8954305,9 10,9.8954305 10,11 L10,41 C10,42.1045695 10.8954305,43 12,43 L37,43 C38.1045695,43 39,42.1045695 39,41 L39,11 C39,9.8954305 38.1045695,9 37,9 L35,9 Z" id="合并形状"></path>
                <path d="M19,5 L30,5 C31.1045695,5 32,5.8954305 32,7 L32,9 C32,10.1045695 31.1045695,11 30,11 L19,11 C17.8954305,11 17,10.1045695 17,9 L17,7 C17,5.8954305 17.8954305,5 19,5 Z M20,7 C19.4477153,7 19,7.44771525 19,8 C19,8.55228475 19.4477153,9 20,9 L29,9 C29.5522847,9 30,8.55228475 30,8 C30,7.44771525 29.5522847,7 29,7 L20,7 Z" id="合并形状"></path>
                <rect id="矩形" x="17" y="16" width="15" height="2" rx="1"></rect>
                <rect id="矩形" x="17" y="23" width="15" height="2" rx="1"></rect>
                <rect id="矩形" x="17" y="29" width="9" height="2" rx="1"></rect>
            </g>
        </g>
    </g>
</svg>