<?xml version="1.0" encoding="UTF-8"?>
<svg width="23px" height="25px" viewBox="0 0 23 25" version="1.1" xmlns="http://www.w3.org/2000/svg" xmlns:xlink="http://www.w3.org/1999/xlink">
    <!-- Generator: Sketch 53.1 (72631) - https://sketchapp.com -->
    <title>分组 4</title>
    <desc>Created with Sketch.</desc>
    <g id="页面-5" stroke="none" stroke-width="1" fill="none" fill-rule="evenodd">
        <g id="1920*1080-基础数据-01-1登录页优化" transform="translate(-1277.000000, -571.000000)" fill="#999999" fill-rule="nonzero">
            <g id="分组-5" transform="translate(1190.000000, 299.000000)">
                <g id="分组-4" transform="translate(84.000000, 270.000000)">
                    <g id="密码" transform="translate(3.000000, 2.000000)">
                        <path d="M19.1502749,8.74587459 L6.3787416,8.74587459 L6.3787416,6.24312431 C6.3787416,3.47909791 8.66890654,1.23762376 11.492975,1.23762376 C14.3170434,1.23762376 16.6072083,3.47909791 16.6072083,6.24312431 C16.6072083,6.58690869 16.8882101,6.86193619 17.2394624,6.86193619 C17.5907147,6.86193619 17.8717166,6.58690869 17.8717166,6.24312431 C17.8717166,4.57920792 17.2113622,2.99779978 16.0030544,1.82893289 C14.7947465,0.646314631 13.193036,0 11.492975,0 C9.79291387,0 8.17715333,0.646314631 6.98289554,1.82893289 C5.78863775,3.01155116 5.11423335,4.57920792 5.11423335,6.24312431 L5.11423335,8.74587459 L3.83567502,8.74587459 C1.72816127,8.74587459 0,10.4235424 0,12.5 L0,21.2458746 C0,23.3085809 1.71411118,25 3.83567502,25 L19.164325,25 C21.2718387,25 23,23.3223322 23,21.2458746 L23,12.5 C22.9859499,10.4372937 21.2718387,8.74587459 19.1502749,8.74587459 Z M21.7073916,21.2458746 C21.7073916,22.6210121 20.5552841,23.7486249 19.1502749,23.7486249 L3.82162492,23.7486249 C2.41661576,23.7486249 1.26450825,22.6210121 1.26450825,21.2458746 L1.26450825,12.5 C1.26450825,11.1248625 2.41661576,9.99724972 3.82162492,9.99724972 L19.1502749,9.99724972 C20.5552841,9.99724972 21.7073916,11.1248625 21.7073916,12.5 L21.7073916,21.2458746 Z M11.492975,12.5 C9.7367135,12.5 8.30360415,13.9026403 8.30360415,15.6215622 C8.30360415,17.1342134 9.3995113,18.3993399 10.8607208,18.6881188 L10.8607208,20.6270627 C10.8607208,20.9708471 11.1417227,21.2458746 11.492975,21.2458746 C11.8442272,21.2458746 12.1252291,20.9708471 12.1252291,20.6270627 L12.1252291,18.7568757 L12.1252291,18.6881188 C13.5864386,18.3993399 14.6823458,17.1342134 14.6823458,15.6215622 C14.6823458,13.9026403 13.2492364,12.5 11.492975,12.5 Z M11.492975,17.5055006 C10.4392181,17.5055006 9.58216249,16.6666667 9.58216249,15.6353135 C9.58216249,14.6039604 10.4392181,13.7651265 11.492975,13.7651265 C12.5467318,13.7651265 13.4037874,14.6039604 13.4037874,15.6353135 C13.4037874,16.6666667 12.5467318,17.5055006 11.492975,17.5055006 Z" id="形状"></path>
                    </g>
                </g>
            </g>
        </g>
    </g>
</svg>