<?xml version="1.0" encoding="UTF-8"?>
<svg width="50px" height="52px" viewBox="0 0 50 52" version="1.1" xmlns="http://www.w3.org/2000/svg" xmlns:xlink="http://www.w3.org/1999/xlink">
    <!-- Generator: Sketch 53.1 (72631) - https://sketchapp.com -->
    <title>down-all</title>
    <desc>Created with Sketch.</desc>
    <g id="页面-5" stroke="none" stroke-width="1" fill="none" fill-rule="evenodd">
        <g id="1920*1080-首页-流程图01" transform="translate(-1503.000000, -285.000000)">
            <g id="入库" transform="translate(1503.000000, 285.000000)">
                <path d="M41,22 L39,22 L39,10 C39,8.8954305 38.1045695,8 37,8 L35,8 C34.4477153,8 34,7.55228475 34,7 C34,6.44771525 34.4477153,6 35,6 L39,6 C40.1045695,6 41,6.8954305 41,8 L41,22 Z M24,44 L10,44 C8.8954305,44 8,43.1045695 8,42 L8,8 C8,6.8954305 8.8954305,6 10,6 L14,6 C14.5522847,6 15,6.44771525 15,7 C15,7.55228475 14.5522847,8 14,8 L12,8 C10.8954305,8 10,8.8954305 10,10 L10,40 C10,41.1045695 10.8954305,42 12,42 L24,42 L24,44 Z" id="合并形状" fill="#3998FC"></path>
                <circle id="椭圆形" fill="#3998FC" cx="40" cy="22" r="1"></circle>
                <circle id="椭圆形" fill="#3998FC" cx="24" cy="43" r="1"></circle>
                <path d="M19,4 L30,4 C31.1045695,4 32,4.8954305 32,6 L32,8 C32,9.1045695 31.1045695,10 30,10 L19,10 C17.8954305,10 17,9.1045695 17,8 L17,6 C17,4.8954305 17.8954305,4 19,4 Z M20,6 C19.4477153,6 19,6.44771525 19,7 C19,7.55228475 19.4477153,8 20,8 L29,8 C29.5522847,8 30,7.55228475 30,7 C30,6.44771525 29.5522847,6 29,6 L20,6 Z" id="合并形状" fill="#3998FC"></path>
                <rect id="矩形" fill="#3998FC" x="15" y="15" width="15" height="2" rx="1"></rect>
                <rect id="矩形" fill="#3998FC" x="15" y="21" width="9" height="2" rx="1"></rect>
                <rect id="矩形" fill="#3998FC" x="15" y="26" width="9" height="2" rx="1"></rect>
                <circle id="椭圆形" stroke="#3998FC" stroke-width="1.5" cx="36.5" cy="35.5" r="7.5"></circle>
                <path d="M34.5,35.5 L36,37.5" id="直线-8" stroke="#3998FC" stroke-width="1.5" stroke-linecap="round"></path>
                <path d="M36,37.5 L39.5,34.5" id="直线" stroke="#3998FC" stroke-width="1.5" stroke-linecap="round"></path>
            </g>
        </g>
    </g>
</svg>