<?xml version="1.0" encoding="UTF-8"?>
<svg width="50px" height="52px" viewBox="0 0 50 52" version="1.1" xmlns="http://www.w3.org/2000/svg" xmlns:xlink="http://www.w3.org/1999/xlink">
    <!-- Generator: Sketch 53.1 (72631) - https://sketchapp.com -->
    <title>down-all</title>
    <desc>Created with Sketch.</desc>
    <g id="页面-5" stroke="none" stroke-width="1" fill="none" fill-rule="evenodd">
        <g id="1920*1080-首页-流程图01" transform="translate(-1597.000000, -285.000000)" fill="#3998FC">
            <g id="分组" transform="translate(1597.000000, 285.000000)">
                <path d="M8,12 L44,12 C45.1045695,12 46,12.8954305 46,14 L46,36 C46,37.1045695 45.1045695,38 44,38 L8,38 C6.8954305,38 6,37.1045695 6,36 L6,14 C6,12.8954305 6.8954305,12 8,12 Z M10,14 C8.8954305,14 8,14.8954305 8,16 L8,34 C8,35.1045695 8.8954305,36 10,36 L42,36 C43.1045695,36 44,35.1045695 44,34 L44,16 C44,14.8954305 43.1045695,14 42,14 L10,14 Z" id="合并形状"></path>
                <path d="M18,17 C17.4484536,17 17,17.4039466 17,17.9007545 L17,32.0992455 C17,32.5960534 17.4484536,33 18,33 C18.5515464,33 19,32.5960534 19,32.0992455 L19,17.9007545 C19,17.4039466 18.5515464,17 18,17 Z M24,17 C23.4484536,17 23,17.4039466 23,17.9007545 L23,32.0992455 C23,32.5960534 23.4484536,33 24,33 C24.5515464,33 25,32.5960534 25,32.0992455 L25,17.9007545 C25,17.4039466 24.556701,17 24,17 Z M39,17 C38.4484536,17 38,17.4039466 38,17.9007545 L38,32.0992455 C38,32.5960534 38.4484536,33 39,33 C39.5515464,33 40,32.5960534 40,32.0992455 L40,17.9007545 C40,17.4039466 39.5515464,17 39,17 Z M29,17 C28.4487179,17 28,17.4876633 28,18.0867925 L28,31.9132075 C28,32.5123367 28.4487179,33 29,33 C29.5512821,33 30,32.5123367 30,31.9132075 L30,18.0867925 C30,17.4876633 29.5512821,17 29,17 Z M13.5,17 C12.6692308,17 12,17.5432385 12,18.2071967 L12,31.7928033 C12,32.4614045 12.675,33 13.5,33 C14.3307692,33 15,32.4567615 15,31.7928033 L15,18.2071967 C15,17.5385955 14.325,17 13.5,17 Z M33.5,17 C33.2282609,17 33,17.0975044 33,17.213581 L33,32.786419 C33,32.9024956 33.2282609,33 33.5,33 C33.7717391,33 34,32.9024956 34,32.786419 L34,17.213581 C34,17.0975044 33.7826087,17 33.5,17 Z" id="形状" fill-rule="nonzero"></path>
            </g>
        </g>
    </g>
</svg>