<?xml version="1.0" encoding="UTF-8"?>
<svg width="50px" height="52px" viewBox="0 0 50 52" version="1.1" xmlns="http://www.w3.org/2000/svg" xmlns:xlink="http://www.w3.org/1999/xlink">
    <!-- Generator: Sketch 53.1 (72631) - https://sketchapp.com -->
    <title>down-all</title>
    <desc>Created with Sketch.</desc>
    <g id="页面-5" stroke="none" stroke-width="1" fill="none" fill-rule="evenodd">
        <g id="1920*1080-首页-流程图01" transform="translate(-1691.000000, -186.000000)" fill="#3998FC">
            <g id="出库" transform="translate(1691.000000, 186.000000)">
                <path d="M39,23 L37,23 L37,11 C37,9.8954305 36.1045695,9 35,9 L33,9 C32.4477153,9 32,8.55228475 32,8 C32,7.44771525 32.4477153,7 33,7 L37,7 C38.1045695,7 39,7.8954305 39,9 L39,23 Z M22,45 L8,45 C6.8954305,45 6,44.1045695 6,43 L6,9 C6,7.8954305 6.8954305,7 8,7 L12,7 C12.5522847,7 13,7.44771525 13,8 C13,8.55228475 12.5522847,9 12,9 L10,9 C8.8954305,9 8,9.8954305 8,11 L8,41 C8,42.1045695 8.8954305,43 10,43 L22,43 L22,45 Z" id="合并形状"></path>
                <circle id="椭圆形" cx="38" cy="23" r="1"></circle>
                <circle id="椭圆形" cx="22" cy="44" r="1"></circle>
                <path d="M17,5 L28,5 C29.1045695,5 30,5.8954305 30,7 L30,9 C30,10.1045695 29.1045695,11 28,11 L17,11 C15.8954305,11 15,10.1045695 15,9 L15,7 C15,5.8954305 15.8954305,5 17,5 Z M18,7 C17.4477153,7 17,7.44771525 17,8 C17,8.55228475 17.4477153,9 18,9 L27,9 C27.5522847,9 28,8.55228475 28,8 C28,7.44771525 27.5522847,7 27,7 L18,7 Z" id="合并形状"></path>
                <path d="M44.9805677,36.7689657 L32.9577312,36.7689657 L36.0995719,33.4632854 C36.4950227,33.0444926 36.4931848,32.3699322 36.0954583,31.9535085 C35.6977319,31.5370847 35.053459,31.5351604 34.6534698,31.9492016 L29.8059449,37.0886519 C29.4191609,37.5038327 29.4191609,38.1662078 29.8059449,38.5813886 L34.6534698,43.6786654 C34.8372586,43.8868757 35.0968085,44.0036379 35.3675697,43.9999135 C35.6333562,44.0017563 35.8892896,43.8946824 36.080675,43.7015745 C36.4684124,43.2785172 36.4684124,42.610548 36.080675,42.1874907 L32.9577312,38.9036781 L44.9805677,38.9036781 C45.5435846,38.9036781 46,38.4258065 46,37.8363219 C46,37.2468374 45.5435846,36.7689657 44.9805677,36.7689657 L44.9805677,36.7689657 Z" id="形状" fill-rule="nonzero" transform="translate(37.757928, 37.819963) scale(-1, 1) translate(-37.757928, -37.819963) "></path>
                <rect id="矩形" x="15" y="16" width="15" height="2" rx="1"></rect>
                <rect id="矩形" x="15" y="23" width="9" height="2" rx="1"></rect>
                <rect id="矩形" x="15" y="29" width="9" height="2" rx="1"></rect>
            </g>
        </g>
    </g>
</svg>