<?xml version="1.0" encoding="UTF-8"?>
<svg width="50px" height="52px" viewBox="0 0 50 52" version="1.1" xmlns="http://www.w3.org/2000/svg" xmlns:xlink="http://www.w3.org/1999/xlink">
    <!-- Generator: Sketch 53.1 (72631) - https://sketchapp.com -->
    <title>down-all</title>
    <desc>Created with Sketch.</desc>
    <g id="页面-5" stroke="none" stroke-width="1" fill="none" fill-rule="evenodd">
        <g id="1920*1080-首页-流程图01" transform="translate(-1691.000000, -563.000000)" fill="#666666" fill-rule="nonzero">
            <g id="操作手册维护" transform="translate(1691.000000, 563.000000)">
                <path d="M27.9771615,13.0361446 C27.7422512,12.9638554 27.4681892,13 27.2724307,13.1445783 C27.0766721,13.2891566 26.959217,13.5060241 26.959217,13.7228916 L26.959217,16.6506024 C26.959217,17.0481928 26.6068515,17.373494 26.1761827,17.373494 L25.3931485,17.373494 C24.9624796,17.373494 24.6101142,17.0481928 24.6101142,16.6506024 L24.6101142,13.7228916 C24.6101142,13.5060241 24.4926591,13.253012 24.2969005,13.1445783 C24.1011419,13 23.8270799,12.9638554 23.5921697,13.0361446 C20.9298532,13.9036145 19.1680261,16.2168675 19.1680261,18.8192771 C19.1680261,21.2409639 20.7340946,23.4096386 23.0831974,24.4216867 L23.0831974,34.7228916 C23.0831974,35.9156627 24.1402936,36.8915663 25.4323002,36.8915663 L26.2153344,36.8915663 C27.5073409,36.8915663 28.5644372,35.9156627 28.5644372,34.7228916 L28.5644372,24.4216867 C30.91354,23.4457831 32.4796085,21.2409639 32.4796085,18.8192771 C32.4013051,16.253012 30.639478,13.9036145 27.9771615,13.0361446 L27.9771615,13.0361446 Z M27.4681892,23.2650602 C27.1549755,23.373494 26.959217,23.626506 26.959217,23.9518072 L26.959217,34.7590361 C26.959217,35.1566265 26.6068515,35.4819277 26.1761827,35.4819277 L25.3931485,35.4819277 C24.9624796,35.4819277 24.6101142,35.1566265 24.6101142,34.7590361 L24.6101142,23.9518072 C24.6101142,23.6626506 24.4143556,23.373494 24.1011419,23.2650602 C22.0652529,22.6144578 20.6949429,20.8072289 20.6949429,18.8554217 C20.6949429,17.2289157 21.5954323,15.746988 23.0440457,14.9156627 L23.0440457,16.686747 C23.0440457,17.8795181 24.1011419,18.8554217 25.3931485,18.8554217 L26.1761827,18.8554217 C27.4681892,18.8554217 28.5252855,17.8795181 28.5252855,16.686747 L28.5252855,14.9156627 C29.9738989,15.7831325 30.8743883,17.2650602 30.8743883,18.8554217 C30.8352365,20.8072289 29.4649266,22.5783133 27.4681892,23.2650602 L27.4681892,23.2650602 Z M13.7830343,42.5542169 C13.3523654,42.5542169 13,42.8795181 13,43.2771084 C13,43.6746988 13.3523654,44 13.7830343,44 L37,44 C36.9216966,43.7831325 36.8825449,43.5301205 36.8825449,43.2771084 C36.8825449,43.0240964 36.9216966,42.7710843 37,42.5542169 L13.7830343,42.5542169 Z" id="形状"></path>
                <path d="M41,40.198 L41,11.28 C41,10.026 39.8631579,9 38.4736842,9 L11.5263158,9 C10.1368421,9 9,10.026 9,11.28 L9,44.72 C9,45.974 10.1368421,47 11.5263158,47 L38.4736842,47 C39.2736842,47 39.9894737,46.658 40.4526316,46.126 C39.9052632,45.974 39.4,45.708 38.9789474,45.328 C38.8526316,45.404 38.6842105,45.48 38.4736842,45.48 L13.2105263,45.48 C11.8210526,45.48 10.6842105,44.454 10.6842105,43.2 C10.6842105,41.946 11.8210526,40.92 13.2105263,40.92 L39.1894737,40.92 C39.6947368,40.54 40.3263158,40.274 41,40.198 Z M11,39 L11,11.7368421 C11,11.3315789 11.3705882,11 11.8235294,11 L38.1764706,11 C38.6294118,11 39,11.3315789 39,11.7368421 L39,39 L11,39 Z" id="形状"></path>
            </g>
        </g>
    </g>
</svg>