<?xml version="1.0" encoding="UTF-8"?>
<svg width="28px" height="24px" viewBox="0 0 28 24" version="1.1" xmlns="http://www.w3.org/2000/svg" xmlns:xlink="http://www.w3.org/1999/xlink">
    <!-- Generator: Sketch 53.1 (72631) - https://sketchapp.com -->
    <title>分组 2</title>
    <desc>Created with Sketch.</desc>
    <g id="页面-5" stroke="none" stroke-width="1" fill="none" fill-rule="evenodd">
        <g id="1920*1080-基础数据-01-1登录页优化" transform="translate(-1275.000000, -436.000000)" fill="#999999" fill-rule="nonzero">
            <g id="分组-5" transform="translate(1190.000000, 299.000000)">
                <g id="分组-2" transform="translate(84.000000, 134.000000)">
                    <g id="企业码" transform="translate(1.000000, 3.000000)">
                        <path d="M11.4307116,17.7360704 L5.20848939,17.7360704 C4.92883895,17.7360704 4.68414482,17.9824047 4.68414482,18.2639296 C4.68414482,18.5454545 4.92883895,18.7917889 5.20848939,18.7917889 L11.4307116,18.7917889 C11.710362,18.7917889 11.9550562,18.5454545 11.9550562,18.2639296 C11.9550562,17.9824047 11.710362,17.7360704 11.4307116,17.7360704 Z M11.4307116,11.4721408 L5.20848939,11.4721408 C4.92883895,11.4721408 4.68414482,11.7184751 4.68414482,12 C4.68414482,12.2815249 4.92883895,12.5278592 5.20848939,12.5278592 L11.4307116,12.5278592 C11.710362,12.5278592 11.9550562,12.2815249 11.9550562,12 C11.9550562,11.7184751 11.710362,11.4721408 11.4307116,11.4721408 Z M11.4307116,5.20821114 L5.20848939,5.20821114 C4.92883895,5.20821114 4.68414482,5.45454545 4.68414482,5.73607038 C4.68414482,6.01759531 4.92883895,6.26392962 5.20848939,6.26392962 L11.4307116,6.26392962 C11.710362,6.26392962 11.9550562,6.01759531 11.9550562,5.73607038 C11.9550562,5.45454545 11.710362,5.20821114 11.4307116,5.20821114 Z M27.4756554,22.9442815 L25.4132335,22.9442815 L25.4132335,6.26392962 C25.4132335,5.70087977 24.9588015,5.20821114 24.3645443,5.20821114 L15.0661673,5.20821114 L15.0661673,1.05571848 C15.0661673,0.492668622 14.6117353,3.9069432e-16 14.0174782,3.9069432e-16 L2.62172285,0 C2.06242197,0 1.57303371,0.457478006 1.57303371,1.05571848 L1.57303371,22.9442815 L0.524344569,22.9442815 C0.244694132,22.9442815 0,23.1906158 0,23.4721408 C0,23.7536657 0.244694132,24 0.524344569,24 L1.57303371,24 L2.62172285,24 L14.0174782,24 L15.0661673,24 L25.4132335,24 L27.4756554,24 C27.7553059,24 28,23.7536657 28,23.4721408 C28,23.1906158 27.7553059,22.9442815 27.4756554,22.9442815 Z M14.0174782,5.20821114 L14.0174782,22.9442815 L2.62172285,22.9442815 L2.62172285,1.58357771 C2.62172285,1.30205279 2.86641698,1.05571848 3.14606742,1.05571848 L13.4931336,1.05571848 C13.772784,1.05571848 14.0174782,1.30205279 14.0174782,1.58357771 L14.0174782,5.20821114 Z M24.3645443,22.9442815 L15.0661673,22.9442815 L15.0661673,6.26392962 L23.8751561,6.26392962 C24.1548065,6.26392962 24.3995006,6.51026393 24.3995006,6.79178886 L24.3995006,22.9442815 L24.3645443,22.9442815 Z M22.3021223,9.39589443 L17.1285893,9.39589443 C16.8489388,9.39589443 16.6042447,9.64222874 16.6042447,9.92375367 C16.6042447,10.2052786 16.8489388,10.4516129 17.1285893,10.4516129 L22.3021223,10.4516129 C22.5817728,10.4516129 22.8264669,10.2052786 22.8264669,9.92375367 C22.8264669,9.64222874 22.5817728,9.39589443 22.3021223,9.39589443 Z M22.3021223,14.0762463 L17.1285893,14.0762463 C16.8489388,14.0762463 16.6042447,14.3225806 16.6042447,14.6041056 C16.6042447,14.8856305 16.8489388,15.1319648 17.1285893,15.1319648 L22.3021223,15.1319648 C22.5817728,15.1319648 22.8264669,14.8856305 22.8264669,14.6041056 C22.8264669,14.3225806 22.5817728,14.0762463 22.3021223,14.0762463 Z M22.3021223,18.7917889 L17.1285893,18.7917889 C16.8489388,18.7917889 16.6042447,19.0381232 16.6042447,19.3196481 C16.6042447,19.601173 16.8489388,19.8475073 17.1285893,19.8475073 L22.3021223,19.8475073 C22.5817728,19.8475073 22.8264669,19.601173 22.8264669,19.3196481 C22.8264669,19.0381232 22.5817728,18.7917889 22.3021223,18.7917889 Z" id="形状"></path>
                    </g>
                </g>
            </g>
        </g>
    </g>
</svg>