<?xml version="1.0" encoding="UTF-8"?>
<svg width="50px" height="52px" viewBox="0 0 50 52" version="1.1" xmlns="http://www.w3.org/2000/svg" xmlns:xlink="http://www.w3.org/1999/xlink">
    <!-- Generator: Sketch 53.1 (72631) - https://sketchapp.com -->
    <title>down-all</title>
    <desc>Created with Sketch.</desc>
    <g id="页面-5" stroke="none" stroke-width="1" fill="none" fill-rule="evenodd">
        <g id="1920*1080-首页-流程图01" transform="translate(-1597.000000, -380.000000)" fill="#666666">
            <g id="分组-3" transform="translate(1597.000000, 380.000000)">
                <rect id="矩形" x="16" y="10" width="18" height="2" rx="1"></rect>
                <rect id="矩形" x="32" y="10" width="2" height="21" rx="1"></rect>
                <rect id="矩形" x="32" y="29" width="15" height="2" rx="1"></rect>
                <rect id="矩形" x="32" y="16" width="7" height="2" rx="1"></rect>
                <rect id="矩形" transform="translate(42.127560, 23.037774) rotate(56.000000) translate(-42.127560, -23.037774) " x="34.12756" y="22.0377741" width="16" height="2" rx="1"></rect>
                <rect id="矩形" x="45" y="28" width="2" height="12" rx="1"></rect>
                <rect id="矩形" x="41" y="38" width="6" height="2" rx="1"></rect>
                <rect id="矩形" x="22" y="38" width="11" height="2" rx="1"></rect>
                <rect id="矩形" x="8" y="38" width="6" height="2" rx="1"></rect>
                <rect id="矩形" x="10" y="16" width="17" height="2" rx="1"></rect>
                <rect id="矩形" x="7" y="22" width="15" height="2" rx="1"></rect>
                <rect id="矩形" x="9" y="29" width="16" height="2" rx="1"></rect>
                <path d="M18,46 C14.6862915,46 12,43.3137085 12,40 C12,36.6862915 14.6862915,34 18,34 C21.3137085,34 24,36.6862915 24,40 C24,43.3137085 21.3137085,46 18,46 Z M18,44 C20.209139,44 22,42.209139 22,40 C22,37.790861 20.209139,36 18,36 C15.790861,36 14,37.790861 14,40 C14,42.209139 15.790861,44 18,44 Z" id="合并形状"></path>
                <path d="M37,46 C33.6862915,46 31,43.3137085 31,40 C31,36.6862915 33.6862915,34 37,34 C40.3137085,34 43,36.6862915 43,40 C43,43.3137085 40.3137085,46 37,46 Z M37,44 C39.209139,44 41,42.209139 41,40 C41,37.790861 39.209139,36 37,36 C34.790861,36 33,37.790861 33,40 C33,42.209139 34.790861,44 37,44 Z" id="合并形状"></path>
            </g>
        </g>
    </g>
</svg>