<?xml version="1.0" encoding="UTF-8"?>
<svg width="1233px" height="510px" viewBox="0 0 1233 510" version="1.1" xmlns="http://www.w3.org/2000/svg" xmlns:xlink="http://www.w3.org/1999/xlink">
    <!-- Generator: Sketch 53.1 (72631) - https://sketchapp.com -->
    <title>down-all</title>
    <desc>Created with Sketch.</desc>
    <g id="页面-5" stroke="none" stroke-width="1" fill="none" fill-rule="evenodd">
        <g id="1920*1080-首页-流程图01" transform="translate(-119.000000, -306.000000)">
            <g id="分组-7" transform="translate(119.000000, 306.000000)">
                <path d="M179,230.983755 L321.188,231.5" id="直线-6" stroke="#AFD5FC" stroke-width="3" stroke-linecap="round" stroke-dasharray="10,15"></path>
                <path d="M390,230.983755 L507,231.5" id="直线-6" stroke="#AFD5FC" stroke-width="3" stroke-linecap="round" stroke-dasharray="10,15"></path>
                <path d="M567,65.9837555 L653.533333,65.9837555" id="直线-6" stroke="#AFD5FC" stroke-width="3" stroke-linecap="round" stroke-dasharray="10,15"></path>
                <path d="M584.733333,142.655837 L736.533333,142.655837" id="直线-6" stroke="#AFD5FC" stroke-width="3" stroke-linecap="round" stroke-dasharray="10,15" transform="translate(661.000000, 143.000000) rotate(90.000000) translate(-661.000000, -143.000000) "></path>
                <path d="M721.976923,194.75 L815.023077,194.75" id="直线-6" stroke="#AFD5FC" stroke-width="3" stroke-linecap="round" stroke-dasharray="10,10" transform="translate(768.500000, 194.000000) rotate(90.000000) translate(-768.500000, -194.000000) "></path>
                <path d="M516.5,350.25 L579.999399,350" id="直线-6" stroke="#AFD5FC" stroke-width="3" stroke-linecap="round" stroke-dasharray="10,15" transform="translate(548.500000, 350.000000) rotate(90.000000) translate(-548.500000, -350.000000) "></path>
                <path d="M680.5,231.241878 L966.264286,231.5" id="直线-6" stroke="#AFD5FC" stroke-width="3" stroke-linecap="round" stroke-dasharray="10,15"></path>
                <ellipse id="椭圆形" stroke="#AFD5FC" stroke-width="3" cx="662" cy="230.5" rx="7" ry="6.5"></ellipse>
                <path d="M510,231.5 L645.344163,231.5" id="直线-6" stroke="#AFD5FC" stroke-width="3" stroke-linecap="round" stroke-dasharray="10,15"></path>
                <path d="M562.730435,379.75 L728.53913,379.75" id="直线-6" stroke="#AFD5FC" stroke-width="3" stroke-linecap="round" stroke-dasharray="10,15"></path>
                <g id="01" transform="translate(119.000000, 187.000000)">
                    <ellipse id="椭圆形" fill="#85C0FD" cx="40" cy="41" rx="40" ry="41"></ellipse>
                    <ellipse id="椭圆形" fill="#AFD5FC" cx="40" cy="41" rx="35" ry="36"></ellipse>
                </g>
                <g id="单据-(1)" transform="translate(142.000000, 208.000000)" fill="#FFFFFF" fill-rule="nonzero">
                    <polygon id="路径" points="13 19.0000289 17 19.0000289 17 30 13 30 13 19"></polygon>
                    <polygon id="路径" points="10 24 21 24 21 27 10 27"></polygon>
                    <path d="M34.5864106,14.09375 L32.7769572,12.3 L31.7946824,11.32625 L21.7909897,1.409375 L21.4807976,1.101875 L20.3692762,0 L6.35893648,0 C4.0967384,0.00951300419 2.00996626,1.20972724 0.8788774,3.151875 C0.30789463,4.1061194 0.00447224797,5.19426823 0,6.30375 L0,34.69625 C0.0141660686,38.1718815 2.85287738,40.9859569 6.35893648,41 L28.6410635,41 C32.1471226,40.9859569 34.9858339,38.1718815 35,34.69625 L35,14.50375 L34.5864106,14.09375 Z M21.661743,5.8425 L28.2791728,12.3 L24.9704579,12.3 C23.2144861,12.3 21.7909897,10.8888575 21.7909897,9.148125 L21.661743,5.8425 Z M31.6912851,29.16125 L31.6912851,34.670625 C31.6912851,36.4113575 30.2677887,37.8225 28.5118168,37.8225 L6.35893648,37.8225 C4.60296466,37.8225 3.17946824,36.4113575 3.17946824,34.670625 L3.17946824,6.30375 C3.17946824,4.5630175 4.60296466,3.151875 6.35893648,3.151875 L18.6115214,3.151875 L18.6115214,9.148125 C18.6677894,12.5936987 21.494291,15.3615 24.9704579,15.375 L31.8205318,15.375 L31.6912851,29.16125 Z" id="形状"></path>
                </g>
                <g id="02" transform="translate(313.000000, 187.000000)">
                    <ellipse id="椭圆形" fill="#85C0FD" cx="40.5" cy="41" rx="40.5" ry="41"></ellipse>
                    <ellipse id="椭圆形" fill="#AFD5FC" cx="40.5" cy="41" rx="35.5" ry="36"></ellipse>
                </g>
                <g id="审核-(1)" transform="translate(335.000000, 205.000000)" fill="#FFFFFF" fill-rule="nonzero">
                    <path d="M3.25214129,43 C2.50653552,43 1.89995058,42.3813882 1.89995053,41.6209993 L1.89995053,37.1102836 L1.35134717,37.1102836 C0.606191334,37.1102836 0,36.4917292 0,35.7313402 L0,32.7860231 C0,30.9437805 1.4585371,29.4450262 3.25135392,29.4450262 C5.1237478,29.4450262 7.67133716,28.64059 9.74168943,27.3957385 C12.0019017,26.0366393 13.2981917,24.4243831 13.2981917,22.972257 L13.2981917,21.9899112 C13.2981917,20.4416038 13.2983042,20.2794662 11.0897185,17.9983568 C8.87089751,16.0523048 7.59822759,13.2151559 7.59822759,10.2140342 C7.59822759,7.48855198 8.62581156,4.92612502 10.4916818,2.99877019 C12.3611513,1.06499182 14.8500842,-5.60469738e-08 17.4999708,0 C20.1483953,0 22.6370471,1.06504921 24.5075289,2.99882758 C26.373849,4.92566622 27.4016579,7.48809318 27.4016579,10.2139195 C27.4016579,13.2132059 26.1300565,16.0496665 23.9130351,17.9964067 C21.7110293,20.2714367 21.7111418,20.435639 21.7111418,21.7117481 C21.7111418,22.5341359 21.7040558,22.9197215 21.7026498,22.9886601 C21.7104107,24.4369435 23.0090627,26.0457585 25.2653383,27.4006709 C27.3340596,28.6429989 29.8792308,29.4457145 31.7495439,29.4457145 C33.5418546,29.4457145 34.999998,30.9444688 34.999998,32.7867687 L34.999998,35.7320284 C35.0006166,36.0993184 34.8603586,36.445273 34.6051498,36.7059434 C34.3499972,36.9665564 34.0109372,37.1101115 33.6504505,37.1101115 L33.1043215,37.1101115 L33.1043215,41.6208272 C33.1020157,42.3813309 32.4946435,42.9998279 31.7504437,42.9998279 L3.25231001,42.9998279 L3.25231001,43 L3.25214129,43 Z M30.2702703,40.1333333 L30.2702703,37.2666667 L5.67567568,37.2666667 L5.67567568,40.1333333 L30.2702703,40.1333333 Z M31.6210428,34.3988551 C31.631241,34.3988551 31.6413835,34.3992558 31.651526,34.3999428 L32.1621622,34.4 L32.1621622,32.8372554 C32.1621622,32.5167952 31.9190207,32.2560992 31.6201511,32.2560993 C29.2819692,32.2560993 26.1818176,31.2782891 23.7223157,29.7650618 C20.6660221,27.8828302 18.9828678,25.4957506 18.9828678,23.0435829 C18.9828678,23.0301875 18.9835922,23.0155327 18.9848182,23.0009923 C18.9868245,22.8992671 18.9930103,22.5230497 18.9930103,21.783896 C18.9930103,19.5498909 19.3844441,18.8061574 21.9846594,16.0995336 L21.9920154,16.09192 C21.9953591,16.0885997 22.0145853,16.0710253 22.0203253,16.0655297 C22.0384927,16.0482989 22.0566043,16.0314687 22.0749945,16.0161269 C23.6985198,14.5971258 24.6303486,12.5161378 24.6303487,10.3076641 C24.6303487,6.20465107 21.4316699,2.86666667 17.5,2.86666667 C13.5678286,2.86666667 10.3688155,6.2047083 10.3688154,10.3076641 C10.3688154,12.5172255 11.3022046,14.5993583 12.929631,16.0203058 C12.9572721,16.0441199 12.9864178,16.071655 13.0135574,16.0995336 C14.2840456,17.4205877 15.0555447,18.3012523 15.4944588,19.1717844 C15.9780112,20.1369433 16.0154047,20.978223 16.0154047,22.0614794 L16.0154047,23.04198 C16.0154047,25.4949492 14.3322503,27.8826012 11.2760681,29.7651764 C8.81645483,31.2784608 5.71730631,32.256271 3.38062911,32.256271 C3.08131371,32.256271 2.83783789,32.5169669 2.83783784,32.8374272 L2.83783784,34.4 L3.35594156,34.3998855 C3.36151439,34.3994275 3.37104386,34.3990268 3.38062911,34.3990268 C3.39054873,34.3990268 3.4003011,34.3994275 3.41005348,34.4 L31.5962995,34.3998855 C31.6019281,34.3992558 31.6114018,34.398855 31.6210428,34.3988551 Z" id="形状"></path>
                </g>
                <g id="03" transform="translate(507.000000, 187.000000)">
                    <ellipse id="椭圆形" fill="#85C0FD" cx="40.5" cy="41" rx="40.5" ry="41"></ellipse>
                    <ellipse id="椭圆形" fill="#AFD5FC" cx="40.5" cy="41" rx="35.5" ry="36"></ellipse>
                </g>
                <g id="04" transform="translate(507.000000, 24.000000)">
                    <ellipse id="椭圆形" fill="#85C0FD" cx="40.5" cy="41" rx="40.5" ry="41"></ellipse>
                    <ellipse id="椭圆形" fill="#AFD5FC" cx="40.5" cy="41" rx="35.5" ry="36"></ellipse>
                </g>
                <g id="05" transform="translate(727.000000, 24.000000)">
                    <ellipse id="椭圆形" fill="#85C0FD" cx="40" cy="41" rx="40" ry="41"></ellipse>
                    <ellipse id="椭圆形" fill="#AFD5FC" cx="40" cy="41" rx="35" ry="36"></ellipse>
                </g>
                <g id="06" transform="translate(727.000000, 187.000000)">
                    <ellipse id="椭圆形" fill="#85C0FD" cx="40" cy="41" rx="40" ry="41"></ellipse>
                    <ellipse id="椭圆形" fill="#AFD5FC" cx="40" cy="41" rx="35" ry="36"></ellipse>
                </g>
                <g id="07" transform="translate(727.000000, 334.000000)">
                    <ellipse id="椭圆形" fill="#85C0FD" cx="40" cy="40.5" rx="40" ry="40.5"></ellipse>
                    <ellipse id="椭圆形" fill="#AFD5FC" cx="40" cy="40.5" rx="35" ry="35.5"></ellipse>
                </g>
                <g id="07" transform="translate(957.000000, 187.000000)">
                    <ellipse id="椭圆形" fill="#85C0FD" cx="40" cy="41" rx="40" ry="41"></ellipse>
                    <ellipse id="椭圆形" fill="#AFD5FC" cx="40" cy="41" rx="35" ry="36"></ellipse>
                </g>
                <g id="单据-(1)" transform="translate(531.000000, 207.000000)" fill="#FFFFFF" fill-rule="nonzero">
                    <path d="M10,20 L27,20 L27,23.6666667 L10,23.6666667 L10,20 Z M10,27.3333333 L27,27.3333333 L27,31 L10,31 L10,27.3333333 Z" id="形状"></path>
                    <path d="M34.5864106,14.4375 L32.7769572,12.6 L31.7946824,11.6025 L21.7909897,1.44375 L21.4807976,1.12875 L20.3692762,0 L6.35893648,0 C4.0967384,0.00974502868 2.00996626,1.23923279 0.8788774,3.22875 C0.30789463,4.20626865 0.00447224797,5.3209577 0,6.4575 L0,35.5425 C0.0141660686,39.102903 2.85287738,41.9856144 6.35893648,42 L28.6410635,42 C32.1471226,41.9856144 34.9858339,39.102903 35,35.5425 L35,14.8575 L34.5864106,14.4375 Z M21.661743,5.985 L28.2791728,12.6 L24.9704579,12.6 C23.2144861,12.6 21.7909897,11.1544394 21.7909897,9.37125 L21.661743,5.985 Z M31.6912851,29.8725 L31.6912851,35.51625 C31.6912851,37.2994394 30.2677887,38.745 28.5118168,38.745 L6.35893648,38.745 C4.60296466,38.745 3.17946824,37.2994394 3.17946824,35.51625 L3.17946824,6.4575 C3.17946824,4.67431061 4.60296466,3.22875 6.35893648,3.22875 L18.6115214,3.22875 L18.6115214,9.37125 C18.6677894,12.9008621 21.494291,15.7361707 24.9704579,15.75 L31.8205318,15.75 L31.6912851,29.8725 Z" id="形状"></path>
                </g>
                <g id="单据-撤回" transform="translate(532.000000, 45.000000)" fill="#FFFFFF" fill-rule="nonzero">
                    <path d="M33.5982275,13.75 L31.8404727,12 L30.8862629,11.05 L21.16839,1.375 L20.8670606,1.075 L19.7872969,0 L6.17725258,0 C3.97968874,0.00928097969 1.95253866,1.1802217 0.853766617,3.075 C0.299097641,4.00597014 0.00434446946,5.06757876 0,6.15 L0,33.85 C0.0137613238,37.24086 2.7713666,39.9862994 6.17725258,40 L27.8227474,40 C31.2286334,39.9862994 33.9862387,37.24086 34,33.85 L34,14.15 L33.5982275,13.75 Z M21.042836,5.7 L27.4711965,12 L24.2570162,12 C22.551215,12 21.16839,10.6232756 21.16839,8.925 L21.042836,5.7 Z M30.7858198,28.45 L30.7858198,33.825 C30.7858198,35.5232756 29.4029947,36.9 27.6971935,36.9 L6.17725258,36.9 C4.47145139,36.9 3.08862629,35.5232756 3.08862629,33.825 L3.08862629,6.15 C3.08862629,4.45172439 4.47145139,3.075 6.17725258,3.075 L18.0797637,3.075 L18.0797637,8.925 C18.134424,12.2865354 20.8801684,14.9868292 24.2570162,15 L30.9113737,15 L30.7858198,28.45 Z" id="形状"></path>
                    <path d="M20.558672,20.9135374 L13.3298055,20.9135374 L15.6945907,18.4019951 C16.1545306,17.8343545 16.6144705,16.9427302 16.1545306,16.2920854 C15.6945907,15.7244447 14.9070522,16.0511059 14.3798569,16.6990731 L10.5029108,20.9965415 C9.71320266,21.8078393 9.91062969,22.2148269 10.6981683,23.1867777 L14.5772839,27.5672502 C15.0372238,28.1348909 15.9571036,28.0518868 16.1545306,27.6475767 C16.3519577,27.1602625 16.2847023,26.5122953 15.8269319,25.8643281 L13.3948913,23.2671042 L20.6237579,23.2671042 C23.4506526,23.2671042 25.2904121,23.8393939 25.2904121,26.7559524 C25.2904121,29.6725109 23.1859702,30.8097638 20.6259274,30.8097638 L19.1927094,30.8097638 C18.5353424,30.8097638 17.8128897,31.0534208 17.8128897,31.8647186 C17.8128897,32.6760164 18.4702566,33 19.1927094,33 L20.6215883,33 C23.5572323,33 24.3040259,32.4535691 25.8898062,30.8097638 C26.4459637,30.2332559 27,28.9660552 27,26.6729484 C26.9327446,23.0234472 24.9606439,20.916215 20.5565025,20.916215 L20.558672,20.9135374 Z" id="路径"></path>
                </g>
                <g id="收货" transform="translate(746.000000, 207.000000)" fill="#FFFFFF" fill-rule="nonzero">
                    <path d="M41.6063142,9.94110056 L37.9317751,3.03509369 C37.0236455,1.33298066 34.7742835,0 32.8109519,0 L10.2178347,0 C8.25720788,0 6.00002134,1.32529138 5.08397059,3.01466758 L1.41203964,9.77967295 C0.619442735,11.2434185 0,13.6838434 0,15.3372734 L0,38.0625251 C0,40.2337782 1.80577821,42 4.03142509,42 L38.9684783,42 C41.1915653,42 43,40.2337311 43,38.0625251 L43,15.4987954 C43,13.8478656 42.3885267,11.4048461 41.6063142,9.94110056 Z M3.79002354,11.0075511 L7.45934632,4.24509312 C7.91867578,3.39913133 9.23358487,2.62496757 10.2178347,2.62496757 L32.8110002,2.62496757 C33.7900337,2.62496757 35.09451,3.39908416 35.5485748,4.24764048 L39.2232106,11.1510056 C39.396413,11.4791443 39.5591345,11.8996486 39.7087184,12.3507684 L3.25196568,12.3507684 C3.41473543,11.8457765 3.59320256,11.3689471 3.79002354,11.0075511 Z M40.3123189,38.0624779 C40.3123189,38.7853641 39.7113266,39.3748909 38.9685266,39.3748909 L4.03147339,39.3748909 C3.2887217,39.3748909 2.68768112,38.7853169 2.68768112,38.0624779 L2.68768112,15.3372263 C2.68768112,15.2321238 2.70869146,15.0936697 2.71912418,14.9758303 L40.2676417,14.9758303 C40.2834357,15.1501363 40.3122706,15.3449155 40.3122706,15.4987482 L40.3122706,38.0624779 L40.3123189,38.0624779 Z M32.7979593,22.2047868 L26.028863,29.2671265 L23.2966496,26.6037126 C22.7716809,26.0909841 21.9213177,26.0909841 21.396349,26.6037126 C20.8714286,27.1163466 20.8714286,27.9469298 21.396349,28.4596111 L25.0814174,32.0485685 C25.3439259,32.3048619 25.6851145,32.4330322 26.0289113,32.4330322 C26.2152995,32.4330322 26.398983,32.3868966 26.5749386,32.3100038 C26.7717112,32.2433005 26.955443,32.1407926 27.1076835,31.9843654 L34.7611943,23.9992654 C35.2677608,23.4712057 35.2388776,22.6406696 34.6982116,22.1433197 C34.1574489,21.6511118 33.3070857,21.6767741 32.797911,22.2048339 L32.7979593,22.2047868 Z M17.4934009,24.1222467 L9.42784597,24.1222467 C8.68765417,24.1222467 8.08400541,24.7093205 8.08400541,25.434754 C8.08400541,26.1601876 8.68770247,26.7472614 9.42784597,26.7472614 L17.4934492,26.7472614 C18.2362009,26.7472614 18.8372898,26.1601876 18.8372898,25.434754 C18.8372898,24.7093205 18.2362009,24.1222467 17.4934009,24.1222467 Z M13.4146905,29.7209352 L9.38321711,29.7209352 C8.64046543,29.7209352 8.03942485,30.3106036 8.03942485,31.0333954 C8.03942485,31.7614236 8.64046543,32.3459028 9.38321711,32.3459028 L13.4146905,32.3459028 C14.1575388,32.3459028 14.7585311,31.7614236 14.7585311,31.0333954 C14.7585311,30.3105564 14.1574905,29.7209352 13.4146905,29.7209352 Z" id="形状"></path>
                </g>
                <g id="收货" transform="translate(746.000000, 45.000000)" fill="#FFFFFF" fill-rule="nonzero">
                    <path d="M41.6063142,10.4144863 L37.9317751,3.17962196 C37.0236455,1.39645592 34.7742835,0 32.8109519,0 L10.2178347,0 C8.25720788,0 6.00002134,1.38840049 5.08397059,3.15822318 L1.41203964,10.2453717 C0.619442735,11.7788193 0,14.335455 0,16.0676198 L0,39.8750263 C0,42.1496724 1.80577821,44 4.03142509,44 L38.9684783,44 C41.1915653,44 43,42.149623 43,39.8750263 L43,16.2368333 C43,14.5072877 42.3885267,11.947934 41.6063142,10.4144863 Z M3.79002354,11.5317202 L7.45934632,4.44724041 C7.91867578,3.56099473 9.23358487,2.74996602 10.2178347,2.74996602 L32.8110002,2.74996602 C33.7900337,2.74996602 35.09451,3.56094531 35.5485748,4.44990908 L39.2232106,11.6820059 C39.396413,12.0257702 39.5591345,12.4662985 39.7087184,12.9389003 L3.25196568,12.9389003 C3.41473543,12.4098611 3.59320256,11.9103255 3.79002354,11.5317202 Z M40.3123189,39.8749768 C40.3123189,40.6322862 39.7113266,41.2498857 38.9685266,41.2498857 L4.03147339,41.2498857 C3.2887217,41.2498857 2.68768112,40.6322368 2.68768112,39.8749768 L2.68768112,16.0675704 C2.68768112,15.957463 2.70869146,15.8124158 2.71912418,15.6889651 L40.2676417,15.6889651 C40.2834357,15.8715714 40.3122706,16.0756258 40.3122706,16.2367838 L40.3122706,39.8749768 L40.3123189,39.8749768 Z" id="形状"></path>
                    <g id="取消-(1)" transform="translate(15.000000, 19.000000)">
                        <path d="M2.1522755,14.6306964 C1.83377687,14.9492017 1.369555,15.0735922 0.934477776,14.9570111 C0.499400553,14.8404301 0.159566558,14.500589 0.0429879679,14.0655026 C-0.0735906225,13.6304162 0.0507972527,13.1661846 0.369295885,12.8476793 L12.8482624,0.369080807 C13.1667611,0.0506880727 13.6309229,-0.0735983792 14.0659026,0.0430389554 C14.5008823,0.15967629 14.8405962,0.499517425 14.9570773,0.934547494 C15.0735584,1.36957756 14.9491104,1.83370515 14.6306118,2.15209789 L2.15164523,14.6306964 L2.1522755,14.6306964 Z" id="路径"></path>
                        <path d="M0.369304351,2.15227962 C0.0507984172,1.83378038 -0.0735923096,1.36955762 0.0429889534,0.934479565 C0.159570216,0.499401509 0.499412002,0.159566864 0.934499198,0.0429880502 C1.36958639,-0.0735907634 1.83381891,0.0507973499 2.15232484,0.369296592 L14.6309472,12.848287 C15.1231406,13.3406442 15.1229996,14.1387718 14.630632,14.6309549 C14.1382645,15.1231381 13.3401202,15.122997 12.8479267,14.6306398 L0.369304351,2.15164935 L0.369304351,2.15227962 Z" id="路径"></path>
                    </g>
                </g>
                <g id="上架-(2)" transform="translate(974.000000, 205.000000)" fill="#FFFFFF" fill-rule="nonzero">
                    <path d="M47,25.7499518 L47,25.7499518 C47,25.2499528 47,24.7499022 46.4777796,24.2499547 L46.2166962,23.9999809 L37.6000323,14.499999 C37.338949,14.2500253 37.0778118,14 36.5555376,14 L31.3333333,14 C30.5500296,14 30.0278092,14.499999 30.0278092,15.2499719 C30.0278092,15.9999447 30.5500296,16.4999437 31.3333333,16.4999437 L36.0333172,16.4999437 L42.3000161,23.2499566 L36.0333172,23.2499566 C34.9888226,23.2499566 33.9444355,23.9999294 33.6832984,24.999979 L32.3777742,29.0000229 C32.1166909,30.0000725 31.07225,30.7500453 30.0277554,30.7500453 L17.4944113,30.7500453 C16.4499166,30.7500453 15.4055296,30.0000725 15.1443925,29.0000229 L13.8388683,24.999979 C13.3166478,24.2500062 12.272207,23.4999819 11.2277661,23.4999819 L4.96106718,23.4999819 L11.2277661,16.749969 L15.6666667,16.749969 C16.4499704,16.749969 16.9721908,16.24997 16.9721908,15.4999971 C16.9721908,14.7500243 16.4499704,14.2500253 15.6666667,14.2500253 L10.4444624,14.2500253 C10.1833791,14.2500253 9.66115862,14.499999 9.39996773,14.7500243 L0.78330375,24.2500062 L0.522220429,24.7500052 C0.261137108,24.999979 0,25.2500043 0,25.7500548 L0,25.7500548 C0,25.7500548 0,25.7500548 0,26.0000286 L0,38.5000048 C0,39.7499766 1.30552418,41 2.61110215,41 L44.3888979,41 C45.694422,41 47,39.7500281 47,38.5000048 L47,25.7499518 C47,25.9999256 47,25.9999256 47,25.7499518 L47,25.7499518 Z M44.3888979,38.5000048 L2.61110215,38.5000048 L2.61110215,26.0000286 L11.2277661,26.0000286 L12.5332903,30.0000725 C13.3165941,32.0000687 15.1443925,33.5000658 17.4944113,33.5000658 L29.5055349,33.5000658 C31.8555538,33.5000658 33.6833522,32.2500939 34.4666559,30.0000725 L35.7721801,26.0000286 L44.3888979,26.0000286 L44.3888979,38.5000048 L44.3888979,38.5000048 Z" id="形状"></path>
                    <path d="M29.6540977,7.50007725 C29.4060032,7.75005064 28.6615664,8.00007553 28.1653774,7.50007725 L24.939791,4.25006266 L24.939791,13.75003 C24.939791,14.5000017 24.4435508,15 23.6992162,15 C22.9548815,15 22.4586414,14.5000017 22.4586414,13.75003 L22.4586414,4.25006266 L18.9849605,7.50007725 C18.4887204,8.00007553 17.7443857,8.00007553 17.2480945,7.50007725 C17,7.25010386 17,7.00007896 17,6.50002918 C17,6.0000309 17.2480945,5.75005751 17.4962401,5.49998112 L22.4586414,0.499998283 C22.4586414,0.499998283 22.9548815,0 23.4511728,0 C24.1955074,0 24.6917476,0.749971676 24.6917476,0.749971676 L29.4060543,5.49998112 C30.150389,6.24995279 30.150389,6.99997597 29.6541488,7.49997425 L29.6540977,7.50007725 Z" id="路径"></path>
                </g>
                <g id="上架-(2)" transform="translate(744.000000, 353.000000)" fill="#FFFFFF" fill-rule="nonzero">
                    <path d="M46,24.3147684 L46,24.3147684 C46,23.8332879 46,23.3517577 45.4888906,22.8703267 L45.2333623,22.6296113 L36.8000316,13.4814806 C36.5445032,13.2407651 36.2889222,13 35.7777602,13 L30.6666667,13 C29.900029,13 29.3889196,13.4814806 29.3889196,14.2036766 C29.3889196,14.9258727 29.900029,15.4073532 30.6666667,15.4073532 L35.2666509,15.4073532 L41.4000158,21.9073656 L35.2666509,21.9073656 C34.2443795,21.9073656 33.2222134,22.6295617 32.9666324,23.5925724 L31.6888854,27.4444665 C31.433357,28.4074772 30.4111383,29.1296733 29.388867,29.1296733 L17.1221898,29.1296733 C16.0999184,29.1296733 15.0777523,28.4074772 14.8221713,27.4444665 L13.5444243,23.5925724 C13.0333149,22.8703763 12.0110962,22.1481307 10.9888775,22.1481307 L4.85551256,22.1481307 L10.9888775,15.6481183 L15.3333333,15.6481183 C16.099971,15.6481183 16.6110804,15.1666377 16.6110804,14.4444417 C16.6110804,13.7222456 16.099971,13.2407651 15.3333333,13.2407651 L10.2222398,13.2407651 C9.96671141,13.2407651 9.45560206,13.4814806 9.19996841,13.7222456 L0.766637713,22.8703763 L0.511109356,23.3518569 C0.255581,23.5925724 0,23.8333375 0,24.3148676 L0,24.3148676 C0,24.3148676 0,24.3148676 0,24.5555831 L0,36.5925972 C0,37.7962738 1.27774707,39 2.55554678,39 L43.4444532,39 C44.7222003,39 46,37.7963234 46,36.5925972 L46,24.3147684 C46,24.5554839 46,24.5554839 46,24.3147684 L46,24.3147684 Z M43.4444532,36.5925972 L2.55554678,36.5925972 L2.55554678,24.5555831 L10.9888775,24.5555831 L12.2666246,28.4074772 C13.0332623,30.3333995 14.8221713,31.7778411 17.1221898,31.7778411 L28.8777576,31.7778411 C31.177776,31.7778411 32.9666851,30.5741645 33.7333228,28.4074772 L35.0110699,24.5555831 L43.4444532,24.5555831 L43.4444532,36.5925972 L43.4444532,36.5925972 Z" id="形状"></path>
                    <path d="M29.6540977,7.50007725 C29.4060032,7.75005064 28.6615664,8.00007553 28.1653774,7.50007725 L24.939791,4.25006266 L24.939791,13.75003 C24.939791,14.5000017 24.4435508,15 23.6992162,15 C22.9548815,15 22.4586414,14.5000017 22.4586414,13.75003 L22.4586414,4.25006266 L18.9849605,7.50007725 C18.4887204,8.00007553 17.7443857,8.00007553 17.2480945,7.50007725 C17,7.25010386 17,7.00007896 17,6.50002918 C17,6.0000309 17.2480945,5.75005751 17.4962401,5.49998112 L22.4586414,0.499998283 C22.4586414,0.499998283 22.9548815,0 23.4511728,0 C24.1955074,0 24.6917476,0.749971676 24.6917476,0.749971676 L29.4060543,5.49998112 C30.150389,6.24995279 30.150389,6.99997597 29.6541488,7.49997425 L29.6540977,7.50007725 Z" id="路径"></path>
                </g>
                <path d="M132.98,288.004 L140.162,288.004 L140.162,289.306 L134.506,289.306 L134.506,292.218 L139.826,292.218 L139.826,293.52 L134.506,293.52 L134.506,296.698 L140.4,296.698 L140.4,298 L132.98,298 L132.98,288.004 Z M141.954,288.004 L146.378,288.004 C147.386,288.004 148.198,288.228 148.786,288.69 C149.402,289.194 149.71,289.908 149.71,290.86 C149.71,291.392 149.57,291.854 149.29,292.26 C148.968,292.708 148.534,293.002 147.988,293.142 L147.988,293.17 C148.884,293.366 149.374,293.954 149.486,294.934 L149.654,296.53 C149.71,297.146 149.906,297.636 150.242,298 L148.59,298 C148.352,297.692 148.212,297.244 148.156,296.684 L148.03,295.438 C147.974,294.878 147.792,294.486 147.498,294.234 C147.19,293.982 146.756,293.87 146.182,293.87 L143.48,293.87 L143.48,298 L141.954,298 L141.954,288.004 Z M143.48,289.306 L143.48,292.568 L146.182,292.568 C146.854,292.568 147.358,292.414 147.694,292.134 C148.016,291.854 148.184,291.448 148.184,290.916 C148.184,290.356 148.016,289.95 147.708,289.698 C147.372,289.432 146.868,289.306 146.168,289.306 L143.48,289.306 Z M151.642,288.004 L155.786,288.004 C158.166,288.004 159.356,289.012 159.356,291.042 C159.356,293.086 158.152,294.108 155.758,294.108 L153.168,294.108 L153.168,298 L151.642,298 L151.642,288.004 Z M153.168,289.306 L153.168,292.806 L155.66,292.806 C156.416,292.806 156.962,292.666 157.312,292.386 C157.648,292.106 157.83,291.658 157.83,291.042 C157.83,290.426 157.648,289.978 157.298,289.726 C156.948,289.446 156.402,289.306 155.66,289.306 L153.168,289.306 Z M172.152,292.414 L169.184,292.414 L169.184,293.268 L172.348,293.268 L172.348,294.36 L169.184,294.36 L169.184,295.228 L172.754,295.228 L172.754,296.334 L169.184,296.334 L169.184,297.468 L167.896,297.468 L167.896,296.334 L164.83,296.334 L164.83,295.228 L167.896,295.228 L167.896,294.36 L165.264,294.36 L165.264,293.268 L167.896,293.268 L167.896,292.414 L165.558,292.414 L165.558,291.308 L167.896,291.308 L167.896,290.44 L164.872,290.44 L164.872,289.362 L167.896,289.362 L167.896,288.522 L165.558,288.522 L165.558,287.43 L167.896,287.43 L167.896,286.492 L169.184,286.492 L169.184,287.43 L172.152,287.43 L172.152,289.362 L172.992,289.362 L172.992,290.44 L172.152,290.44 L172.152,292.414 Z M169.184,288.522 L169.184,289.362 L170.878,289.362 L170.878,288.522 L169.184,288.522 Z M169.184,290.44 L169.184,291.308 L170.878,291.308 L170.878,290.44 L169.184,290.44 Z M168.246,297.944 C169.828,297.944 171.466,297.902 173.146,297.846 L172.922,299.12 L168.82,299.12 C166.244,299.12 164.41,298.742 163.304,298.014 C163.164,297.916 163.052,297.818 162.968,297.734 C162.52,298.35 162.002,298.882 161.414,299.344 L160.546,298.21 C161.162,297.79 161.666,297.286 162.072,296.698 C161.554,295.914 161.134,294.948 160.798,293.8 L161.918,293.394 C162.156,294.234 162.422,294.948 162.73,295.522 C163.108,294.64 163.332,293.632 163.416,292.512 L160.896,292.512 L160.896,291.504 C161.652,290.524 162.338,289.488 162.982,288.396 L160.896,288.396 L160.896,287.136 L164.466,287.136 L164.466,288.228 C163.836,289.404 163.22,290.426 162.604,291.308 L164.634,291.308 L164.634,292.106 C164.578,293.898 164.228,295.438 163.584,296.726 C163.752,296.894 163.934,297.034 164.13,297.146 C165.04,297.65 166.412,297.916 168.246,297.944 Z M175.806,288.62 L178.634,288.62 C178.242,288.018 177.836,287.472 177.402,286.996 L178.508,286.464 C178.984,286.982 179.432,287.556 179.852,288.2 L179.012,288.62 L181.84,288.62 C182.288,287.92 182.666,287.178 182.988,286.394 L184.276,286.856 C183.968,287.5 183.618,288.088 183.226,288.62 L185.774,288.62 L185.774,294.626 L181.448,294.626 L181.448,295.732 L187.048,295.732 L187.048,296.992 L181.448,296.992 L181.448,299.498 L180.132,299.498 L180.132,296.992 L174.532,296.992 L174.532,295.732 L180.132,295.732 L180.132,294.626 L175.806,294.626 L175.806,288.62 Z M184.486,293.45 L184.486,292.162 L181.448,292.162 L181.448,293.45 L184.486,293.45 Z M180.132,293.45 L180.132,292.162 L177.094,292.162 L177.094,293.45 L180.132,293.45 Z M177.094,291.042 L180.132,291.042 L180.132,289.782 L177.094,289.782 L177.094,291.042 Z M181.448,289.782 L181.448,291.042 L184.486,291.042 L184.486,289.782 L181.448,289.782 Z" id="ERP建单" fill="#666666" fill-rule="nonzero"></path>
                <path d="M343.57,294.192 L343.57,295.494 L346.384,295.494 L346.384,294.192 L343.57,294.192 Z M346.384,296.712 L343.57,296.712 L343.57,297.468 L342.268,297.468 L342.268,290.482 L346.384,290.482 L346.384,289.264 L347.7,289.264 L347.7,290.482 L351.858,290.482 L351.858,297.426 L350.556,297.426 L350.556,296.712 L347.7,296.712 L347.7,299.484 L346.384,299.484 L346.384,296.712 Z M347.7,295.494 L350.556,295.494 L350.556,294.192 L347.7,294.192 L347.7,295.494 Z M350.556,293.03 L350.556,291.714 L347.7,291.714 L347.7,293.03 L350.556,293.03 Z M346.384,291.714 L343.57,291.714 L343.57,293.03 L346.384,293.03 L346.384,291.714 Z M352.936,287.472 L352.936,290.118 L351.648,290.118 L351.648,288.69 L342.296,288.69 L342.296,290.188 L341.008,290.188 L341.008,287.472 L346.244,287.472 C346.118,287.164 345.992,286.884 345.852,286.618 L347.266,286.394 C347.378,286.716 347.504,287.08 347.616,287.472 L352.936,287.472 Z M356.016,288.62 L358.844,288.62 C358.452,288.018 358.046,287.472 357.612,286.996 L358.718,286.464 C359.194,286.982 359.642,287.556 360.062,288.2 L359.222,288.62 L362.05,288.62 C362.498,287.92 362.876,287.178 363.198,286.394 L364.486,286.856 C364.178,287.5 363.828,288.088 363.436,288.62 L365.984,288.62 L365.984,294.626 L361.658,294.626 L361.658,295.732 L367.258,295.732 L367.258,296.992 L361.658,296.992 L361.658,299.498 L360.342,299.498 L360.342,296.992 L354.742,296.992 L354.742,295.732 L360.342,295.732 L360.342,294.626 L356.016,294.626 L356.016,288.62 Z M364.696,293.45 L364.696,292.162 L361.658,292.162 L361.658,293.45 L364.696,293.45 Z M360.342,293.45 L360.342,292.162 L357.304,292.162 L357.304,293.45 L360.342,293.45 Z M357.304,291.042 L360.342,291.042 L360.342,289.782 L357.304,289.782 L357.304,291.042 Z M361.658,289.782 L361.658,291.042 L364.696,291.042 L364.696,289.782 L361.658,289.782 Z" id="审单" fill="#666666" fill-rule="nonzero"></path>
                <path d="M520.23,289.866 C519.614,288.732 518.858,287.85 517.976,287.22 L519.082,286.52 C520.258,287.346 521.294,288.914 522.204,291.238 C523.534,294.514 525.256,296.824 527.384,298.196 L526.558,299.246 C524.36,297.93 522.526,295.41 521.042,291.672 C521,291.574 520.972,291.49 520.944,291.406 C519.992,294.794 518.102,297.412 515.274,299.26 L514.476,298.126 C517.388,296.208 519.306,293.45 520.23,289.866 Z M535.658,286.422 C535.882,286.786 536.092,287.206 536.302,287.668 L541.272,287.668 L541.272,288.97 L531.01,288.97 L531.01,291.98 C530.968,295.088 530.52,297.566 529.652,299.442 L528.546,298.448 C529.26,296.894 529.638,294.738 529.666,291.98 L529.666,287.668 L534.818,287.668 C534.622,287.304 534.398,286.982 534.174,286.674 L535.658,286.422 Z M534.412,289.166 L535.686,289.46 C535.574,289.782 535.476,290.09 535.378,290.384 L540.656,290.384 L540.656,291.546 L534.93,291.546 C534.594,292.33 534.23,293.044 533.838,293.674 L536.008,293.674 L536.008,292.134 L537.324,292.134 L537.324,293.674 L540.348,293.674 L540.348,294.864 L537.324,294.864 L537.324,296.124 L541.398,296.124 L541.398,297.328 L537.324,297.328 L537.324,299.456 L536.008,299.456 L536.008,297.328 L531.108,297.328 L531.108,296.124 L536.008,296.124 L536.008,294.864 L532.494,294.864 L532.214,293.702 C532.676,293.128 533.11,292.414 533.502,291.546 L531.626,291.546 L531.626,290.384 L533.992,290.384 C534.132,289.992 534.272,289.586 534.412,289.166 Z M543.89,286.66 C544.842,287.402 545.64,288.144 546.284,288.872 L545.346,289.796 C544.786,289.096 544.002,288.34 542.98,287.528 L543.89,286.66 Z M551.94,299.204 C551.17,299.204 550.33,299.19 549.434,299.176 C548.524,299.162 547.782,299.078 547.194,298.938 C546.634,298.77 546.144,298.434 545.724,297.958 C545.528,297.72 545.36,297.608 545.192,297.608 C544.898,297.608 544.394,298.238 543.68,299.498 L542.7,298.588 C543.4,297.454 544.03,296.74 544.59,296.46 L544.59,292.498 L542.714,292.498 L542.714,291.266 L545.836,291.266 L545.836,296.558 C545.906,296.614 545.976,296.684 546.046,296.768 C546.368,297.146 546.704,297.426 547.054,297.608 C547.474,297.804 548.09,297.93 548.916,297.958 C549.714,297.972 550.652,297.986 551.744,297.986 C552.43,297.986 553.13,297.972 553.83,297.958 C554.53,297.944 555.076,297.916 555.454,297.888 L555.132,299.204 L551.94,299.204 Z M549.518,288.046 L546.816,288.046 L546.816,286.94 L554.502,286.94 L554.502,287.878 C553.69,288.578 552.822,289.166 551.898,289.67 C551.926,289.698 551.954,289.712 551.982,289.74 L554.796,289.74 L554.796,295.956 C554.796,296.782 554.334,297.202 553.424,297.202 L552.346,297.202 L552.066,296.096 L553.06,296.152 C553.368,296.152 553.536,295.998 553.536,295.69 L553.536,294.976 L551.52,294.976 L551.52,297.272 L550.302,297.272 L550.302,294.976 L548.328,294.976 L548.328,297.3 L547.068,297.3 L547.068,289.74 L550.288,289.74 C549.826,289.432 549.308,289.11 548.734,288.802 L549.518,288.046 Z M551.086,289.04 C551.674,288.746 552.22,288.41 552.724,288.046 L549.588,288.046 C550.12,288.382 550.624,288.704 551.086,289.04 Z M548.328,292.918 L548.328,293.898 L550.302,293.898 L550.302,292.918 L548.328,292.918 Z M551.52,292.918 L551.52,293.898 L553.536,293.898 L553.536,292.918 L551.52,292.918 Z M553.536,291.826 L553.536,290.846 L551.52,290.846 L551.52,291.826 L553.536,291.826 Z M550.302,291.826 L550.302,290.846 L548.328,290.846 L548.328,291.826 L550.302,291.826 Z M568.922,287.892 L568.922,298.812 L567.634,298.812 L567.634,298.014 L565.184,298.014 L565.184,298.826 L563.896,298.826 L563.896,287.892 L568.922,287.892 Z M565.184,296.768 L567.634,296.768 L567.634,289.138 L565.184,289.138 L565.184,296.768 Z M558.87,289.558 C558.548,290.258 558.184,290.902 557.792,291.49 L556.63,290.748 C557.526,289.432 558.17,288.018 558.548,286.506 L559.864,286.786 C559.724,287.318 559.556,287.808 559.388,288.284 L563.21,288.284 L563.21,289.558 L561.306,289.558 C561.278,290.426 561.236,291.238 561.152,291.98 L563.336,291.98 L563.336,293.254 L560.97,293.254 C560.914,293.562 560.844,293.87 560.788,294.15 C561.642,295.018 562.51,295.984 563.406,297.048 L562.594,298.28 C561.726,297.048 560.998,296.082 560.41,295.382 C559.822,296.852 558.828,298.098 557.4,299.106 L556.532,298.042 C557.988,296.964 558.94,295.648 559.402,294.08 C559.458,293.814 559.528,293.534 559.584,293.254 L556.826,293.254 L556.826,291.98 L559.78,291.98 C559.864,291.238 559.906,290.426 559.934,289.558 L558.87,289.558 Z M572.016,288.62 L574.844,288.62 C574.452,288.018 574.046,287.472 573.612,286.996 L574.718,286.464 C575.194,286.982 575.642,287.556 576.062,288.2 L575.222,288.62 L578.05,288.62 C578.498,287.92 578.876,287.178 579.198,286.394 L580.486,286.856 C580.178,287.5 579.828,288.088 579.436,288.62 L581.984,288.62 L581.984,294.626 L577.658,294.626 L577.658,295.732 L583.258,295.732 L583.258,296.992 L577.658,296.992 L577.658,299.498 L576.342,299.498 L576.342,296.992 L570.742,296.992 L570.742,295.732 L576.342,295.732 L576.342,294.626 L572.016,294.626 L572.016,288.62 Z M580.696,293.45 L580.696,292.162 L577.658,292.162 L577.658,293.45 L580.696,293.45 Z M576.342,293.45 L576.342,292.162 L573.304,292.162 L573.304,293.45 L576.342,293.45 Z M573.304,291.042 L576.342,291.042 L576.342,289.782 L573.304,289.782 L573.304,291.042 Z M577.658,289.782 L577.658,291.042 L580.696,291.042 L580.696,289.782 L577.658,289.782 Z" id="入库通知单" fill="#666666" fill-rule="nonzero"></path>
                <path d="M741.658,437.204 L754.328,437.204 L754.328,438.52 L741.658,438.52 L741.658,437.204 Z M761.37,431.492 L762.714,431.492 L762.714,433.074 L766.872,433.074 L766.872,434.348 L762.714,434.348 L762.714,435.944 L768.258,435.944 L768.258,437.232 L762.812,437.232 L762.812,441.334 L761.482,441.334 L761.482,437.232 L755.742,437.232 L755.742,435.944 L757.73,435.944 L757.73,432.584 L759.074,432.584 L759.074,435.944 L761.37,435.944 L761.37,431.492 Z M766.004,438.058 L767.208,438.702 C765.444,442.566 762.042,444.512 757.002,444.526 L756.512,443.252 C761.356,443.252 764.52,441.516 766.004,438.058 Z M758.99,437.68 L759.928,438.506 C759.116,439.808 758.108,440.942 756.904,441.894 L756.064,440.816 C757.212,439.92 758.192,438.87 758.99,437.68 Z M774.656,431.52 L776.028,431.52 L776.028,435.734 L781.208,435.734 L781.208,437.022 L776.028,437.022 L776.028,442.65 L782.286,442.65 L782.286,443.938 L769.742,443.938 L769.742,442.65 L774.656,442.65 L774.656,431.52 Z M790.91,432.402 L795.656,432.402 L795.656,437.512 L790.91,437.512 L790.91,432.402 Z M794.396,436.308 L794.396,433.592 L792.17,433.592 L792.17,436.308 L794.396,436.308 Z M785.842,431.562 L787.144,431.562 L787.144,432.724 L789.944,432.724 C789.916,435.216 789.762,436.714 789.468,437.204 C789.16,437.694 788.642,437.946 787.886,437.946 C787.662,437.946 787.41,437.918 787.102,437.876 L786.766,436.672 C787.102,436.7 787.368,436.728 787.578,436.756 C788.04,436.742 788.334,436.588 788.446,436.28 C788.558,435.972 788.628,435.174 788.642,433.872 L787.06,433.872 C786.794,435.79 785.954,437.232 784.54,438.212 L783.546,437.344 C784.764,436.56 785.492,435.398 785.744,433.872 L783.938,433.872 L783.938,432.724 L785.842,432.724 L785.842,431.562 Z M783.854,439.01 L789.342,439.01 L789.342,437.974 L790.658,437.974 L790.658,439.01 L796.16,439.01 L796.16,440.256 L791.806,440.256 C792.772,441.264 794.284,442.16 796.356,442.958 L795.432,444.12 C793.192,442.958 791.61,441.67 790.658,440.256 L790.658,444.414 L789.342,444.414 L789.342,440.256 C788.306,441.824 786.668,443.112 784.428,444.134 L783.672,442.902 C785.674,442.202 787.186,441.32 788.194,440.256 L783.854,440.256 L783.854,439.01 Z" id="一步上架" fill="#666666" fill-rule="nonzero"></path>
                <path d="M725.19,296.754 L724.798,295.634 C725.022,295.55 725.148,295.41 725.148,295.228 L725.148,287.752 L726.45,287.752 L726.45,295.172 C727.038,294.99 727.612,294.794 728.186,294.57 L728.186,286.59 L729.488,286.59 L729.488,298.168 C730.874,297.496 731.994,296.614 732.834,295.55 C732.148,294.556 731.574,293.492 731.112,292.372 C730.874,292.736 730.622,293.058 730.37,293.366 L729.558,292.358 C730.664,290.902 731.42,288.942 731.812,286.478 L733.142,286.702 C733.03,287.346 732.89,287.962 732.75,288.536 L737.174,288.536 L737.174,289.838 L736.068,289.838 C735.956,292.022 735.41,293.912 734.458,295.508 C735.326,296.6 736.362,297.58 737.538,298.448 L736.628,299.526 C735.48,298.658 734.486,297.692 733.646,296.642 C732.736,297.734 731.588,298.658 730.188,299.414 L729.488,298.28 L729.488,299.344 L728.186,299.344 L728.186,295.844 C727.234,296.18 726.226,296.488 725.19,296.754 Z M732.344,289.838 C732.204,290.23 732.05,290.594 731.882,290.958 C732.33,292.19 732.918,293.324 733.618,294.36 C734.318,293.072 734.71,291.56 734.808,289.838 L732.344,289.838 Z M749.354,291.868 L746.274,291.868 C745.322,291.868 744.846,291.434 744.846,290.58 L744.846,290.286 C744.342,290.426 743.838,290.58 743.334,290.72 L742.62,289.67 C743.404,289.46 744.146,289.25 744.846,289.026 L744.846,286.59 L746.148,286.59 L746.148,288.578 C747.618,288.018 748.822,287.402 749.774,286.73 L750.628,287.612 C749.368,288.466 747.87,289.208 746.148,289.838 L746.148,290.314 C746.148,290.594 746.302,290.734 746.624,290.734 L749.102,290.734 C749.354,290.734 749.522,290.678 749.634,290.58 C749.774,290.454 749.872,290.104 749.914,289.516 L751.118,289.908 C751.02,290.86 750.824,291.42 750.544,291.602 C750.278,291.77 749.886,291.868 749.354,291.868 Z M749.704,292.456 L749.704,296.796 L748.36,296.796 L748.36,293.66 L741.934,293.66 L741.934,296.978 L740.604,296.978 L740.604,292.456 L749.704,292.456 Z M746.134,296.684 C747.926,297.16 749.55,297.748 751.02,298.448 L750.278,299.596 C748.71,298.784 747.114,298.154 745.462,297.692 L746.134,296.684 Z M744.51,294.122 L745.798,294.234 C745.602,296.11 745.168,297.342 744.524,297.944 C743.824,298.728 742.172,299.246 739.568,299.47 L739.036,298.266 C741.248,298.154 742.718,297.804 743.418,297.188 C744.034,296.586 744.398,295.564 744.51,294.122 Z M740.8,289.628 C740.268,289.978 739.708,290.314 739.12,290.622 L738.728,289.32 C740.394,288.508 741.626,287.556 742.41,286.478 L743.516,286.996 C743.138,287.57 742.662,288.116 742.088,288.634 L742.088,292.008 L740.8,292.008 L740.8,289.628 Z M757.306,286.52 L758.594,286.52 L753.708,299.4 L752.406,299.4 L757.306,286.52 Z M759.658,292.204 L772.328,292.204 L772.328,293.52 L759.658,293.52 L759.658,292.204 Z M774.358,291.77 L773.434,291.182 C774.05,289.726 774.498,288.144 774.764,286.464 L776.024,286.73 C775.94,287.164 775.842,287.584 775.758,287.99 L777.676,287.99 L777.676,289.264 L775.436,289.264 C775.268,289.824 775.086,290.342 774.89,290.846 L777.676,290.846 L777.676,292.022 L776.556,292.022 L776.556,293.464 L777.886,293.464 L777.886,293.94 L778.754,293.618 C778.894,294.29 779.09,294.892 779.37,295.452 C779.58,294.612 779.72,293.688 779.776,292.666 L778.152,292.666 L778.152,291.756 C778.67,290.86 779.146,289.908 779.58,288.872 L778.138,288.872 L778.138,287.752 L780.756,287.752 L780.756,288.83 C780.336,289.894 779.916,290.818 779.51,291.602 L780.84,291.602 L780.84,292.302 C780.812,294.01 780.588,295.48 780.196,296.684 C780.518,297.048 780.882,297.314 781.288,297.51 C781.904,297.79 782.87,297.972 784.172,298.028 C784.984,298.028 785.754,298 786.482,297.958 L786.244,299.218 L784.816,299.218 C782.688,299.19 781.232,298.938 780.462,298.462 C780.182,298.28 779.93,298.084 779.706,297.86 C779.398,298.434 779.062,298.938 778.67,299.372 L777.774,298.49 C778.222,298.028 778.586,297.468 778.894,296.824 C778.474,296.152 778.138,295.354 777.886,294.416 L777.886,294.668 L776.556,294.668 L776.556,297.496 C776.962,297.272 777.368,296.978 777.76,296.642 L777.97,297.762 C777.242,298.294 776.402,298.742 775.45,299.106 L774.918,298 C775.198,297.888 775.352,297.706 775.352,297.468 L775.352,294.668 L773.882,294.668 L773.882,293.464 L775.352,293.464 L775.352,292.022 L774.358,292.022 L774.358,291.77 Z M785.726,292.568 L783.78,292.568 L783.78,293.422 L785.824,293.422 L785.824,294.444 L783.78,294.444 L783.78,295.34 L786.174,295.34 L786.174,296.418 L783.78,296.418 L783.78,297.566 L782.59,297.566 L782.59,296.418 L780.868,296.418 L780.868,295.34 L782.59,295.34 L782.59,294.444 L781.218,294.444 L781.218,293.422 L782.59,293.422 L782.59,292.568 L781.344,292.568 L781.344,291.504 L782.59,291.504 L782.59,290.622 L780.854,290.622 L780.854,289.558 L782.59,289.558 L782.59,288.62 L781.316,288.62 L781.316,287.556 L782.59,287.556 L782.59,286.604 L783.78,286.604 L783.78,287.556 L785.726,287.556 L785.726,289.558 L786.3,289.558 L786.3,290.622 L785.726,290.622 L785.726,292.568 Z M783.78,288.62 L783.78,289.558 L784.62,289.558 L784.62,288.62 L783.78,288.62 Z M783.78,290.622 L783.78,291.504 L784.62,291.504 L784.62,290.622 L783.78,290.622 Z M788.19,296.754 L787.798,295.634 C788.022,295.55 788.148,295.41 788.148,295.228 L788.148,287.752 L789.45,287.752 L789.45,295.172 C790.038,294.99 790.612,294.794 791.186,294.57 L791.186,286.59 L792.488,286.59 L792.488,298.168 C793.874,297.496 794.994,296.614 795.834,295.55 C795.148,294.556 794.574,293.492 794.112,292.372 C793.874,292.736 793.622,293.058 793.37,293.366 L792.558,292.358 C793.664,290.902 794.42,288.942 794.812,286.478 L796.142,286.702 C796.03,287.346 795.89,287.962 795.75,288.536 L800.174,288.536 L800.174,289.838 L799.068,289.838 C798.956,292.022 798.41,293.912 797.458,295.508 C798.326,296.6 799.362,297.58 800.538,298.448 L799.628,299.526 C798.48,298.658 797.486,297.692 796.646,296.642 C795.736,297.734 794.588,298.658 793.188,299.414 L792.488,298.28 L792.488,299.344 L791.186,299.344 L791.186,295.844 C790.234,296.18 789.226,296.488 788.19,296.754 Z M795.344,289.838 C795.204,290.23 795.05,290.594 794.882,290.958 C795.33,292.19 795.918,293.324 796.618,294.36 C797.318,293.072 797.71,291.56 797.808,289.838 L795.344,289.838 Z M812.354,291.868 L809.274,291.868 C808.322,291.868 807.846,291.434 807.846,290.58 L807.846,290.286 C807.342,290.426 806.838,290.58 806.334,290.72 L805.62,289.67 C806.404,289.46 807.146,289.25 807.846,289.026 L807.846,286.59 L809.148,286.59 L809.148,288.578 C810.618,288.018 811.822,287.402 812.774,286.73 L813.628,287.612 C812.368,288.466 810.87,289.208 809.148,289.838 L809.148,290.314 C809.148,290.594 809.302,290.734 809.624,290.734 L812.102,290.734 C812.354,290.734 812.522,290.678 812.634,290.58 C812.774,290.454 812.872,290.104 812.914,289.516 L814.118,289.908 C814.02,290.86 813.824,291.42 813.544,291.602 C813.278,291.77 812.886,291.868 812.354,291.868 Z M812.704,292.456 L812.704,296.796 L811.36,296.796 L811.36,293.66 L804.934,293.66 L804.934,296.978 L803.604,296.978 L803.604,292.456 L812.704,292.456 Z M809.134,296.684 C810.926,297.16 812.55,297.748 814.02,298.448 L813.278,299.596 C811.71,298.784 810.114,298.154 808.462,297.692 L809.134,296.684 Z M807.51,294.122 L808.798,294.234 C808.602,296.11 808.168,297.342 807.524,297.944 C806.824,298.728 805.172,299.246 802.568,299.47 L802.036,298.266 C804.248,298.154 805.718,297.804 806.418,297.188 C807.034,296.586 807.398,295.564 807.51,294.122 Z M803.8,289.628 C803.268,289.978 802.708,290.314 802.12,290.622 L801.728,289.32 C803.394,288.508 804.626,287.556 805.41,286.478 L806.516,286.996 C806.138,287.57 805.662,288.116 805.088,288.634 L805.088,292.008 L803.8,292.008 L803.8,289.628 Z" id="收货/一键收货" fill="#666666" fill-rule="nonzero"></path>
                <path d="M750.714,127.382 L750.714,128.712 L749.538,128.992 L749.538,131.414 L748.25,131.414 L748.25,129.258 C746.85,129.538 745.408,129.79 743.91,130.014 L743.588,128.712 L744.764,128.572 L744.764,120.228 L743.756,120.228 L743.756,118.982 L750.504,118.982 L750.504,119.752 L755.992,119.752 L755.992,120.97 C755.684,123.476 755.082,125.618 754.172,127.41 C754.816,128.502 755.614,129.496 756.552,130.392 L755.656,131.414 C754.788,130.518 754.06,129.594 753.458,128.642 C752.73,129.72 751.89,130.644 750.91,131.414 L750,130.378 C751.092,129.524 751.988,128.502 752.702,127.326 C751.722,125.394 751.134,123.294 750.952,121.026 L750.392,121.026 L750.392,120.228 L749.538,120.228 L749.538,127.676 C749.944,127.578 750.336,127.48 750.714,127.382 Z M752.17,121.026 C752.338,122.832 752.744,124.484 753.416,125.982 C754.06,124.526 754.508,122.874 754.746,121.026 L752.17,121.026 Z M748.25,127.97 L748.25,126.318 L746.066,126.318 L746.066,128.376 C746.808,128.25 747.536,128.11 748.25,127.97 Z M746.066,125.128 L748.25,125.128 L748.25,123.28 L746.066,123.28 L746.066,125.128 Z M746.066,122.076 L748.25,122.076 L748.25,120.228 L746.066,120.228 L746.066,122.076 Z M765.19,118.562 L766.534,118.562 L766.534,122.3 L769.502,122.3 L769.502,129.748 C769.502,130.798 768.998,131.33 767.99,131.33 L766.436,131.33 L766.086,130.042 L767.556,130.084 C767.962,130.084 768.172,129.874 768.172,129.454 L768.172,128.418 L763.594,128.418 L763.594,131.358 L762.25,131.358 L762.25,122.3 L765.19,122.3 L765.19,118.562 Z M763.594,126.01 L763.594,127.284 L768.172,127.284 L768.172,126.01 L763.594,126.01 Z M768.172,124.876 L768.172,123.588 L763.594,123.588 L763.594,124.876 L768.172,124.876 Z M762.684,118.884 C763.188,119.598 763.678,120.382 764.154,121.236 L763.104,121.754 C762.628,120.886 762.124,120.116 761.578,119.416 L762.684,118.884 Z M768.984,118.87 L770.062,119.388 C769.67,120.256 769.138,121.096 768.494,121.908 L767.472,121.362 C768.116,120.522 768.62,119.696 768.984,118.87 Z M760.094,125.772 L761.27,126.22 C760.598,128.012 759.842,129.706 759.03,131.288 L757.798,130.742 C758.666,129.118 759.436,127.466 760.094,125.772 Z M759.002,118.66 C759.968,119.36 760.78,120.046 761.452,120.746 L760.5,121.698 C759.912,121.04 759.1,120.34 758.05,119.584 L759.002,118.66 Z M758.61,121.936 C759.52,122.636 760.29,123.336 760.906,124.036 L759.968,124.988 C759.408,124.344 758.638,123.63 757.658,122.86 L758.61,121.936 Z M772.19,128.754 L771.798,127.634 C772.022,127.55 772.148,127.41 772.148,127.228 L772.148,119.752 L773.45,119.752 L773.45,127.172 C774.038,126.99 774.612,126.794 775.186,126.57 L775.186,118.59 L776.488,118.59 L776.488,130.168 C777.874,129.496 778.994,128.614 779.834,127.55 C779.148,126.556 778.574,125.492 778.112,124.372 C777.874,124.736 777.622,125.058 777.37,125.366 L776.558,124.358 C777.664,122.902 778.42,120.942 778.812,118.478 L780.142,118.702 C780.03,119.346 779.89,119.962 779.75,120.536 L784.174,120.536 L784.174,121.838 L783.068,121.838 C782.956,124.022 782.41,125.912 781.458,127.508 C782.326,128.6 783.362,129.58 784.538,130.448 L783.628,131.526 C782.48,130.658 781.486,129.692 780.646,128.642 C779.736,129.734 778.588,130.658 777.188,131.414 L776.488,130.28 L776.488,131.344 L775.186,131.344 L775.186,127.844 C774.234,128.18 773.226,128.488 772.19,128.754 Z M779.344,121.838 C779.204,122.23 779.05,122.594 778.882,122.958 C779.33,124.19 779.918,125.324 780.618,126.36 C781.318,125.072 781.71,123.56 781.808,121.838 L779.344,121.838 Z M796.354,123.868 L793.274,123.868 C792.322,123.868 791.846,123.434 791.846,122.58 L791.846,122.286 C791.342,122.426 790.838,122.58 790.334,122.72 L789.62,121.67 C790.404,121.46 791.146,121.25 791.846,121.026 L791.846,118.59 L793.148,118.59 L793.148,120.578 C794.618,120.018 795.822,119.402 796.774,118.73 L797.628,119.612 C796.368,120.466 794.87,121.208 793.148,121.838 L793.148,122.314 C793.148,122.594 793.302,122.734 793.624,122.734 L796.102,122.734 C796.354,122.734 796.522,122.678 796.634,122.58 C796.774,122.454 796.872,122.104 796.914,121.516 L798.118,121.908 C798.02,122.86 797.824,123.42 797.544,123.602 C797.278,123.77 796.886,123.868 796.354,123.868 Z M796.704,124.456 L796.704,128.796 L795.36,128.796 L795.36,125.66 L788.934,125.66 L788.934,128.978 L787.604,128.978 L787.604,124.456 L796.704,124.456 Z M793.134,128.684 C794.926,129.16 796.55,129.748 798.02,130.448 L797.278,131.596 C795.71,130.784 794.114,130.154 792.462,129.692 L793.134,128.684 Z M791.51,126.122 L792.798,126.234 C792.602,128.11 792.168,129.342 791.524,129.944 C790.824,130.728 789.172,131.246 786.568,131.47 L786.036,130.266 C788.248,130.154 789.718,129.804 790.418,129.188 C791.034,128.586 791.398,127.564 791.51,126.122 Z M787.8,121.628 C787.268,121.978 786.708,122.314 786.12,122.622 L785.728,121.32 C787.394,120.508 788.626,119.556 789.41,118.478 L790.516,118.996 C790.138,119.57 789.662,120.116 789.088,120.634 L789.088,124.008 L787.8,124.008 L787.8,121.628 Z" id="取消收货" fill="#666666" fill-rule="nonzero"></path>
                <path d="M525.016,120.62 L527.844,120.62 C527.452,120.018 527.046,119.472 526.612,118.996 L527.718,118.464 C528.194,118.982 528.642,119.556 529.062,120.2 L528.222,120.62 L531.05,120.62 C531.498,119.92 531.876,119.178 532.198,118.394 L533.486,118.856 C533.178,119.5 532.828,120.088 532.436,120.62 L534.984,120.62 L534.984,126.626 L530.658,126.626 L530.658,127.732 L536.258,127.732 L536.258,128.992 L530.658,128.992 L530.658,131.498 L529.342,131.498 L529.342,128.992 L523.742,128.992 L523.742,127.732 L529.342,127.732 L529.342,126.626 L525.016,126.626 L525.016,120.62 Z M533.696,125.45 L533.696,124.162 L530.658,124.162 L530.658,125.45 L533.696,125.45 Z M529.342,125.45 L529.342,124.162 L526.304,124.162 L526.304,125.45 L529.342,125.45 Z M526.304,123.042 L529.342,123.042 L529.342,121.782 L526.304,121.782 L526.304,123.042 Z M530.658,121.782 L530.658,123.042 L533.696,123.042 L533.696,121.782 L530.658,121.782 Z M539.31,131.316 L538.12,131.316 L537.84,130.056 C538.19,130.112 538.526,130.154 538.862,130.154 C539.17,130.154 539.338,129.972 539.338,129.608 L539.338,126.598 C538.834,126.78 538.344,126.948 537.854,127.116 L537.518,125.8 C538.134,125.66 538.736,125.478 539.338,125.268 L539.338,122.37 L537.77,122.37 L537.77,121.096 L539.338,121.096 L539.338,118.562 L540.626,118.562 L540.626,121.096 L541.858,121.096 L541.858,122.37 L540.626,122.37 L540.626,124.764 C541.018,124.582 541.424,124.386 541.816,124.176 L541.816,125.478 C541.41,125.674 541.018,125.87 540.626,126.052 L540.626,129.93 C540.626,130.854 540.178,131.316 539.31,131.316 Z M543.664,125.24 C543.482,127.592 542.95,129.664 542.054,131.456 L541.018,130.532 C541.956,128.726 542.432,126.402 542.446,123.56 L542.446,118.996 L550.02,118.996 L550.02,122.622 L547.472,122.622 L547.472,124.022 L550.356,124.022 L550.356,125.24 L547.472,125.24 L547.472,126.682 L549.726,126.682 L549.726,131.442 L548.494,131.442 L548.494,130.84 L545.176,130.84 L545.176,131.442 L543.944,131.442 L543.944,126.682 L546.184,126.682 L546.184,125.24 L543.664,125.24 Z M546.184,122.622 L543.734,122.622 L543.734,123.56 C543.734,123.714 543.72,123.868 543.72,124.022 L546.184,124.022 L546.184,122.622 Z M545.176,129.664 L548.494,129.664 L548.494,127.858 L545.176,127.858 L545.176,129.664 Z M548.732,120.214 L543.734,120.214 L543.734,121.432 L548.732,121.432 L548.732,120.214 Z M558.714,127.382 L558.714,128.712 L557.538,128.992 L557.538,131.414 L556.25,131.414 L556.25,129.258 C554.85,129.538 553.408,129.79 551.91,130.014 L551.588,128.712 L552.764,128.572 L552.764,120.228 L551.756,120.228 L551.756,118.982 L558.504,118.982 L558.504,119.752 L563.992,119.752 L563.992,120.97 C563.684,123.476 563.082,125.618 562.172,127.41 C562.816,128.502 563.614,129.496 564.552,130.392 L563.656,131.414 C562.788,130.518 562.06,129.594 561.458,128.642 C560.73,129.72 559.89,130.644 558.91,131.414 L558,130.378 C559.092,129.524 559.988,128.502 560.702,127.326 C559.722,125.394 559.134,123.294 558.952,121.026 L558.392,121.026 L558.392,120.228 L557.538,120.228 L557.538,127.676 C557.944,127.578 558.336,127.48 558.714,127.382 Z M560.17,121.026 C560.338,122.832 560.744,124.484 561.416,125.982 C562.06,124.526 562.508,122.874 562.746,121.026 L560.17,121.026 Z M556.25,127.97 L556.25,126.318 L554.066,126.318 L554.066,128.376 C554.808,128.25 555.536,128.11 556.25,127.97 Z M554.066,125.128 L556.25,125.128 L556.25,123.28 L554.066,123.28 L554.066,125.128 Z M554.066,122.076 L556.25,122.076 L556.25,120.228 L554.066,120.228 L554.066,122.076 Z M573.19,118.562 L574.534,118.562 L574.534,122.3 L577.502,122.3 L577.502,129.748 C577.502,130.798 576.998,131.33 575.99,131.33 L574.436,131.33 L574.086,130.042 L575.556,130.084 C575.962,130.084 576.172,129.874 576.172,129.454 L576.172,128.418 L571.594,128.418 L571.594,131.358 L570.25,131.358 L570.25,122.3 L573.19,122.3 L573.19,118.562 Z M571.594,126.01 L571.594,127.284 L576.172,127.284 L576.172,126.01 L571.594,126.01 Z M576.172,124.876 L576.172,123.588 L571.594,123.588 L571.594,124.876 L576.172,124.876 Z M570.684,118.884 C571.188,119.598 571.678,120.382 572.154,121.236 L571.104,121.754 C570.628,120.886 570.124,120.116 569.578,119.416 L570.684,118.884 Z M576.984,118.87 L578.062,119.388 C577.67,120.256 577.138,121.096 576.494,121.908 L575.472,121.362 C576.116,120.522 576.62,119.696 576.984,118.87 Z M568.094,125.772 L569.27,126.22 C568.598,128.012 567.842,129.706 567.03,131.288 L565.798,130.742 C566.666,129.118 567.436,127.466 568.094,125.772 Z M567.002,118.66 C567.968,119.36 568.78,120.046 569.452,120.746 L568.5,121.698 C567.912,121.04 567.1,120.34 566.05,119.584 L567.002,118.66 Z M566.61,121.936 C567.52,122.636 568.29,123.336 568.906,124.036 L567.968,124.988 C567.408,124.344 566.638,123.63 565.658,122.86 L566.61,121.936 Z" id="单据取消" fill="#666666" fill-rule="nonzero"></path>
                <path d="M958.656,286.52 L960.028,286.52 L960.028,290.734 L965.208,290.734 L965.208,292.022 L960.028,292.022 L960.028,297.65 L966.286,297.65 L966.286,298.938 L953.742,298.938 L953.742,297.65 L958.656,297.65 L958.656,286.52 Z M974.91,287.402 L979.656,287.402 L979.656,292.512 L974.91,292.512 L974.91,287.402 Z M978.396,291.308 L978.396,288.592 L976.17,288.592 L976.17,291.308 L978.396,291.308 Z M969.842,286.562 L971.144,286.562 L971.144,287.724 L973.944,287.724 C973.916,290.216 973.762,291.714 973.468,292.204 C973.16,292.694 972.642,292.946 971.886,292.946 C971.662,292.946 971.41,292.918 971.102,292.876 L970.766,291.672 C971.102,291.7 971.368,291.728 971.578,291.756 C972.04,291.742 972.334,291.588 972.446,291.28 C972.558,290.972 972.628,290.174 972.642,288.872 L971.06,288.872 C970.794,290.79 969.954,292.232 968.54,293.212 L967.546,292.344 C968.764,291.56 969.492,290.398 969.744,288.872 L967.938,288.872 L967.938,287.724 L969.842,287.724 L969.842,286.562 Z M967.854,294.01 L973.342,294.01 L973.342,292.974 L974.658,292.974 L974.658,294.01 L980.16,294.01 L980.16,295.256 L975.806,295.256 C976.772,296.264 978.284,297.16 980.356,297.958 L979.432,299.12 C977.192,297.958 975.61,296.67 974.658,295.256 L974.658,299.414 L973.342,299.414 L973.342,295.256 C972.306,296.824 970.668,298.112 968.428,299.134 L967.672,297.902 C969.674,297.202 971.186,296.32 972.194,295.256 L967.854,295.256 L967.854,294.01 Z M986.306,286.52 L987.594,286.52 L982.708,299.4 L981.406,299.4 L986.306,286.52 Z M988.658,292.204 L1001.328,292.204 L1001.328,293.52 L988.658,293.52 L988.658,292.204 Z M1003.358,291.77 L1002.434,291.182 C1003.05,289.726 1003.498,288.144 1003.764,286.464 L1005.024,286.73 C1004.94,287.164 1004.842,287.584 1004.758,287.99 L1006.676,287.99 L1006.676,289.264 L1004.436,289.264 C1004.268,289.824 1004.086,290.342 1003.89,290.846 L1006.676,290.846 L1006.676,292.022 L1005.556,292.022 L1005.556,293.464 L1006.886,293.464 L1006.886,293.94 L1007.754,293.618 C1007.894,294.29 1008.09,294.892 1008.37,295.452 C1008.58,294.612 1008.72,293.688 1008.776,292.666 L1007.152,292.666 L1007.152,291.756 C1007.67,290.86 1008.146,289.908 1008.58,288.872 L1007.138,288.872 L1007.138,287.752 L1009.756,287.752 L1009.756,288.83 C1009.336,289.894 1008.916,290.818 1008.51,291.602 L1009.84,291.602 L1009.84,292.302 C1009.812,294.01 1009.588,295.48 1009.196,296.684 C1009.518,297.048 1009.882,297.314 1010.288,297.51 C1010.904,297.79 1011.87,297.972 1013.172,298.028 C1013.984,298.028 1014.754,298 1015.482,297.958 L1015.244,299.218 L1013.816,299.218 C1011.688,299.19 1010.232,298.938 1009.462,298.462 C1009.182,298.28 1008.93,298.084 1008.706,297.86 C1008.398,298.434 1008.062,298.938 1007.67,299.372 L1006.774,298.49 C1007.222,298.028 1007.586,297.468 1007.894,296.824 C1007.474,296.152 1007.138,295.354 1006.886,294.416 L1006.886,294.668 L1005.556,294.668 L1005.556,297.496 C1005.962,297.272 1006.368,296.978 1006.76,296.642 L1006.97,297.762 C1006.242,298.294 1005.402,298.742 1004.45,299.106 L1003.918,298 C1004.198,297.888 1004.352,297.706 1004.352,297.468 L1004.352,294.668 L1002.882,294.668 L1002.882,293.464 L1004.352,293.464 L1004.352,292.022 L1003.358,292.022 L1003.358,291.77 Z M1014.726,292.568 L1012.78,292.568 L1012.78,293.422 L1014.824,293.422 L1014.824,294.444 L1012.78,294.444 L1012.78,295.34 L1015.174,295.34 L1015.174,296.418 L1012.78,296.418 L1012.78,297.566 L1011.59,297.566 L1011.59,296.418 L1009.868,296.418 L1009.868,295.34 L1011.59,295.34 L1011.59,294.444 L1010.218,294.444 L1010.218,293.422 L1011.59,293.422 L1011.59,292.568 L1010.344,292.568 L1010.344,291.504 L1011.59,291.504 L1011.59,290.622 L1009.854,290.622 L1009.854,289.558 L1011.59,289.558 L1011.59,288.62 L1010.316,288.62 L1010.316,287.556 L1011.59,287.556 L1011.59,286.604 L1012.78,286.604 L1012.78,287.556 L1014.726,287.556 L1014.726,289.558 L1015.3,289.558 L1015.3,290.622 L1014.726,290.622 L1014.726,292.568 Z M1012.78,288.62 L1012.78,289.558 L1013.62,289.558 L1013.62,288.62 L1012.78,288.62 Z M1012.78,290.622 L1012.78,291.504 L1013.62,291.504 L1013.62,290.622 L1012.78,290.622 Z M1021.656,286.52 L1023.028,286.52 L1023.028,290.734 L1028.208,290.734 L1028.208,292.022 L1023.028,292.022 L1023.028,297.65 L1029.286,297.65 L1029.286,298.938 L1016.742,298.938 L1016.742,297.65 L1021.656,297.65 L1021.656,286.52 Z M1037.91,287.402 L1042.656,287.402 L1042.656,292.512 L1037.91,292.512 L1037.91,287.402 Z M1041.396,291.308 L1041.396,288.592 L1039.17,288.592 L1039.17,291.308 L1041.396,291.308 Z M1032.842,286.562 L1034.144,286.562 L1034.144,287.724 L1036.944,287.724 C1036.916,290.216 1036.762,291.714 1036.468,292.204 C1036.16,292.694 1035.642,292.946 1034.886,292.946 C1034.662,292.946 1034.41,292.918 1034.102,292.876 L1033.766,291.672 C1034.102,291.7 1034.368,291.728 1034.578,291.756 C1035.04,291.742 1035.334,291.588 1035.446,291.28 C1035.558,290.972 1035.628,290.174 1035.642,288.872 L1034.06,288.872 C1033.794,290.79 1032.954,292.232 1031.54,293.212 L1030.546,292.344 C1031.764,291.56 1032.492,290.398 1032.744,288.872 L1030.938,288.872 L1030.938,287.724 L1032.842,287.724 L1032.842,286.562 Z M1030.854,294.01 L1036.342,294.01 L1036.342,292.974 L1037.658,292.974 L1037.658,294.01 L1043.16,294.01 L1043.16,295.256 L1038.806,295.256 C1039.772,296.264 1041.284,297.16 1043.356,297.958 L1042.432,299.12 C1040.192,297.958 1038.61,296.67 1037.658,295.256 L1037.658,299.414 L1036.342,299.414 L1036.342,295.256 C1035.306,296.824 1033.668,298.112 1031.428,299.134 L1030.672,297.902 C1032.674,297.202 1034.186,296.32 1035.194,295.256 L1030.854,295.256 L1030.854,294.01 Z" id="上架/一键上架" fill="#666666" fill-rule="nonzero"></path>
            </g>
        </g>
    </g>
</svg>