<?xml version="1.0" encoding="UTF-8"?>
<svg width="147px" height="27px" viewBox="0 0 147 27" version="1.1" xmlns="http://www.w3.org/2000/svg" xmlns:xlink="http://www.w3.org/1999/xlink">
    <!-- Generator: Sketch 53.1 (72631) - https://sketchapp.com -->
    <title>分组 2</title>
    <desc>Created with Sketch.</desc>
    <g id="页面-5" stroke="none" stroke-width="1" fill="none" fill-rule="evenodd">
        <g id="1920*1080-基础数据-02登录页优化" transform="translate(-1257.000000, -378.000000)" fill="#3998FC" fill-rule="nonzero">
            <g id="分组-2" transform="translate(1256.000000, 376.000000)">
                <path d="M2.07,28.46 L2.07,26.69 L5.37,26.69 L5.37,14.33 L7.71,14.33 L7.71,26.69 L14.19,26.69 L14.19,9.44 L16.68,9.44 L16.68,15.68 L26.1,15.68 L26.1,17.42 L16.68,17.42 L16.68,26.69 L27.81,26.69 L27.81,28.46 L2.07,28.46 Z M3.27,13.52 L1.74,12.11 C4.8,9.77 6.87,7.46 8.46,4.73 C8.7,4.28 9.3,3.53 9.87,3.14 C10.35,2.84 10.98,2.69 11.67,2.69 L18.42,2.69 C18.93,2.69 19.53,2.87 20.04,3.23 C20.43,3.53 20.91,4.1 21.3,4.73 C22.95,7.34 25.17,9.62 28.29,12.02 L26.73,13.58 C23.76,11.36 21.21,8.54 19.2,5.39 C18.78,4.73 18.18,4.43 17.58,4.43 L12.27,4.43 C11.64,4.43 11.1,4.91 10.74,5.39 C8.52,8.81 6.3,11.27 3.27,13.52 Z M31.8630031,28.43 L31.8630031,26.66 L40.0230031,26.66 L40.0230031,2.27 L42.4530031,2.27 L42.4530031,26.66 L47.5530031,26.66 L47.5530031,2.27 L49.9830031,2.27 L49.9830031,26.66 L58.1130031,26.66 L58.1130031,28.43 L31.8630031,28.43 Z M35.2830031,21.62 C34.4130031,17.27 33.4530031,11.45 32.7930031,6.53 L35.0130031,6.53 C35.6430031,11.36 36.4830031,16.04 37.5930031,21.62 L35.2830031,21.62 Z M52.4130031,21.62 C53.5230031,16.01 54.3330031,11.36 54.9630031,6.53 L57.1830031,6.53 C56.5230031,11.45 55.5630031,17.27 54.6930031,21.62 L52.4130031,21.62 Z M61.8660061,5.27 L61.8660061,3.56 L71.9760061,3.56 L71.9760061,5.27 L67.8060061,5.27 C67.4460061,7.22 66.9360061,9.14 66.2760061,11 L69.2460061,11 C70.5060061,11 71.7360061,12.05 71.7360061,13.64 L71.7360061,24.95 C71.7360061,26.63 70.7760061,27.77 69.1560061,27.77 L66.3360061,27.77 C64.5960061,27.77 63.7260061,26.63 63.7260061,25.07 L63.7260061,16.97 C63.4260061,17.51 63.1560061,18.02 62.8560061,18.5 L61.1460061,17.66 C63.4560061,13.22 64.9560061,9.2 65.5860061,5.27 L61.8660061,5.27 Z M79.2660061,28.4 L78.7560061,26.63 L83.1960061,26.63 C84.3660061,26.63 84.9360061,25.88 84.9360061,24.65 L84.9360061,17.57 C84.9360061,16.97 84.5760061,16.61 84.0360061,16.61 L76.1160061,16.61 C74.5260061,16.61 73.6560061,15.98 73.7760061,13.55 L74.1360061,7.22 L76.4160061,7.22 L76.0860061,13.64 C76.0260061,14.72 76.2660061,14.93 77.1360061,14.93 L82.7760061,14.93 L83.1960061,5.66 C83.2260061,4.91 82.8960061,4.52 82.3260061,4.52 L72.8160061,4.52 L72.8160061,2.78 L82.8360061,2.78 C84.3060061,2.78 85.6260061,3.74 85.5360061,5.69 L85.1160061,15.02 C86.6460061,15.26 87.3060061,16.16 87.3060061,18.23 L87.3060061,24.68 C87.3060061,27.26 86.0760061,28.4 83.7060061,28.4 L79.2660061,28.4 Z M67.9860061,26.09 C69.0660061,26.09 69.6360061,25.46 69.6360061,24.41 L69.6360061,14.3 C69.6360061,13.22 69.0960061,12.65 68.1960061,12.65 L67.0260061,12.65 C66.1860061,12.65 65.8260061,13.43 65.8260061,14.27 L65.8260061,24.41 C65.8260061,25.58 66.2460061,26.09 67.4160061,26.09 L67.9860061,26.09 Z M72.6960061,22.43 L72.6960061,20.63 L83.0460061,20.63 L83.0460061,22.43 L72.6960061,22.43 Z M103.779009,12.02 L103.779009,6.47 L92.4390092,6.47 L92.4390092,4.82 L103.779009,4.82 L103.779009,2.33 L106.149009,2.33 L106.149009,4.82 L117.609009,4.82 L117.609009,6.47 L106.149009,6.47 L106.149009,12.02 L103.779009,12.02 Z M98.2590092,23.84 C96.3990092,23.84 95.4090092,22.94 95.4090092,21.26 L95.4090092,15.62 C95.4090092,14.09 96.4590092,13.25 98.0490092,13.25 L111.669009,13.25 C113.319009,13.25 114.519009,14.24 114.519009,15.71 L114.519009,21.26 C114.519009,22.97 113.799009,23.84 111.819009,23.84 L98.2590092,23.84 Z M97.7490092,17.81 L112.179009,17.81 L112.179009,16.01 C112.179009,15.41 111.759009,14.75 110.769009,14.75 L99.1590092,14.75 C98.3190092,14.75 97.7490092,15.23 97.7490092,15.98 L97.7490092,17.81 Z M110.769009,22.31 C111.639009,22.31 112.179009,21.77 112.179009,21.05 L112.179009,19.25 L97.7490092,19.25 L97.7490092,21.08 C97.7490092,21.8 98.4390092,22.31 99.2790092,22.31 L110.769009,22.31 Z M116.799009,14.06 C113.109009,12.23 110.619009,10.31 108.429009,7.73 L110.949009,7.73 C112.569009,9.41 115.119009,11.24 118.239009,12.56 L116.799009,14.06 Z M91.8390092,28.01 L91.8390092,26.36 L118.179009,26.36 L118.179009,28.01 L91.8390092,28.01 Z M93.1890092,14.06 L91.7490092,12.56 C94.8690092,11.24 97.4190092,9.44 99.0390092,7.73 L101.559009,7.73 C99.3990092,10.31 96.8790092,12.23 93.1890092,14.06 Z M133.932012,23.75 C132.312012,23.75 131.382012,22.76 131.382012,21.26 L131.382012,12.86 C131.382012,11.3 132.282012,10.43 133.872012,10.43 L139.662012,10.43 C141.102012,10.43 142.152012,11.36 142.152012,12.92 L142.152012,21.38 C142.152012,22.82 141.222012,23.75 140.022012,23.75 L133.932012,23.75 Z M139.692012,28.7 L139.182012,26.96 L143.022012,26.96 C144.192012,26.96 145.032012,26.12 145.032012,24.8 L145.032012,8.48 C145.032012,7.46 144.372012,6.95 143.292012,6.95 L133.332012,6.95 C132.552012,8.87 131.682012,10.73 130.572012,12.74 L128.472012,12.2 C130.422012,8.6 131.742012,5.27 132.582012,2.3 L134.922012,2.3 C134.592012,3.35 134.292012,4.34 133.932012,5.3 L144.342012,5.3 C146.082012,5.3 147.312012,6.44 147.312012,7.97 L147.312012,25.19 C147.312012,27.5 146.112012,28.7 143.772012,28.7 L139.692012,28.7 Z M125.832012,26.21 L125.832012,13.91 C125.832012,12.92 125.382012,12.53 124.452012,12.53 L121.602012,12.53 L121.602012,10.73 L125.592012,10.73 C127.062012,10.73 128.172012,11.75 128.172012,13.43 L128.172012,25.34 C128.172012,25.88 128.262012,26.15 129.132012,26.15 L132.102012,26.15 L131.442012,27.95 L127.572012,27.95 C126.222012,27.95 125.832012,27.38 125.832012,26.21 Z M134.832012,22.19 L138.732012,22.19 C139.422012,22.19 139.992012,21.68 139.992012,20.93 L139.992012,17.84 L133.542012,17.84 L133.542012,20.93 C133.542012,21.68 134.022012,22.19 134.832012,22.19 Z M133.542012,13.31 L133.542012,16.31 L139.992012,16.31 L139.992012,13.31 C139.992012,12.5 139.362012,11.96 138.672012,11.96 L134.892012,11.96 C134.082012,11.96 133.542012,12.44 133.542012,13.31 Z M124.932012,8.48 C124.392012,6.41 123.732012,4.19 123.102012,2.33 L125.352012,2.33 C126.072012,4.07 126.942012,6.62 127.452012,8.48 L124.932012,8.48 Z" id="企业码查询"></path>
            </g>
        </g>
    </g>
</svg>