<?xml version="1.0" encoding="UTF-8"?>
<svg width="130px" height="33px" viewBox="0 0 130 33" version="1.1" xmlns="http://www.w3.org/2000/svg" xmlns:xlink="http://www.w3.org/1999/xlink">
    <!-- Generator: Sketch 53.1 (72631) - https://sketchapp.com -->
    <title>down-all</title>
    <desc>Created with Sketch.</desc>
    <g id="页面-5" stroke="none" stroke-width="1" fill="none" fill-rule="evenodd">
        <g id="1920*1080-基础数据-01登录页优化" transform="translate(-1253.000000, -353.000000)" fill="#3998FC" fill-rule="nonzero">
            <g id="分组-2" transform="translate(1190.000000, 298.000000)">
                <g id="分组-3" transform="translate(63.000000, 55.000000)">
                    <path d="M6.9,30.55 L5.22,29.62 C6.75,27.16 8.16,24.55 9.33,21.82 C7.68,18.16 6.66,14.38 6.09,9.79 L7.95,9.79 C8.49,13.39 9.18,16.27 10.38,19.21 C11.58,15.97 12.42,12.58 12.78,9.01 C12.87,8.17 12.54,7.78 11.82,7.78 L5.64,7.78 L5.64,6.07 L12.57,6.07 C13.47,6.07 14.16,6.34 14.52,6.88 C14.85,7.3 15,8.05 14.88,9.01 C14.43,13.24 13.35,17.59 11.58,21.82 C12.45,23.53 13.5,25.3 14.85,27.28 L13.08,28.48 C12.12,27.04 11.28,25.6 10.53,24.22 C9.48,26.38 8.28,28.48 6.9,30.55 Z M15.57,30.58 L13.86,29.44 C19.71,24.01 21.54,19.45 21.66,11.41 L23.79,11.41 C23.73,13.45 23.58,15.25 23.34,16.87 L24.06,16.87 C24.93,21.73 26.79,25.36 30.93,29.47 L29.04,30.64 C25.8,27.34 23.85,23.95 22.77,19.69 C21.69,23.86 19.56,26.98 15.57,30.58 Z M16.83,16.51 L15,15.7 C16.53,11.92 17.58,8.14 18.27,4.06 L20.37,4.06 C20.19,5.17 19.98,6.31 19.74,7.42 L27.66,7.42 C28.83,7.42 29.97,8.32 29.97,9.82 L29.97,14.98 L27.66,14.98 L27.66,10.33 C27.66,9.46 27.24,9.16 26.55,9.16 L19.32,9.16 C18.66,11.71 17.82,14.23 16.83,16.51 Z M50.9130031,27.79 L50.9130031,8.2 C50.9130031,6.61 51.8130031,5.62 53.1630031,5.62 L57.4230031,5.62 C58.8330031,5.62 59.9130031,6.61 59.9130031,8.2 L59.9130031,21.85 C59.9130031,23.56 58.9830031,24.37 57.4530031,24.37 L55.2930031,24.37 L54.8130031,22.63 L56.6130031,22.63 C57.2730031,22.63 57.7530031,22.24 57.7530031,21.37 L57.7530031,8.68 C57.7530031,7.87 57.2430031,7.39 56.5530031,7.39 L54.3330031,7.39 C53.6730031,7.39 53.1330031,7.9 53.1330031,8.8 L53.1330031,27.79 L50.9130031,27.79 Z M36.0330031,31.54 L34.3230031,30.4 C37.2030031,27.46 38.2230031,24.91 38.2230031,21.94 L38.2230031,15.52 C38.2230031,14.86 37.7430031,14.32 37.1430031,14.32 L34.3230031,14.32 L34.3230031,12.55 L37.7730031,12.55 C39.3630031,12.55 40.4430031,13.51 40.4430031,15.07 L40.4430031,21.94 C40.4430031,22.96 40.2930031,23.95 40.0530031,24.91 C41.1030031,26.26 42.5730031,27.46 43.7130031,27.94 C45.2430031,28.57 46.9830031,28.75 48.5730031,28.75 L61.6230031,28.75 L61.0230031,30.58 L48.9930031,30.58 C46.7130031,30.58 44.8530031,30.34 43.3830031,29.8 C42.0330031,29.29 40.5630031,28.12 39.4230031,26.77 C38.7030031,28.42 37.5630031,30.04 36.0330031,31.54 Z M45.5730031,24.22 C44.0730031,24.22 43.1430031,23.38 43.1430031,21.52 L43.1430031,8.44 C43.1430031,7.18 43.7730031,6.34 44.9130031,5.95 C46.3530031,5.5 47.9730031,4.9 49.3230031,4.33 L50.0130031,6.34 C48.9030031,6.76 47.5530031,7.24 46.4730031,7.6 C45.7230031,7.84 45.3630031,8.32 45.3630031,9.04 L45.3630031,21.16 C45.3630031,22.03 45.8730031,22.48 46.6530031,22.48 L49.1730031,22.48 L48.6630031,24.22 L45.5730031,24.22 Z M37.4430031,10.06 C36.9030031,8.11 36.1530031,5.83 35.5830031,4.3 L37.8030031,4.3 C38.4030031,5.65 39.3030031,8.17 39.8730031,10.06 L37.4430031,10.06 Z M70.3260061,24.49 C69.0360061,24.49 68.1360061,23.62 68.1360061,22.3 L68.1360061,18.46 C68.1360061,17.35 69.0660061,16.42 70.2660061,16.42 L85.7460061,16.42 C87.0960061,16.42 88.1160061,17.35 88.1160061,18.7 L88.1160061,22.09 C88.1160061,23.62 87.0060061,24.49 85.7460061,24.49 L84.9960061,24.49 C84.4860061,25.84 83.7660061,27.49 83.1960061,28.63 L90.9660061,28.63 L90.9660061,30.31 L65.0160061,30.31 L65.0160061,28.63 L72.7260061,28.63 C72.0960061,27.4 71.3160061,25.72 70.8660061,24.49 L70.3260061,24.49 Z M90.4560061,17.95 C88.2660061,16.54 86.4960061,15.16 84.9360061,13.75 L71.8560061,13.75 C69.9360061,15.31 67.7760061,16.69 65.2860061,18.01 L64.2360061,16.36 C65.9460061,15.43 67.6860061,14.26 69.3060061,13 L69.2760061,13 C68.4060061,11.47 67.5060061,9.97 66.6360061,8.53 L68.7660061,8.53 C69.4560061,9.55 70.1160061,10.57 70.8360061,11.74 C72.3660061,10.42 73.7760061,9.01 74.8560061,7.63 C75.2760061,7.09 75.1560061,6.85 74.4960061,6.85 L66.2460061,6.85 L66.2460061,5.23 L75.7560061,5.23 C76.8360061,5.23 77.4960061,5.53 77.7060061,6.31 C77.9160061,6.85 77.6160061,7.57 77.1360061,8.26 C76.0560061,9.67 74.9160061,10.93 73.7160061,12.1 L83.2860061,12.1 C81.4260061,10.09 79.9260061,7.84 78.4860061,5.05 L80.7060061,5.05 C81.3960061,6.37 82.2060061,7.63 83.1960061,8.86 C84.1560061,7.63 85.1760061,6.25 85.9260061,5.08 L88.2360061,5.08 C87.1560061,6.7 85.7760061,8.62 84.6360061,9.97 L84.1560061,9.97 C84.8760061,10.78 85.6860061,11.56 86.5560061,12.34 C87.3960061,11.23 88.2960061,9.94 88.9860061,8.86 L91.2660061,8.86 C90.3060061,10.39 89.0460061,12.19 87.9960061,13.54 C89.1360061,14.44 90.4260061,15.37 91.8660061,16.27 L90.4560061,17.95 Z M84.7860061,22.87 C85.3560061,22.87 85.7460061,22.45 85.7460061,21.88 L85.7460061,19.06 C85.7460061,18.46 85.3260061,18.04 84.7560061,18.04 L71.3460061,18.04 C70.8660061,18.04 70.4760061,18.52 70.4760061,18.91 L70.4760061,21.88 C70.4760061,22.45 70.8660061,22.87 71.3460061,22.87 L84.7860061,22.87 Z M73.2060061,24.49 C73.7460061,25.78 74.5560061,27.31 75.3060061,28.63 L80.7360061,28.63 C81.3360061,27.4 82.0260061,25.87 82.5960061,24.49 L73.2060061,24.49 Z M97.8090092,11.77 L97.8090092,10.21 L115.989009,10.21 L115.989009,8.05 C115.989009,7 115.479009,6.55 114.369009,6.55 L97.0290092,6.55 L97.0290092,4.93 L115.449009,4.93 C117.219009,4.93 118.299009,5.89 118.299009,7.45 L118.299009,15.46 L121.089009,15.46 L121.089009,17.14 L109.629009,17.14 L109.629009,19.45 L110.829009,19.45 C113.349009,23.35 116.319009,25.96 120.819009,28.48 L119.349009,30.28 C114.909009,27.82 112.059009,24.97 109.629009,20.92 L109.629009,27.97 C109.629009,29.74 108.579009,30.7 107.049009,30.7 L102.759009,30.7 L102.219009,28.93 L105.789009,28.93 C106.629009,28.93 107.229009,28.45 107.229009,27.28 L107.229009,17.14 L95.2290092,17.14 L95.2290092,15.46 L115.989009,15.46 L115.989009,11.77 L97.8090092,11.77 Z M95.6790092,29.8 L94.7490092,27.79 L105.999009,22.9 L105.999009,25.15 L95.6790092,29.8 Z M114.279009,23.23 C115.359009,21.7 116.499009,19.63 117.159009,18.19 L119.709009,18.19 C118.869009,19.9 117.999009,21.61 116.949009,23.23 L114.279009,23.23 Z M99.9690092,23.17 C99.0690092,21.49 98.1390092,19.78 97.3290092,18.25 L99.8490092,18.25 C100.629009,19.66 101.739009,21.64 102.639009,23.17 L99.9690092,23.17 Z" id="欢迎登录"></path>
                </g>
            </g>
        </g>
    </g>
</svg>