<?xml version="1.0" encoding="UTF-8"?>
<svg width="90px" height="27px" viewBox="0 0 90 27" version="1.1" xmlns="http://www.w3.org/2000/svg" xmlns:xlink="http://www.w3.org/1999/xlink">
    <!-- Generator: Sketch 53.1 (72631) - https://sketchapp.com -->
    <title>分组 6</title>
    <desc>Created with Sketch.</desc>
    <g id="页面-5" stroke="none" stroke-width="1" fill="none" fill-rule="evenodd">
        <g id="1920*1080-首页-流程图03" transform="translate(-40.000000, -14.000000)" fill="#FFFFFF">
            <g id="分组-6" transform="translate(37.000000, 11.000000)">
                <g id="分组-4" transform="translate(3.000000, 3.000000)">
                    <g id="分组">
                        <path d="M22.8719782,-1.33226763e-15 L26,3.26088197 L26,4 L26,25.8706468 L22,25.8706468 L22,4 L3,4 L3,0 L22.8719782,0 Z" id="合并形状"></path>
                        <rect id="矩形" x="0" y="22" width="26" height="4"></rect>
                        <polygon id="矩形" transform="translate(2.000000, 19.500000) rotate(90.000000) translate(-2.000000, -19.500000) " points="-4.5 17.5 8.5 17.5 8.5 21.5 -4.5 21.5"></polygon>
                        <polygon id="矩形" transform="translate(17.000000, 16.000000) rotate(90.000000) translate(-17.000000, -16.000000) " points="14 14 20 14 20 18 14 18"></polygon>
                        <path d="M18.8456376,13.0289999 L18.8456376,16.5713982 L18.0172643,17.5130595 L9.3100753,10.0076763 L0.600187177,17.5134994 L5.79636339e-12,16.8309965 L5.79625237e-12,12.8331786 L9.01777041,5.06203521 L9.02096398,5.06566678 L9.273771,4.77828596 L18.8456376,13.0289999 Z" id="合并形状"></path>
                    </g>
                </g>
                <path d="M48.312,19.28 C46.824,19.28 46.12,18.576 46.12,17.072 L46.12,10.32 C45.384,10.624 44.568,10.912 43.624,11.216 L43.624,9.936 C46.584,8.656 48.2,7.472 49.8,5.008 L52.184,5.008 C53.784,7.472 55.384,8.656 58.36,9.936 L58.36,11.216 C57.272,10.864 56.344,10.528 55.528,10.176 L55.528,13.584 C55.528,15.072 54.856,15.696 53.432,15.696 L51.688,15.696 L51.688,14.384 L52.824,14.384 C53.384,14.384 53.608,14.128 53.608,13.552 L53.608,11.472 L48.184,11.472 L48.184,16.912 C48.184,17.616 48.456,17.904 49.128,17.904 L54.984,17.904 C55.608,17.904 55.912,17.6 55.912,16.96 L55.912,16.16 L57.512,16.16 L57.512,17.184 C57.512,18.624 56.792,19.28 55.288,19.28 L48.312,19.28 Z M51,6.992 C49.592,8.432 48.312,9.328 46.568,10.112 L55.4,10.112 C53.656,9.328 52.392,8.416 51,6.992 Z M65.88,10.944 L65.88,5.712 L74.456,5.712 L74.456,8.752 C74.456,10.304 73.832,10.944 72.264,10.944 L71.096,10.944 L71.096,12.336 L75.464,12.336 L75.464,13.632 L73.48,13.632 C73.752,15.456 74.248,16.352 75.416,17.568 L75.416,18.88 C73.048,17.536 72.136,16.304 71.784,13.632 L71.096,13.632 L71.096,19.632 L69.144,19.632 L69.144,13.632 L68.456,13.632 C68.104,16.304 67.192,17.536 64.824,18.88 L64.824,17.568 C65.992,16.352 66.488,15.456 66.744,13.632 L64.76,13.632 L64.76,12.336 L69.144,12.336 L69.144,10.944 L65.88,10.944 Z M60.776,11.296 L60.776,10.128 C62.184,9.088 62.936,7.92 63.432,5.232 L65.32,5.232 C65.016,6.736 64.664,7.84 64.2,8.688 L64.2,19.616 L62.344,19.616 L62.344,10.592 C61.88,10.864 61.368,11.088 60.776,11.296 Z M67.736,9.632 L71.72,9.632 C72.36,9.632 72.6,9.376 72.6,8.656 L72.6,7.024 L67.736,7.024 L67.736,9.632 Z M83.032,6.864 L83.032,5.664 L92.536,5.664 L92.536,6.864 L89.72,6.864 L89.72,7.936 L92.28,7.936 L92.28,10.08 C92.28,11.248 91.816,11.696 90.6,11.696 L83.192,11.696 L83.192,7.936 L85.72,7.936 L85.72,6.864 L83.032,6.864 Z M78.488,10.864 L78.488,9.664 L82.44,9.664 L82.44,10.864 L81.336,10.864 L81.336,12.928 L82.728,12.928 L82.728,14.144 L81.336,14.144 L81.336,17.072 C81.752,16.896 82.104,16.704 82.632,16.336 L82.632,17.696 C81.688,18.432 80.968,18.896 79.672,19.328 L79.672,14.144 L78.216,14.144 L78.216,12.928 L79.672,12.928 L79.672,10.864 L78.488,10.864 Z M82.904,15.84 L82.904,14.64 L92.664,14.64 L92.664,15.84 L88.6,15.84 L88.6,17.584 C88.6,18.992 88.056,19.504 86.68,19.504 L85.608,19.504 L85.608,18.352 L86.2,18.352 C86.728,18.352 86.904,18.176 86.904,17.584 L86.904,15.84 L82.904,15.84 Z M83.592,13.728 L83.592,12.56 L91.912,12.56 L91.912,13.728 L83.592,13.728 Z M78.12,9.232 L78.12,8.208 C79.096,7.456 79.48,6.816 79.624,5.232 L81.336,5.232 C81.256,5.776 81.16,6.24 81.016,6.64 L82.744,6.64 L82.744,7.84 L80.392,7.84 C79.88,8.48 79.16,8.896 78.12,9.232 Z M92.824,19.36 C90.84,18.944 89.816,18.144 89.272,16.32 L90.84,16.32 C91.272,17.392 91.816,17.888 92.824,18.32 L92.824,19.36 Z M82.568,19.392 L82.568,18.352 C83.544,17.888 84.072,17.392 84.488,16.32 L86.056,16.32 C85.4,18.208 84.488,18.944 82.568,19.392 Z M87.144,9.056 L87.144,10.576 L88.312,10.576 L88.312,9.056 L87.144,9.056 Z M84.552,10.576 L85.72,10.576 L85.72,9.056 L84.552,9.056 L84.552,10.576 Z M90.904,9.056 L89.72,9.056 L89.72,10.576 L90.248,10.576 C90.712,10.576 90.904,10.416 90.904,9.92 L90.904,9.056 Z M87.144,6.864 L87.144,7.936 L88.312,7.936 L88.312,6.864 L87.144,6.864 Z" id="仓保镖" fill-rule="nonzero"></path>
                <path d="M43.663,25.395 L42.55,25.395 C42.368,24.66 41.885,24.226 41.178,24.226 C40.24,24.226 39.477,25.045 39.477,26.585 C39.484,27.908 40.254,28.72 41.458,28.72 C42.242,28.72 42.956,28.342 43.593,27.488 L43.593,28.482 C43.11,29.238 42.382,29.63 41.206,29.63 C39.463,29.63 38.322,28.377 38.322,26.543 C38.322,24.695 39.463,23.491 41.122,23.491 C42.431,23.491 43.376,24.156 43.663,25.395 Z M47.5399999,26.886 L47.5399999,26.158 L51.2779999,26.158 L51.2779999,26.886 L47.5399999,26.886 Z M60.7059999,25.234 L59.5229999,25.234 C59.3129999,24.569 58.8019999,24.219 58.0599999,24.219 C57.0799999,24.219 56.3099999,25.094 56.3099999,26.543 C56.3169999,28.062 57.1569999,28.895 58.1719999,28.895 C58.9629999,28.895 59.4179999,28.587 59.6629999,27.978 L59.6629999,26.872 L57.8499999,26.872 L57.8499999,26.144 L60.7339999,26.144 L60.7339999,28.335 C60.3209999,29.21 59.5089999,29.63 58.1649999,29.63 C56.3099999,29.63 55.1549999,28.433 55.1549999,26.536 C55.1549999,24.639 56.3169999,23.491 58.0529999,23.491 C59.4599999,23.491 60.3139999,24.072 60.7059999,25.234 Z M64.8209998,27.908 L64.8209998,25.276 L65.9409998,25.276 L65.9409998,27.824 C65.9409998,28.58 66.2279998,28.874 66.9279998,28.874 L67.7469998,28.874 L67.7469998,25.276 L68.8669998,25.276 L68.8669998,29.609 L66.5289998,29.609 C65.3179998,29.609 64.8209998,29.119 64.8209998,27.908 Z M75.9639998,28.895 L75.9639998,27.439 L74.9279998,27.439 C74.0949998,27.439 73.7659998,27.719 73.7659998,28.223 C73.7659998,28.678 74.0529998,28.895 74.8369998,28.895 L75.9639998,28.895 Z M74.9979998,26.739 L75.9639998,26.739 C75.9639998,26.095 75.6419998,25.857 74.9839998,25.857 C74.3049998,25.857 73.9899998,26.067 73.8079998,26.585 L72.9329998,26.585 C73.2129998,25.626 73.8359998,25.171 74.9979998,25.171 C76.1669998,25.171 76.7479998,25.682 76.7479998,26.676 L76.7479998,29.63 L74.7949998,29.63 C73.5139998,29.63 72.9469998,29.154 72.9469998,28.293 C72.9469998,27.299 73.5839998,26.739 74.9979998,26.739 Z M80.9679997,29.602 L80.9679997,26.662 C80.9679997,25.661 81.4929997,25.199 82.4729997,25.199 L83.9079997,25.199 L83.9079997,25.927 L82.8439997,25.927 C82.3399997,25.927 82.0879997,26.158 82.0879997,26.662 L82.0879997,29.602 L80.9679997,29.602 Z M90.8089997,28.881 L90.8089997,25.906 L90.2209997,25.906 C89.2829997,25.906 88.8349997,26.375 88.8349997,27.425 C88.8349997,28.426 89.2969997,28.881 90.2069997,28.881 L90.8089997,28.881 Z M89.9759997,25.171 L90.8089997,25.171 L90.8089997,23.176 L91.9289997,23.176 L91.9289997,29.616 L89.9829997,29.616 C88.3799997,29.616 87.6799997,28.874 87.6799997,27.404 C87.6799997,25.934 88.4219997,25.171 89.9759997,25.171 Z" id="C-Guard" fill-rule="nonzero"></path>
                <path d="M43.663,25.395 L42.55,25.395 C42.368,24.66 41.885,24.226 41.178,24.226 C40.24,24.226 39.477,25.045 39.477,26.585 C39.484,27.908 40.254,28.72 41.458,28.72 C42.242,28.72 42.956,28.342 43.593,27.488 L43.593,28.482 C43.11,29.238 42.382,29.63 41.206,29.63 C39.463,29.63 38.322,28.377 38.322,26.543 C38.322,24.695 39.463,23.491 41.122,23.491 C42.431,23.491 43.376,24.156 43.663,25.395 Z M47.5399999,26.886 L47.5399999,26.158 L51.2779999,26.158 L51.2779999,26.886 L47.5399999,26.886 Z M60.7059999,25.234 L59.5229999,25.234 C59.3129999,24.569 58.8019999,24.219 58.0599999,24.219 C57.0799999,24.219 56.3099999,25.094 56.3099999,26.543 C56.3169999,28.062 57.1569999,28.895 58.1719999,28.895 C58.9629999,28.895 59.4179999,28.587 59.6629999,27.978 L59.6629999,26.872 L57.8499999,26.872 L57.8499999,26.144 L60.7339999,26.144 L60.7339999,28.335 C60.3209999,29.21 59.5089999,29.63 58.1649999,29.63 C56.3099999,29.63 55.1549999,28.433 55.1549999,26.536 C55.1549999,24.639 56.3169999,23.491 58.0529999,23.491 C59.4599999,23.491 60.3139999,24.072 60.7059999,25.234 Z M64.8209998,27.908 L64.8209998,25.276 L65.9409998,25.276 L65.9409998,27.824 C65.9409998,28.58 66.2279998,28.874 66.9279998,28.874 L67.7469998,28.874 L67.7469998,25.276 L68.8669998,25.276 L68.8669998,29.609 L66.5289998,29.609 C65.3179998,29.609 64.8209998,29.119 64.8209998,27.908 Z M75.9639998,28.895 L75.9639998,27.439 L74.9279998,27.439 C74.0949998,27.439 73.7659998,27.719 73.7659998,28.223 C73.7659998,28.678 74.0529998,28.895 74.8369998,28.895 L75.9639998,28.895 Z M74.9979998,26.739 L75.9639998,26.739 C75.9639998,26.095 75.6419998,25.857 74.9839998,25.857 C74.3049998,25.857 73.9899998,26.067 73.8079998,26.585 L72.9329998,26.585 C73.2129998,25.626 73.8359998,25.171 74.9979998,25.171 C76.1669998,25.171 76.7479998,25.682 76.7479998,26.676 L76.7479998,29.63 L74.7949998,29.63 C73.5139998,29.63 72.9469998,29.154 72.9469998,28.293 C72.9469998,27.299 73.5839998,26.739 74.9979998,26.739 Z M80.9679997,29.602 L80.9679997,26.662 C80.9679997,25.661 81.4929997,25.199 82.4729997,25.199 L83.9079997,25.199 L83.9079997,25.927 L82.8439997,25.927 C82.3399997,25.927 82.0879997,26.158 82.0879997,26.662 L82.0879997,29.602 L80.9679997,29.602 Z M90.8089997,28.881 L90.8089997,25.906 L90.2209997,25.906 C89.2829997,25.906 88.8349997,26.375 88.8349997,27.425 C88.8349997,28.426 89.2969997,28.881 90.2069997,28.881 L90.8089997,28.881 Z M89.9759997,25.171 L90.8089997,25.171 L90.8089997,23.176 L91.9289997,23.176 L91.9289997,29.616 L89.9829997,29.616 C88.3799997,29.616 87.6799997,28.874 87.6799997,27.404 C87.6799997,25.934 88.4219997,25.171 89.9759997,25.171 Z" id="C-Guard" fill-rule="nonzero"></path>
            </g>
        </g>
    </g>
</svg>