<?xml version="1.0" encoding="UTF-8"?>
<svg width="207px" height="28px" viewBox="0 0 207 28" version="1.1" xmlns="http://www.w3.org/2000/svg" xmlns:xlink="http://www.w3.org/1999/xlink">
    <!-- Generator: Sketch 53.1 (72631) - https://sketchapp.com -->
    <title>分组 4</title>
    <desc>Created with Sketch.</desc>
    <g id="页面-5" stroke="none" stroke-width="1" fill="none" fill-rule="evenodd">
        <g id="1920*1080-基础数据-注册页优化" transform="translate(-846.000000, -177.000000)" fill="#3998FC" fill-rule="nonzero">
            <g id="分组-3" transform="translate(599.000000, 152.000000)">
                <g id="分组-2" transform="translate(0.000000, 23.000000)">
                    <g id="分组-4" transform="translate(243.000000, 0.000000)">
                        <path d="M5.9,28.55 L4.22,27.62 C5.75,25.16 7.16,22.55 8.33,19.82 C6.68,16.16 5.66,12.38 5.09,7.79 L6.95,7.79 C7.49,11.39 8.18,14.27 9.38,17.21 C10.58,13.97 11.42,10.58 11.78,7.01 C11.87,6.17 11.54,5.78 10.82,5.78 L4.64,5.78 L4.64,4.07 L11.57,4.07 C12.47,4.07 13.16,4.34 13.52,4.88 C13.85,5.3 14,6.05 13.88,7.01 C13.43,11.24 12.35,15.59 10.58,19.82 C11.45,21.53 12.5,23.3 13.85,25.28 L12.08,26.48 C11.12,25.04 10.28,23.6 9.53,22.22 C8.48,24.38 7.28,26.48 5.9,28.55 Z M14.57,28.58 L12.86,27.44 C18.71,22.01 20.54,17.45 20.66,9.41 L22.79,9.41 C22.73,11.45 22.58,13.25 22.34,14.87 L23.06,14.87 C23.93,19.73 25.79,23.36 29.93,27.47 L28.04,28.64 C24.8,25.34 22.85,21.95 21.77,17.69 C20.69,21.86 18.56,24.98 14.57,28.58 Z M15.83,14.51 L14,13.7 C15.53,9.92 16.58,6.14 17.27,2.06 L19.37,2.06 C19.19,3.17 18.98,4.31 18.74,5.42 L26.66,5.42 C27.83,5.42 28.97,6.32 28.97,7.82 L28.97,12.98 L26.66,12.98 L26.66,8.33 C26.66,7.46 26.24,7.16 25.55,7.16 L18.32,7.16 C17.66,9.71 16.82,12.23 15.83,14.51 Z M49.9130031,25.79 L49.9130031,6.2 C49.9130031,4.61 50.8130031,3.62 52.1630031,3.62 L56.4230031,3.62 C57.8330031,3.62 58.9130031,4.61 58.9130031,6.2 L58.9130031,19.85 C58.9130031,21.56 57.9830031,22.37 56.4530031,22.37 L54.2930031,22.37 L53.8130031,20.63 L55.6130031,20.63 C56.2730031,20.63 56.7530031,20.24 56.7530031,19.37 L56.7530031,6.68 C56.7530031,5.87 56.2430031,5.39 55.5530031,5.39 L53.3330031,5.39 C52.6730031,5.39 52.1330031,5.9 52.1330031,6.8 L52.1330031,25.79 L49.9130031,25.79 Z M35.0330031,29.54 L33.3230031,28.4 C36.2030031,25.46 37.2230031,22.91 37.2230031,19.94 L37.2230031,13.52 C37.2230031,12.86 36.7430031,12.32 36.1430031,12.32 L33.3230031,12.32 L33.3230031,10.55 L36.7730031,10.55 C38.3630031,10.55 39.4430031,11.51 39.4430031,13.07 L39.4430031,19.94 C39.4430031,20.96 39.2930031,21.95 39.0530031,22.91 C40.1030031,24.26 41.5730031,25.46 42.7130031,25.94 C44.2430031,26.57 45.9830031,26.75 47.5730031,26.75 L60.6230031,26.75 L60.0230031,28.58 L47.9930031,28.58 C45.7130031,28.58 43.8530031,28.34 42.3830031,27.8 C41.0330031,27.29 39.5630031,26.12 38.4230031,24.77 C37.7030031,26.42 36.5630031,28.04 35.0330031,29.54 Z M44.5730031,22.22 C43.0730031,22.22 42.1430031,21.38 42.1430031,19.52 L42.1430031,6.44 C42.1430031,5.18 42.7730031,4.34 43.9130031,3.95 C45.3530031,3.5 46.9730031,2.9 48.3230031,2.33 L49.0130031,4.34 C47.9030031,4.76 46.5530031,5.24 45.4730031,5.6 C44.7230031,5.84 44.3630031,6.32 44.3630031,7.04 L44.3630031,19.16 C44.3630031,20.03 44.8730031,20.48 45.6530031,20.48 L48.1730031,20.48 L47.6630031,22.22 L44.5730031,22.22 Z M36.4430031,8.06 C35.9030031,6.11 35.1530031,3.83 34.5830031,2.3 L36.8030031,2.3 C37.4030031,3.65 38.3030031,6.17 38.8730031,8.06 L36.4430031,8.06 Z M70.9460061,8.15 L70.9460061,6.41 L78.9260061,6.41 C78.5060061,5.06 77.9660061,3.53 77.4860061,2.27 L79.8860061,2.27 C80.3960061,3.53 80.9660061,5 81.4460061,6.41 L89.6960061,6.41 L89.6960061,8.15 L81.4760061,8.15 L81.4760061,15.41 L89.1860061,15.41 L89.1860061,17.15 L81.4760061,17.15 L81.4760061,26.12 L90.3260061,26.12 L90.3260061,27.86 L69.8660061,27.86 L69.8660061,26.12 L79.0460061,26.12 L79.0460061,17.15 L71.7560061,17.15 L71.7560061,15.41 L79.0460061,15.41 L79.0460061,8.15 L70.9460061,8.15 Z M63.6560061,28.82 C65.1260061,25.16 66.7160061,20.78 67.8260061,17.36 L70.2260061,17.36 C68.9960061,21.38 67.4060061,25.64 66.1460061,28.82 L63.6560061,28.82 Z M66.8360061,8.72 C65.9360061,6.44 64.9160061,4.07 64.0460061,2.21 L66.5060061,2.21 C67.4360061,3.89 68.5760061,6.41 69.5060061,8.72 L66.8360061,8.72 Z M66.4760061,15.83 C65.6660061,13.7 64.7060061,11.6 63.8060061,9.74 L66.2060061,9.74 C67.1660061,11.45 68.1860061,13.67 69.0860061,15.83 L66.4760061,15.83 Z M93.8990092,15.59 L93.8990092,13.85 L95.9990092,13.85 L95.9990092,5.3 C95.9990092,4.01 97.0490092,3.05 98.2790092,3.05 L102.869009,3.05 C104.039009,3.05 105.119009,4.01 105.119009,5.15 L105.119009,13.85 L108.089009,13.85 L108.089009,5.33 C108.089009,4.04 109.109009,3.08 110.339009,3.08 L115.529009,3.08 C116.729009,3.08 117.779009,4.04 117.779009,5.18 L117.779009,13.85 L120.089009,13.85 L120.089009,15.59 L117.779009,15.59 L117.779009,26.3 C117.779009,27.71 116.609009,28.43 115.439009,28.43 L112.589009,28.43 L112.109009,26.84 L114.089009,26.84 C114.959009,26.84 115.589009,26.45 115.589009,25.55 L115.589009,15.59 L110.249009,15.59 L110.249009,17.6 C110.249009,21.23 109.829009,24.53 108.959009,28.58 L106.859009,28.13 C107.729009,24.35 108.089009,21.26 108.089009,17.42 L108.089009,15.59 L105.119009,15.59 L105.119009,26.12 C105.119009,27.53 103.919009,28.28 102.749009,28.28 L99.9590092,28.28 L99.4490092,26.66 L101.489009,26.66 C102.389009,26.66 102.989009,26.27 102.989009,25.37 L102.989009,15.59 L98.1590092,15.59 L98.1590092,16.43 C98.1590092,20.3 97.5890092,24.44 96.5390092,28.55 L94.4390092,28.1 C95.5490092,23.78 95.9990092,20.27 95.9990092,16.43 L95.9990092,15.59 L93.8990092,15.59 Z M110.249009,5.96 L110.249009,13.85 L115.589009,13.85 L115.589009,5.99 C115.589009,5.18 115.049009,4.79 114.479009,4.79 L111.329009,4.79 C110.729009,4.79 110.249009,5.24 110.249009,5.96 Z M98.1590092,5.93 L98.1590092,13.85 L102.989009,13.85 L102.989009,5.96 C102.989009,5.15 102.479009,4.76 101.879009,4.76 L99.0890092,4.76 C98.4890092,4.76 98.1590092,5.21 98.1590092,5.93 Z M125.402012,13.88 L123.842012,12.47 C126.842012,10.07 128.882012,7.55 130.472012,4.85 C130.712012,4.37 131.312012,3.62 131.882012,3.26 C132.362012,2.96 132.992012,2.81 133.682012,2.81 L140.432012,2.81 C140.942012,2.81 141.542012,2.99 142.052012,3.35 C142.442012,3.65 142.922012,4.25 143.312012,4.82 C144.992012,7.46 146.852012,9.56 149.942012,12.05 L148.382012,13.64 C145.472012,11.27 143.222012,8.63 141.212012,5.48 C140.792012,4.82 140.192012,4.55 139.592012,4.55 L134.282012,4.55 C133.652012,4.55 133.112012,5 132.752012,5.51 C130.532012,8.9 128.252012,11.66 125.402012,13.88 Z M131.522012,28.73 C129.182012,28.73 128.042012,27.59 128.042012,25.52 L128.042012,14.81 C128.042012,13.37 129.182012,12.32 130.472012,12.32 L143.222012,12.32 C144.392012,12.32 145.682012,13.46 145.682012,14.66 L145.682012,20.27 C145.682012,21.83 144.722012,22.7 143.132012,22.7 L137.672012,22.7 L137.162012,20.99 L142.112012,20.99 C142.802012,20.99 143.372012,20.69 143.372012,19.82 L143.372012,15.29 C143.372012,14.6 142.772012,14.09 142.082012,14.09 L131.672012,14.09 C130.892012,14.09 130.442012,14.66 130.442012,15.32 L130.442012,24.86 C130.442012,26.15 131.072012,26.81 132.332012,26.81 L148.352012,26.81 L147.812012,28.73 L131.522012,28.73 Z M165.965015,13.76 C164.075015,13.76 162.695015,12.8 162.695015,10.82 L162.695015,6.47 C162.695015,4.58 164.105015,3.62 165.725015,3.62 L175.715015,3.62 C177.455015,3.62 178.745015,4.7 178.745015,6.47 L178.745015,10.79 C178.745015,12.86 177.605015,13.76 175.535015,13.76 L165.965015,13.76 Z M164.915015,10.13 C164.915015,11.42 165.635015,12.14 166.925015,12.14 L174.425015,12.14 C175.745015,12.14 176.525015,11.51 176.525015,10.16 L176.525015,7.28 C176.525015,5.93 175.595015,5.24 174.425015,5.24 L166.925015,5.24 C165.635015,5.24 164.915015,5.99 164.915015,7.34 L164.915015,10.13 Z M156.875015,28.64 L156.875015,11.96 C156.245015,12.98 155.645015,13.97 155.015015,14.87 L153.275015,13.61 C155.405015,10.46 157.655015,6.02 158.885015,2.3 L161.345015,2.3 C160.235015,5.42 158.885015,8.36 157.445015,10.94 L159.185015,10.94 L159.185015,28.64 L156.875015,28.64 Z M169.595015,28.67 L169.595015,18.89 L161.675015,18.89 L161.675015,17.24 L169.595015,17.24 L169.595015,14.75 L171.875015,14.75 L171.875015,17.24 L179.765015,17.24 L179.765015,18.89 L171.875015,18.89 L171.875015,28.67 L169.595015,28.67 Z M178.955015,28.07 C176.555015,25.46 175.235015,23.39 173.975015,20.36 L176.165015,20.36 C177.305015,22.91 178.715015,24.92 180.695015,26.9 L178.955015,28.07 Z M162.575015,28.04 L160.835015,26.87 C162.815015,24.89 164.225015,22.88 165.365015,20.36 L167.555015,20.36 C166.295015,23.36 164.975015,25.46 162.575015,28.04 Z M192.908018,4.82 L192.908018,3.32 L210.188018,3.32 L210.188018,4.82 L204.788018,4.82 L204.788018,7.25 L207.548018,7.25 C208.508018,7.25 209.408018,8.06 209.408018,9.11 L209.408018,11.96 C209.408018,13.16 208.658018,13.85 207.308018,13.85 L195.278018,13.85 C194.228018,13.85 193.508018,13.1 193.508018,12.14 L193.508018,9.02 C193.508018,8 194.228018,7.25 195.398018,7.25 L198.128018,7.25 L198.128018,4.82 L192.908018,4.82 Z M189.548018,28.28 C188.048018,28.28 187.238018,27.35 187.238018,25.7 L187.238018,18.83 L183.578018,18.83 L183.578018,17.15 L187.238018,17.15 L187.238018,12.71 L184.538018,12.71 L184.538018,11.06 L192.368018,11.06 L192.368018,12.71 L189.398018,12.71 L189.398018,17.15 L192.818018,17.15 L192.818018,18.83 L189.398018,18.83 L189.398018,25.31 C189.398018,26.12 189.908018,26.54 190.688018,26.54 L191.948018,26.54 L191.438018,28.28 L189.548018,28.28 Z M192.968018,21.29 L192.968018,19.76 L210.308018,19.76 L210.308018,21.29 L202.658018,21.29 L202.658018,25.61 C202.658018,27.89 201.788018,28.49 199.928018,28.49 L198.218018,28.49 L197.708018,26.84 L198.998018,26.84 C200.048018,26.84 200.498018,26.48 200.498018,25.28 L200.498018,21.29 L192.968018,21.29 Z M184.928018,10.97 L183.248018,10.16 C184.778018,7.49 185.828018,4.94 186.608018,2.3 L188.708018,2.3 C188.408018,3.41 188.048018,4.49 187.658018,5.54 L192.908018,5.54 L192.908018,7.22 L186.968018,7.22 C186.368018,8.57 185.648018,9.83 184.928018,10.97 Z M193.928018,17.45 L193.928018,15.92 L209.198018,15.92 L209.198018,17.45 L193.928018,17.45 Z M209.198018,28.1 C206.918018,26.06 205.538018,24.35 204.248018,22.13 L206.408018,22.13 C207.518018,23.75 208.808018,25.19 210.578018,26.72 L209.198018,28.1 Z M193.598018,28.1 L192.248018,26.72 C194.018018,25.16 195.308018,23.72 196.358018,22.13 L198.518018,22.13 C197.228018,24.32 195.878018,26 193.598018,28.1 Z M200.078018,8.66 L200.078018,12.44 L202.808018,12.44 L202.808018,8.66 L200.078018,8.66 Z M195.398018,11.45 C195.398018,12.14 195.788018,12.44 196.538018,12.44 L198.128018,12.44 L198.128018,8.66 L196.568018,8.66 C195.788018,8.66 195.398018,9.05 195.398018,9.59 L195.398018,11.45 Z M206.318018,12.44 C207.068018,12.44 207.518018,12.17 207.518018,11.45 L207.518018,9.65 C207.518018,8.99 207.098018,8.66 206.288018,8.66 L204.788018,8.66 L204.788018,12.44 L206.318018,12.44 Z M200.078018,4.82 L200.078018,7.25 L202.808018,7.25 L202.808018,4.82 L200.078018,4.82 Z" id="欢迎注册仓保镖"></path>
                    </g>
                </g>
            </g>
        </g>
    </g>
</svg>