<?xml version="1.0" encoding="UTF-8"?>
<svg width="1233px" height="510px" viewBox="0 0 1233 510" version="1.1" xmlns="http://www.w3.org/2000/svg" xmlns:xlink="http://www.w3.org/1999/xlink">
    <!-- Generator: Sketch 53.1 (72631) - https://sketchapp.com -->
    <title> </title>
    <desc>Created with Sketch.</desc>
    <g id="页面-5" stroke="none" stroke-width="1" fill="none" fill-rule="evenodd">
        <g id="1920*1080-首页-流程图03" transform="translate(-119.000000, -306.000000)">
            <g id="分组-5" transform="translate(119.000000, 306.000000)">
                <path d="M133,230.983755 L270,231.5" id="直线-6" stroke="#A0B0FF" stroke-width="3" stroke-linecap="round" stroke-dasharray="10,15"></path>
                <path d="M330,230.983755 L393.188,231.5" id="直线-6" stroke="#A0B0FF" stroke-width="3" stroke-linecap="round" stroke-dasharray="10,15"></path>
                <path d="M310,65.9837555 L948.264286,65" id="直线-6" stroke="#A0B0FF" stroke-width="3" stroke-linecap="round" stroke-dasharray="10,15"></path>
                <path d="M335.5,150 L476,150.655837" id="直线-6" stroke="#A0B0FF" stroke-width="3" stroke-linecap="round" stroke-dasharray="10,15" transform="translate(406.000000, 150.000000) rotate(90.000000) translate(-406.000000, -150.000000) "></path>
                <path d="M542.483755,142.5 L696.5,143.155837" id="直线-6" stroke="#A0B0FF" stroke-width="3" stroke-linecap="round" stroke-dasharray="10,15" transform="translate(619.000000, 142.500000) rotate(90.000000) translate(-619.000000, -142.500000) "></path>
                <path d="M872.483755,142.5 L1026.5,143.155837" id="直线-6" stroke="#A0B0FF" stroke-width="3" stroke-linecap="round" stroke-dasharray="10,15" transform="translate(949.000000, 142.500000) rotate(90.000000) translate(-949.000000, -142.500000) "></path>
                <path d="M911.983755,347 L986.75,347" id="直线-6" stroke="#A0B0FF" stroke-width="3" stroke-linecap="round" stroke-dasharray="10,15" transform="translate(949.000000, 347.000000) rotate(90.000000) translate(-949.000000, -347.000000) "></path>
                <path d="M479,347.75 L553.75,347" id="直线-6" stroke="#A0B0FF" stroke-width="3" stroke-linecap="round" stroke-dasharray="10,15" transform="translate(516.000000, 347.000000) rotate(90.000000) translate(-516.000000, -347.000000) "></path>
                <path d="M763.188,231.5 L948.264286,231.5" id="直线-6" stroke="#A0B0FF" stroke-width="3" stroke-linecap="round" stroke-dasharray="10,15"></path>
                <path d="M973.188,231.5 L1092.5,230.983755" id="直线-6" stroke="#A0B0FF" stroke-width="3" stroke-linecap="round" stroke-dasharray="10,15"></path>
                <ellipse id="椭圆形" stroke="#A0B0FF" stroke-width="3" cx="406" cy="231.5" rx="7" ry="6.5"></ellipse>
                <path d="M422,231.5 L546.562937,231.5" id="直线-6" stroke="#A0B0FF" stroke-width="3" stroke-linecap="round" stroke-dasharray="10,15"></path>
                <path d="M543,230.983755 L606.188,231.5" id="直线-6" stroke="#A0B0FF" stroke-width="3" stroke-linecap="round" stroke-dasharray="10,15"></path>
                <ellipse id="椭圆形" stroke="#A0B0FF" stroke-width="3" cx="619" cy="231.5" rx="7" ry="6.5"></ellipse>
                <path d="M635,231.5 L759.562937,231.5" id="直线-6" stroke="#A0B0FF" stroke-width="3" stroke-linecap="round" stroke-dasharray="10,15"></path>
                <path d="M516.730435,384.75 L641,384.75" id="直线-6" stroke="#A0B0FF" stroke-width="3" stroke-linecap="round" stroke-dasharray="10,15"></path>
                <path d="M956.730435,384.75 L1081,384.75" id="直线-6" stroke="#A0B0FF" stroke-width="3" stroke-linecap="round" stroke-dasharray="10,15"></path>
                <g id="01" transform="translate(59.000000, 187.000000)">
                    <ellipse id="椭圆形" fill="#8E9EF2" cx="40" cy="41" rx="40" ry="41"></ellipse>
                    <ellipse id="椭圆形" fill="#A0B0FF" cx="40" cy="41" rx="35" ry="36"></ellipse>
                </g>
                <g id="单据-(1)" transform="translate(82.000000, 208.000000)" fill="#FFFFFF" fill-rule="nonzero">
                    <polygon id="路径" points="13 19.0000289 17 19.0000289 17 30 13 30 13 19"></polygon>
                    <polygon id="路径" points="10 24 21 24 21 27 10 27"></polygon>
                    <path d="M34.5864106,14.09375 L32.7769572,12.3 L31.7946824,11.32625 L21.7909897,1.409375 L21.4807976,1.101875 L20.3692762,0 L6.35893648,0 C4.0967384,0.00951300419 2.00996626,1.20972724 0.8788774,3.151875 C0.30789463,4.1061194 0.00447224797,5.19426823 0,6.30375 L0,34.69625 C0.0141660686,38.1718815 2.85287738,40.9859569 6.35893648,41 L28.6410635,41 C32.1471226,40.9859569 34.9858339,38.1718815 35,34.69625 L35,14.50375 L34.5864106,14.09375 Z M21.661743,5.8425 L28.2791728,12.3 L24.9704579,12.3 C23.2144861,12.3 21.7909897,10.8888575 21.7909897,9.148125 L21.661743,5.8425 Z M31.6912851,29.16125 L31.6912851,34.670625 C31.6912851,36.4113575 30.2677887,37.8225 28.5118168,37.8225 L6.35893648,37.8225 C4.60296466,37.8225 3.17946824,36.4113575 3.17946824,34.670625 L3.17946824,6.30375 C3.17946824,4.5630175 4.60296466,3.151875 6.35893648,3.151875 L18.6115214,3.151875 L18.6115214,9.148125 C18.6677894,12.5936987 21.494291,15.3615 24.9704579,15.375 L31.8205318,15.375 L31.6912851,29.16125 Z" id="形状"></path>
                </g>
                <g id="02" transform="translate(257.000000, 187.000000)">
                    <ellipse id="椭圆形" fill="#8E9EF2" cx="40.5" cy="41" rx="40.5" ry="41"></ellipse>
                    <ellipse id="椭圆形" fill="#A0B0FF" cx="40.5" cy="41" rx="35.5" ry="36"></ellipse>
                </g>
                <g id="审核-(1)" transform="translate(279.000000, 205.000000)" fill="#FFFFFF" fill-rule="nonzero">
                    <path d="M3.25214129,43 C2.50653552,43 1.89995058,42.3813882 1.89995053,41.6209993 L1.89995053,37.1102836 L1.35134717,37.1102836 C0.606191334,37.1102836 0,36.4917292 0,35.7313402 L0,32.7860231 C0,30.9437805 1.4585371,29.4450262 3.25135392,29.4450262 C5.1237478,29.4450262 7.67133716,28.64059 9.74168943,27.3957385 C12.0019017,26.0366393 13.2981917,24.4243831 13.2981917,22.972257 L13.2981917,21.9899112 C13.2981917,20.4416038 13.2983042,20.2794662 11.0897185,17.9983568 C8.87089751,16.0523048 7.59822759,13.2151559 7.59822759,10.2140342 C7.59822759,7.48855198 8.62581156,4.92612502 10.4916818,2.99877019 C12.3611513,1.06499182 14.8500842,-5.60469738e-08 17.4999708,0 C20.1483953,0 22.6370471,1.06504921 24.5075289,2.99882758 C26.373849,4.92566622 27.4016579,7.48809318 27.4016579,10.2139195 C27.4016579,13.2132059 26.1300565,16.0496665 23.9130351,17.9964067 C21.7110293,20.2714367 21.7111418,20.435639 21.7111418,21.7117481 C21.7111418,22.5341359 21.7040558,22.9197215 21.7026498,22.9886601 C21.7104107,24.4369435 23.0090627,26.0457585 25.2653383,27.4006709 C27.3340596,28.6429989 29.8792308,29.4457145 31.7495439,29.4457145 C33.5418546,29.4457145 34.999998,30.9444688 34.999998,32.7867687 L34.999998,35.7320284 C35.0006166,36.0993184 34.8603586,36.445273 34.6051498,36.7059434 C34.3499972,36.9665564 34.0109372,37.1101115 33.6504505,37.1101115 L33.1043215,37.1101115 L33.1043215,41.6208272 C33.1020157,42.3813309 32.4946435,42.9998279 31.7504437,42.9998279 L3.25231001,42.9998279 L3.25231001,43 L3.25214129,43 Z M30.2702703,40.1333333 L30.2702703,37.2666667 L5.67567568,37.2666667 L5.67567568,40.1333333 L30.2702703,40.1333333 Z M31.6210428,34.3988551 C31.631241,34.3988551 31.6413835,34.3992558 31.651526,34.3999428 L32.1621622,34.4 L32.1621622,32.8372554 C32.1621622,32.5167952 31.9190207,32.2560992 31.6201511,32.2560993 C29.2819692,32.2560993 26.1818176,31.2782891 23.7223157,29.7650618 C20.6660221,27.8828302 18.9828678,25.4957506 18.9828678,23.0435829 C18.9828678,23.0301875 18.9835922,23.0155327 18.9848182,23.0009923 C18.9868245,22.8992671 18.9930103,22.5230497 18.9930103,21.783896 C18.9930103,19.5498909 19.3844441,18.8061574 21.9846594,16.0995336 L21.9920154,16.09192 C21.9953591,16.0885997 22.0145853,16.0710253 22.0203253,16.0655297 C22.0384927,16.0482989 22.0566043,16.0314687 22.0749945,16.0161269 C23.6985198,14.5971258 24.6303486,12.5161378 24.6303487,10.3076641 C24.6303487,6.20465107 21.4316699,2.86666667 17.5,2.86666667 C13.5678286,2.86666667 10.3688155,6.2047083 10.3688154,10.3076641 C10.3688154,12.5172255 11.3022046,14.5993583 12.929631,16.0203058 C12.9572721,16.0441199 12.9864178,16.071655 13.0135574,16.0995336 C14.2840456,17.4205877 15.0555447,18.3012523 15.4944588,19.1717844 C15.9780112,20.1369433 16.0154047,20.978223 16.0154047,22.0614794 L16.0154047,23.04198 C16.0154047,25.4949492 14.3322503,27.8826012 11.2760681,29.7651764 C8.81645483,31.2784608 5.71730631,32.256271 3.38062911,32.256271 C3.08131371,32.256271 2.83783789,32.5169669 2.83783784,32.8374272 L2.83783784,34.4 L3.35594156,34.3998855 C3.36151439,34.3994275 3.37104386,34.3990268 3.38062911,34.3990268 C3.39054873,34.3990268 3.4003011,34.3994275 3.41005348,34.4 L31.5962995,34.3998855 C31.6019281,34.3992558 31.6114018,34.398855 31.6210428,34.3988551 Z" id="形状"></path>
                </g>
                <g id="03" transform="translate(469.000000, 187.000000)">
                    <ellipse id="椭圆形" fill="#8E9EF2" cx="40.5" cy="41" rx="40.5" ry="41"></ellipse>
                    <ellipse id="椭圆形" fill="#A0B0FF" cx="40.5" cy="41" rx="35.5" ry="36"></ellipse>
                </g>
                <g id="04" transform="translate(258.000000, 24.000000)">
                    <ellipse id="椭圆形" fill="#8E9EF2" cx="40.5" cy="41" rx="40.5" ry="41"></ellipse>
                    <ellipse id="椭圆形" fill="#A0B0FF" cx="40.5" cy="41" rx="35.5" ry="36"></ellipse>
                </g>
                <g id="05" transform="translate(1087.000000, 187.000000)">
                    <ellipse id="椭圆形" fill="#8E9EF2" cx="40" cy="41" rx="40" ry="41"></ellipse>
                    <ellipse id="椭圆形" fill="#A0B0FF" cx="40" cy="41" rx="35" ry="36"></ellipse>
                </g>
                <g id="06" transform="translate(687.000000, 187.000000)">
                    <ellipse id="椭圆形" fill="#8E9EF2" cx="40" cy="41" rx="40" ry="41"></ellipse>
                    <ellipse id="椭圆形" fill="#A0B0FF" cx="40" cy="41" rx="35" ry="36"></ellipse>
                </g>
                <g id="07" transform="translate(587.000000, 334.000000)">
                    <ellipse id="椭圆形" fill="#8E9EF2" cx="40" cy="40.5" rx="40" ry="40.5"></ellipse>
                    <ellipse id="椭圆形" fill="#A0B0FF" cx="40" cy="40.5" rx="35" ry="35.5"></ellipse>
                </g>
                <g id="07" transform="translate(907.000000, 187.000000)">
                    <ellipse id="椭圆形" fill="#8E9EF2" cx="40" cy="41" rx="40" ry="41"></ellipse>
                    <ellipse id="椭圆形" fill="#A0B0FF" cx="40" cy="41" rx="35" ry="36"></ellipse>
                </g>
                <g id="承运商" transform="translate(493.000000, 208.000000)" fill="#FFFFFF" fill-rule="nonzero">
                    <path d="M21.0838411,25.1648611 C21.2647614,25.8368437 21.8207603,26.2678394 22.4959018,26.2678394 L35.7251457,26.2678394 C36.4355887,26.2678394 36.9695242,25.7024472 36.9695242,24.9563148 C36.9695241,24.2101825 36.4355887,23.6447903 35.7251457,23.6447903 L25.3553248,23.6447903 L29.3135075,20.3543932 C29.5782689,20.1643843 29.7459511,19.890957 29.803316,19.5665516 C29.8739191,19.2143401 29.7989033,18.8343223 29.6003323,18.5516262 C29.4326501,18.2781989 29.1458253,18.0835557 28.8104609,18.023309 C28.453033,17.9537935 28.0911924,18.0418464 27.8176057,18.2596614 L21.569237,23.4640502 C21.0970792,23.857971 20.9073335,24.5253191 21.0838411,25.1648611 Z M36.9342227,28.8213729 C36.7577151,28.1586591 36.1884781,27.709126 35.5177493,27.709126 L22.2443785,27.709126 C21.5339355,27.709126 21,28.2745182 21,29.0206505 C21,29.7667828 21.5339355,30.332175 22.2443785,30.332175 L32.6450883,30.332175 L28.6648421,33.6225722 C28.4000807,33.812581 28.2279858,34.0860084 28.1706208,34.4104138 C28.1000178,34.7765284 28.1794462,35.1611805 28.38243,35.4485109 C28.6074771,35.8007224 28.9737304,36 29.3929359,36 C29.5253166,36 29.8739191,36 30.1783947,35.7080352 L36.4532395,30.5268182 L36.4576522,30.5221839 C36.9253973,30.1189943 37.1107303,29.4655493 36.9342227,28.8213729 L36.9342227,28.8213729 Z" id="形状"></path>
                    <path d="M19.9190964,34.4152652 L2.62127525,34.4152652 C2.93271389,31.1125485 4.45530279,28.0535105 6.9078821,25.7907797 C9.38208907,23.5019405 12.5873118,22.2443843 15.9396027,22.2443843 C16.0736943,22.2443843 16.2121115,22.2443843 16.3462031,22.2574386 C16.4716437,22.2704928 16.5927588,22.26179 16.7181993,22.2313301 L16.7355015,22.2313301 C22.4927908,21.8266494 27,16.9530754 27,11.1352464 C26.9913489,4.99541338 22.0213073,0 15.9223005,0 C9.83627044,0 4.88353093,4.98671056 4.88353093,11.1178408 C4.88353093,13.1020816 5.40692089,15.0471598 6.40179429,16.7442079 C7.3577379,18.3716335 8.70730535,19.7379748 10.3077539,20.695284 C7.32745915,21.8266494 4.77539252,23.8152417 2.91541174,26.4521933 C1.00785008,29.1761731 0,32.3744561 0,35.7076326 C0,36.4212631 0.575296389,37 1.28468442,37 L19.9147709,37 C20.6241589,37 21.2037808,36.4212631 21.2037808,35.7076326 C21.2037808,35.0070563 20.6155079,34.4152652 19.9190964,34.4152652 Z M7.45289971,11.1178408 C7.45289971,6.40526874 11.259372,2.576032 15.9396027,2.57603196 C20.6241589,2.57603196 24.4306312,6.40962011 24.4306312,11.1178408 C24.4306312,15.8304128 20.6241589,19.6596495 15.9439282,19.6596495 C11.2636975,19.6640009 7.45289975,15.8304128 7.45289971,11.1178408 Z" id="形状"></path>
                </g>
                <g id="单据-撤回" transform="translate(283.000000, 45.000000)" fill="#FFFFFF" fill-rule="nonzero">
                    <path d="M33.5982275,13.75 L31.8404727,12 L30.8862629,11.05 L21.16839,1.375 L20.8670606,1.075 L19.7872969,0 L6.17725258,0 C3.97968874,0.00928097969 1.95253866,1.1802217 0.853766617,3.075 C0.299097641,4.00597014 0.00434446946,5.06757876 0,6.15 L0,33.85 C0.0137613238,37.24086 2.7713666,39.9862994 6.17725258,40 L27.8227474,40 C31.2286334,39.9862994 33.9862387,37.24086 34,33.85 L34,14.15 L33.5982275,13.75 Z M21.042836,5.7 L27.4711965,12 L24.2570162,12 C22.551215,12 21.16839,10.6232756 21.16839,8.925 L21.042836,5.7 Z M30.7858198,28.45 L30.7858198,33.825 C30.7858198,35.5232756 29.4029947,36.9 27.6971935,36.9 L6.17725258,36.9 C4.47145139,36.9 3.08862629,35.5232756 3.08862629,33.825 L3.08862629,6.15 C3.08862629,4.45172439 4.47145139,3.075 6.17725258,3.075 L18.0797637,3.075 L18.0797637,8.925 C18.134424,12.2865354 20.8801684,14.9868292 24.2570162,15 L30.9113737,15 L30.7858198,28.45 Z" id="形状"></path>
                    <path d="M20.558672,20.9135374 L13.3298055,20.9135374 L15.6945907,18.4019951 C16.1545306,17.8343545 16.6144705,16.9427302 16.1545306,16.2920854 C15.6945907,15.7244447 14.9070522,16.0511059 14.3798569,16.6990731 L10.5029108,20.9965415 C9.71320266,21.8078393 9.91062969,22.2148269 10.6981683,23.1867777 L14.5772839,27.5672502 C15.0372238,28.1348909 15.9571036,28.0518868 16.1545306,27.6475767 C16.3519577,27.1602625 16.2847023,26.5122953 15.8269319,25.8643281 L13.3948913,23.2671042 L20.6237579,23.2671042 C23.4506526,23.2671042 25.2904121,23.8393939 25.2904121,26.7559524 C25.2904121,29.6725109 23.1859702,30.8097638 20.6259274,30.8097638 L19.1927094,30.8097638 C18.5353424,30.8097638 17.8128897,31.0534208 17.8128897,31.8647186 C17.8128897,32.6760164 18.4702566,33 19.1927094,33 L20.6215883,33 C23.5572323,33 24.3040259,32.4535691 25.8898062,30.8097638 C26.4459637,30.2332559 27,28.9660552 27,26.6729484 C26.9327446,23.0234472 24.9606439,20.916215 20.5565025,20.916215 L20.558672,20.9135374 Z" id="路径"></path>
                </g>
                <g id="单据-(1)" transform="translate(712.000000, 208.000000)" fill="#FFFFFF" fill-rule="nonzero">
                    <polygon id="路径" points="13 19.0000289 17 19.0000289 17 30 13 30 13 19"></polygon>
                    <polygon id="路径" points="10 24 21 24 21 27 10 27"></polygon>
                    <path d="M34.5864106,14.09375 L32.7769572,12.3 L31.7946824,11.32625 L21.7909897,1.409375 L21.4807976,1.101875 L20.3692762,0 L6.35893648,0 C4.0967384,0.00951300419 2.00996626,1.20972724 0.8788774,3.151875 C0.30789463,4.1061194 0.00447224797,5.19426823 0,6.30375 L0,34.69625 C0.0141660686,38.1718815 2.85287738,40.9859569 6.35893648,41 L28.6410635,41 C32.1471226,40.9859569 34.9858339,38.1718815 35,34.69625 L35,14.50375 L34.5864106,14.09375 Z M21.661743,5.8425 L28.2791728,12.3 L24.9704579,12.3 C23.2144861,12.3 21.7909897,10.8888575 21.7909897,9.148125 L21.661743,5.8425 Z M31.6912851,29.16125 L31.6912851,34.670625 C31.6912851,36.4113575 30.2677887,37.8225 28.5118168,37.8225 L6.35893648,37.8225 C4.60296466,37.8225 3.17946824,36.4113575 3.17946824,34.670625 L3.17946824,6.30375 C3.17946824,4.5630175 4.60296466,3.151875 6.35893648,3.151875 L18.6115214,3.151875 L18.6115214,9.148125 C18.6677894,12.5936987 21.494291,15.3615 24.9704579,15.375 L31.8205318,15.375 L31.6912851,29.16125 Z" id="形状"></path>
                </g>
                <g id="扫描" transform="translate(1108.000000, 211.000000)" fill="#FFFFFF" fill-rule="nonzero">
                    <path d="M1.27281054,14 C2.54539211,14 2.54539211,12.727186 2.54539211,12.727186 L2.54539211,5.10869389 C2.54539211,3.69355308 3.69079564,2.54539908 5.10867993,2.54539908 L12.7271895,2.54539908 C12.7271895,2.54539908 14,2.54539908 14,1.27281405 C14,0 12.7271895,3.78968597e-08 12.7271895,3.78968597e-08 L5.10612342,0 C2.28321382,0 0,2.2857766 0,5.10613733 L0,12.727186 C2.90309575e-16,12.727186 0,14 1.27281054,14 L1.27281054,14 Z" id="路径"></path>
                    <path d="M6,18.5 C6,19.3280333 6.67195291,20 7.49982292,20 L31.5001771,20 C32.3280471,20 33,19.3280333 33,18.5 C33,17.6719667 32.3280471,17 31.5001771,17 L7.49985956,17 C6.67195291,17 6,17.671929 6,18.5 L6,18.5 Z" id="路径"></path>
                    <path d="M32.8938627,0 L25.272814,0 C25.272814,0 24,0 24,1.27281054 C24,2.54539211 25.272814,2.54539211 25.272814,2.54539211 L32.8913061,2.54539211 C34.3091943,2.54539211 35.4546009,3.69350481 35.4546009,5.10867993 L35.4546009,12.7271895 C35.4546009,12.7271895 35.4546009,14 36.727186,14 C38,14 38,12.7271895 38,12.7271895 L38,5.10612342 C38,2.28577037 35.7167418,0 32.8938627,0 L32.8938627,0 Z" id="路径"></path>
                    <path d="M12.7272242,35.454601 L5.10869386,35.454601 C3.6908057,35.454601 2.54539904,34.3064851 2.54539904,32.8913061 L2.54539904,25.272814 C2.54539904,25.272814 2.54539904,24 1.27281401,24 C0,24 0,25.272814 0,25.272814 L0,32.8938627 C0,35.7142234 2.28322004,38 5.10613733,38 L12.727186,38 C12.727186,38 14,38 14,36.727186 C14.0000381,35.454601 12.7272242,35.454601 12.7272242,35.454601 L12.7272242,35.454601 Z" id="路径"></path>
                    <path d="M36.727186,24 C35.454601,24 35.454601,25.272814 35.454601,25.272814 L35.454601,32.8913061 C35.454601,34.306447 34.3091943,35.454601 32.8913061,35.454601 L25.272814,35.454601 C25.272814,35.454601 24,35.454601 24,36.727186 C24,38 25.272814,38 25.272814,38 L32.8938627,38 C35.7167418,38 38,35.7142234 38,32.8938627 L38,25.272814 C38,25.272814 38,24 36.727186,24 L36.727186,24 Z" id="路径"></path>
                </g>
                <g id="拣货单-(1)" transform="translate(926.000000, 208.000000)" fill="#FFFFFF" fill-rule="nonzero">
                    <path d="M34.675,28 L24.175,28 C23.45,28 22.875,28.5333333 22.875,29.1777778 C22.875,29.8222222 23.475,30.3333333 24.175,30.3333333 L34.675,30.3333333 C35.4,30.3333333 36,29.8 36,29.1777778 C36,28.5111111 35.4,28 34.675,28 Z M34.675,32.6666667 L16.3,32.6666667 C15.575,32.6666667 15,33.2 15,33.8222222 C15,34.4666667 15.6,35 16.3,35 L34.675,35 C35.4,35 36,34.4666667 36,33.8222222 C36,33.1777778 35.4,32.6666667 34.675,32.6666667 Z" id="形状"></path>
                    <path d="M40.2243996,9.51881698 L26.3746064,4.91120712 C26.0746108,4.81158313 25.7746153,4.88630112 25.5496187,5.11045512 C24.6746317,5.98216509 25.0246265,7.45161904 26.199609,7.85011503 L37.8744347,11.7354509 C38.1494306,11.8350749 38.0994314,12.2335709 37.7994358,12.2335709 L3.74994403,12.2335709 C3.47494814,12.2335709 3.37494963,11.8599809 3.6249459,11.7354509 L21.6996761,2.71947919 C22.4746646,2.3209832 22.4996642,1.25002524 21.9996716,0.627375255 L21.8496739,0.47793926 C21.3496813,-0.0201807246 20.5746929,-0.144710721 19.9247026,0.179067269 L1.44997836,9.39428698 C0.549991791,9.84259497 0,10.7392109 0,11.7354509 L0,35.7697402 C0,37.1395701 0.574991418,38.4844941 1.54997687,39.455828 C2.52496231,40.452068 3.84994254,41 5.24992164,41 L36.7494515,41 C38.1494306,41 39.4744108,40.452068 40.4493963,39.455828 C41.4493814,38.4844941 41.9993731,37.1644761 41.9993731,35.7697402 L41.9993731,12.0094169 C42.0243728,10.8886469 41.2993836,9.86750097 40.2243996,9.51881698 Z M38.9494187,34.7984062 C38.9494187,36.4920141 37.5494396,37.8867501 35.8494649,37.8867501 L6.12490858,37.8867501 C4.42493396,37.8867501 3.02495485,36.4920141 3.02495485,34.7984062 L3.02495485,16.3679668 C3.02495485,15.7453168 3.52494739,15.2222908 4.17493769,15.2222908 L37.8244355,15.2222908 C38.4494261,15.2222908 38.9744183,15.7204108 38.9744183,16.3679668 L38.9744183,34.7984062 L38.9494187,34.7984062 Z" id="形状"></path>
                </g>
                <g id="分配" transform="translate(606.000000, 354.000000)" fill="#FFFFFF" fill-rule="nonzero">
                    <path d="M39.375,25.698 L35.202,25.698 L35.202,20.082 C35.2027989,19.7332612 35.0646166,19.3985758 34.8180204,19.1519796 C34.5714242,18.9053834 34.2367388,18.7672011 33.888,18.768 L22.314,18.768 L22.314,16.143 L26.484,16.143 C27.1807129,16.1437962 27.8491629,15.8675861 28.3420949,15.3752168 C28.8350269,14.8828474 29.1120004,14.2147134 29.112,13.518 L29.112,2.62500001 C29.112,1.17525255 27.9367475,2.26700992e-08 26.487,0 L15.51,0 C14.0602525,1.19886299e-15 12.885,1.17525254 12.885,2.62500001 L12.885,13.623 C12.885,15.072 14.061,16.248 15.51,16.248 L19.683,16.248 L19.683,18.873 L8.13299998,18.873 C7.59931326,18.8802192 7.11879147,19.1978324 6.903,19.686 C6.87530698,19.851852 6.87530698,20.0211481 6.903,20.187 L6.903,25.698 L2.62199999,25.698 C1.17342423,25.6996555 -9.46024252e-07,26.8744233 0,28.323 L0,39.375 C0,40.824 1.17600001,42 2.62500001,42 L13.623,42 C15.0727475,42 16.248,40.8247474 16.248,39.375 L16.248,28.323 C16.248,26.8732526 15.0727475,25.698 13.623,25.698 L9.44999998,25.698 L9.44999998,21.393 L32.577,21.393 L32.577,25.698 L28.377,25.698 C26.9272525,25.698 25.752,26.8732526 25.752,28.323 L25.752,39.375 C25.752,40.824 26.928,42 28.377,42 L39.375,42 C40.8247475,42 42,40.8247475 42,39.375 L42,28.323 C42,26.8732525 40.8247475,25.698 39.375,25.698 L39.375,25.698 Z M13.623,28.323 L13.623,39.375 L2.62500001,39.375 L2.62500001,28.323 L13.623,28.323 Z M15.513,13.623 L15.513,2.62500001 L26.49,2.62500001 L26.49,13.623 L15.51,13.623 L15.513,13.623 Z M39.375,39.375 L28.377,39.375 L28.377,28.323 L39.375,28.323 L39.375,39.375 Z" id="形状"></path>
                </g>
                <path d="M82.168,289.502 L83.498,289.502 L83.498,291.014 L87.964,291.014 L87.964,292.274 L83.498,292.274 L83.498,294.052 L87.166,294.052 L87.166,299.428 L85.85,299.428 L85.85,298.812 L80.334,298.812 L80.334,299.428 L79.018,299.428 L79.018,294.052 L82.168,294.052 L82.168,289.502 Z M80.334,297.566 L85.85,297.566 L85.85,295.284 L80.334,295.284 L80.334,297.566 Z M82.546,286.45 C82.77,286.856 82.966,287.304 83.162,287.78 L88.272,287.78 L88.272,289.068 L78.108,289.068 L78.108,291.98 C78.066,295.06 77.562,297.524 76.596,299.372 L75.588,298.476 C76.358,296.922 76.764,294.752 76.792,291.98 L76.792,287.78 L81.804,287.78 C81.608,287.374 81.384,287.01 81.16,286.674 L82.546,286.45 Z M91.156,286.548 L92.43,286.814 C92.332,287.22 92.234,287.612 92.122,287.99 L94.334,287.99 L94.334,289.25 L91.716,289.25 C91.52,289.754 91.324,290.244 91.1,290.72 L93.97,290.72 L93.97,291.924 L92.92,291.924 L92.92,293.45 L94.53,293.45 L94.53,294.682 L92.92,294.682 L92.92,297.524 C93.424,297.328 93.928,297.076 94.432,296.782 L94.642,297.944 C93.802,298.42 92.822,298.812 91.702,299.12 L91.156,297.986 C91.464,297.86 91.632,297.678 91.632,297.44 L91.632,294.682 L89.91,294.682 L89.91,293.45 L91.632,293.45 L91.632,291.924 L90.932,291.924 L90.932,291.056 C90.792,291.308 90.666,291.546 90.54,291.77 L89.448,291.084 C90.26,289.684 90.82,288.172 91.156,286.548 Z M94.712,288.088 L97.932,288.088 L97.932,286.562 L99.178,286.562 L99.178,288.088 L100.788,288.088 C100.522,287.724 100.214,287.346 99.85,286.94 L100.732,286.408 C101.208,286.94 101.586,287.402 101.852,287.794 L101.432,288.088 L102.496,288.088 L102.496,289.32 L99.178,289.32 L99.178,290.398 L101.992,290.398 L101.992,297.986 C101.992,298.896 101.558,299.358 100.69,299.358 L99.92,299.358 L99.612,298.168 L100.312,298.224 C100.606,298.224 100.76,298.042 100.76,297.706 L100.76,296.474 L99.178,296.474 L99.178,299.372 L97.932,299.372 L97.932,296.474 L96.42,296.474 L96.42,299.414 L95.188,299.414 L95.188,290.398 L97.932,290.398 L97.932,289.32 L94.712,289.32 L94.712,288.088 Z M97.932,291.602 L96.42,291.602 L96.42,292.918 L97.932,292.918 L97.932,291.602 Z M96.42,294.066 L96.42,295.312 L97.932,295.312 L97.932,294.066 L96.42,294.066 Z M100.76,295.312 L100.76,294.066 L99.178,294.066 L99.178,295.312 L100.76,295.312 Z M100.76,292.918 L100.76,291.602 L99.178,291.602 L99.178,292.918 L100.76,292.918 Z M108.32,291.938 L108.32,293.282 C107.83,293.534 107.34,293.772 106.836,293.996 L106.836,297.972 C106.836,298.868 106.388,299.33 105.506,299.33 L104.218,299.33 L103.91,298.042 C104.302,298.084 104.68,298.112 105.044,298.112 C105.38,298.112 105.562,297.944 105.562,297.636 L105.562,294.528 C105.002,294.738 104.428,294.934 103.854,295.116 L103.518,293.8 C104.218,293.632 104.89,293.436 105.562,293.198 L105.562,290.258 L103.728,290.258 L103.728,288.984 L105.562,288.984 L105.562,286.562 L106.836,286.562 L106.836,288.984 L108.306,288.984 L108.306,290.258 L106.836,290.258 L106.836,292.68 C107.34,292.456 107.83,292.204 108.32,291.938 Z M111.442,288.718 C111.008,288.76 110.574,288.788 110.14,288.816 L110.14,291.966 C110.056,295.074 109.426,297.566 108.236,299.414 L107.27,298.406 C108.264,296.852 108.796,294.71 108.88,291.966 L108.88,287.738 C111.288,287.682 113.43,287.276 115.306,286.52 L115.964,287.724 C115.642,287.836 115.32,287.934 115.012,288.032 C115.054,292.19 115.572,295.676 116.58,298.504 L115.628,299.442 C114.564,296.362 113.99,292.652 113.934,288.312 C113.514,288.41 113.08,288.494 112.66,288.564 L112.66,299.414 L111.442,299.414 L111.442,288.718 Z M119.016,288.62 L121.844,288.62 C121.452,288.018 121.046,287.472 120.612,286.996 L121.718,286.464 C122.194,286.982 122.642,287.556 123.062,288.2 L122.222,288.62 L125.05,288.62 C125.498,287.92 125.876,287.178 126.198,286.394 L127.486,286.856 C127.178,287.5 126.828,288.088 126.436,288.62 L128.984,288.62 L128.984,294.626 L124.658,294.626 L124.658,295.732 L130.258,295.732 L130.258,296.992 L124.658,296.992 L124.658,299.498 L123.342,299.498 L123.342,296.992 L117.742,296.992 L117.742,295.732 L123.342,295.732 L123.342,294.626 L119.016,294.626 L119.016,288.62 Z M127.696,293.45 L127.696,292.162 L124.658,292.162 L124.658,293.45 L127.696,293.45 Z M123.342,293.45 L123.342,292.162 L120.304,292.162 L120.304,293.45 L123.342,293.45 Z M120.304,291.042 L123.342,291.042 L123.342,289.782 L120.304,289.782 L120.304,291.042 Z M124.658,289.782 L124.658,291.042 L127.696,291.042 L127.696,289.782 L124.658,289.782 Z" id="店铺抓单" fill="#666666" fill-rule="nonzero"></path>
                <path d="M290.57,294.192 L290.57,295.494 L293.384,295.494 L293.384,294.192 L290.57,294.192 Z M293.384,296.712 L290.57,296.712 L290.57,297.468 L289.268,297.468 L289.268,290.482 L293.384,290.482 L293.384,289.264 L294.7,289.264 L294.7,290.482 L298.858,290.482 L298.858,297.426 L297.556,297.426 L297.556,296.712 L294.7,296.712 L294.7,299.484 L293.384,299.484 L293.384,296.712 Z M294.7,295.494 L297.556,295.494 L297.556,294.192 L294.7,294.192 L294.7,295.494 Z M297.556,293.03 L297.556,291.714 L294.7,291.714 L294.7,293.03 L297.556,293.03 Z M293.384,291.714 L290.57,291.714 L290.57,293.03 L293.384,293.03 L293.384,291.714 Z M299.936,287.472 L299.936,290.118 L298.648,290.118 L298.648,288.69 L289.296,288.69 L289.296,290.188 L288.008,290.188 L288.008,287.472 L293.244,287.472 C293.118,287.164 292.992,286.884 292.852,286.618 L294.266,286.394 C294.378,286.716 294.504,287.08 294.616,287.472 L299.936,287.472 Z M303.016,288.62 L305.844,288.62 C305.452,288.018 305.046,287.472 304.612,286.996 L305.718,286.464 C306.194,286.982 306.642,287.556 307.062,288.2 L306.222,288.62 L309.05,288.62 C309.498,287.92 309.876,287.178 310.198,286.394 L311.486,286.856 C311.178,287.5 310.828,288.088 310.436,288.62 L312.984,288.62 L312.984,294.626 L308.658,294.626 L308.658,295.732 L314.258,295.732 L314.258,296.992 L308.658,296.992 L308.658,299.498 L307.342,299.498 L307.342,296.992 L301.742,296.992 L301.742,295.732 L307.342,295.732 L307.342,294.626 L303.016,294.626 L303.016,288.62 Z M311.696,293.45 L311.696,292.162 L308.658,292.162 L308.658,293.45 L311.696,293.45 Z M307.342,293.45 L307.342,292.162 L304.304,292.162 L304.304,293.45 L307.342,293.45 Z M304.304,291.042 L307.342,291.042 L307.342,289.782 L304.304,289.782 L304.304,291.042 Z M308.658,289.782 L308.658,291.042 L311.696,291.042 L311.696,289.782 L308.658,289.782 Z" id="审单" fill="#666666" fill-rule="nonzero"></path>
                <path d="M476.856,286.968 L485.046,286.968 L485.046,288.228 C484.094,288.844 483.016,289.432 481.826,290.006 L481.826,290.706 L483.45,290.706 L483.45,291.924 L481.826,291.924 L481.826,292.932 L483.716,292.932 L483.716,294.164 L481.826,294.164 L481.826,295.172 L484.318,295.172 L484.318,296.432 L481.826,296.432 L481.826,298.154 C481.826,299.008 481.406,299.442 480.594,299.442 L478.97,299.442 L478.634,298.21 C479.082,298.238 479.586,298.252 480.118,298.252 C480.37,298.252 480.496,298.07 480.496,297.706 L480.496,296.432 L477.892,296.432 L477.892,295.172 L480.496,295.172 L480.496,294.164 L478.396,294.164 L478.396,292.932 L480.496,292.932 L480.496,291.924 L478.69,291.924 L478.69,290.706 L480.496,290.706 L480.496,289.404 C481.574,288.928 482.428,288.536 483.044,288.228 L476.856,288.228 L476.856,286.968 Z M486.46,289.964 L487.552,290.636 C487.216,291.224 486.88,291.714 486.53,292.106 C486.25,292.414 485.9,292.736 485.466,293.072 C485.816,294.85 486.488,296.404 487.496,297.748 L486.558,298.686 C484.808,296.25 483.926,293.31 483.926,289.852 L485.144,289.852 C485.144,290.51 485.172,291.154 485.256,291.77 C485.382,291.63 485.508,291.49 485.634,291.336 C485.914,290.958 486.194,290.496 486.46,289.964 Z M474.784,290.3 L478.116,290.3 L478.116,291.448 C477.948,294.556 477.01,296.978 475.33,298.714 L474.476,297.678 C475.876,296.166 476.702,294.136 476.94,291.56 L474.784,291.56 L474.784,290.3 Z M489.89,286.632 C490.814,287.374 491.612,288.102 492.27,288.83 L491.304,289.768 C490.758,289.068 489.974,288.326 488.966,287.514 L489.89,286.632 Z M497.912,299.204 C497.156,299.204 496.344,299.19 495.462,299.176 C494.566,299.162 493.838,299.078 493.264,298.938 C492.704,298.77 492.228,298.434 491.808,297.958 C491.626,297.72 491.458,297.608 491.29,297.608 C490.996,297.608 490.492,298.238 489.778,299.498 L488.798,298.588 C489.498,297.454 490.142,296.74 490.702,296.46 L490.702,292.498 L488.812,292.498 L488.812,291.266 L491.948,291.266 L491.948,296.572 C492.004,296.628 492.06,296.684 492.13,296.768 C492.452,297.146 492.788,297.426 493.124,297.608 C493.53,297.804 494.146,297.93 494.958,297.958 C495.742,297.972 496.666,297.986 497.73,297.986 C498.416,297.986 499.116,297.972 499.83,297.958 C500.53,297.944 501.076,297.916 501.468,297.888 L501.132,299.204 L497.912,299.204 Z M493.698,287.206 L500.25,287.206 L500.25,288.438 L493.698,288.438 L493.698,287.206 Z M492.816,290.37 L501.272,290.37 L501.272,291.63 L496.96,291.63 C496.288,293.296 495.658,294.57 495.056,295.452 C496.624,295.256 497.94,295.032 499.018,294.752 C498.71,294.052 498.388,293.394 498.052,292.764 L499.13,292.414 C499.858,293.688 500.516,295.144 501.09,296.796 L499.9,297.104 C499.76,296.684 499.62,296.292 499.48,295.9 C497.968,296.278 495.98,296.586 493.544,296.838 L493.208,295.69 C493.768,295.522 494.58,294.164 495.63,291.63 L492.816,291.63 L492.816,290.37 Z M506.256,294.22 C505.99,294.402 505.724,294.584 505.444,294.752 L504.618,293.688 L504.618,299.344 L503.344,299.344 L503.344,290.258 L506.256,290.258 C506.06,289.754 505.85,289.264 505.598,288.816 L502.756,288.816 L502.756,287.542 L508.258,287.542 C508.132,287.206 507.992,286.884 507.852,286.604 L509.322,286.38 C509.462,286.73 509.588,287.122 509.728,287.542 L515.244,287.542 L515.244,288.816 L512.304,288.816 C512.08,289.348 511.856,289.824 511.618,290.258 L514.628,290.258 L514.628,297.762 C514.628,298.826 514.166,299.372 513.256,299.372 L511.828,299.372 L511.492,298.168 L512.836,298.21 C513.172,298.21 513.354,297.958 513.354,297.482 L513.354,291.434 L504.618,291.434 L504.618,293.632 C505.738,293.016 506.662,292.288 507.418,291.462 L508.356,292.288 C507.782,292.96 507.124,293.576 506.382,294.122 L511.73,294.122 L511.73,297.818 L506.256,297.818 L506.256,294.22 Z M510.442,296.642 L510.442,295.312 L507.544,295.312 L507.544,296.642 L510.442,296.642 Z M510.484,291.448 C511.604,292.218 512.556,292.988 513.326,293.744 L512.332,294.724 C511.688,293.968 510.764,293.17 509.588,292.302 L510.484,291.448 Z M507.614,290.258 L510.162,290.258 C510.414,289.782 510.638,289.306 510.848,288.816 L507.054,288.816 C507.25,289.25 507.446,289.726 507.614,290.258 Z M523.826,288.76 L521.852,288.76 L521.852,287.486 L528.978,287.486 C528.978,292.302 528.894,295.27 528.754,296.39 C528.586,298.266 527.816,299.218 526.458,299.218 C526.15,299.218 525.604,299.19 524.82,299.148 L524.498,297.93 C525.17,297.972 525.758,298 526.234,298 C526.934,298 527.354,297.258 527.466,295.788 C527.55,295.088 527.592,292.736 527.62,288.76 L525.142,288.76 L525.142,289.838 C525.086,294.234 523.882,297.44 521.502,299.456 L520.48,298.56 C522.664,296.74 523.784,293.842 523.826,289.838 L523.826,288.76 Z M518.436,294.136 C517.96,294.626 517.442,295.13 516.882,295.634 L516.49,294.29 C518.198,292.75 519.346,291.252 519.934,289.796 L516.812,289.796 L516.812,288.592 L518.548,288.592 C518.324,287.99 518.072,287.402 517.792,286.828 L519.08,286.492 C519.416,287.262 519.682,287.962 519.864,288.592 L521.236,288.592 L521.236,289.67 C520.9,290.65 520.396,291.616 519.71,292.582 L519.71,292.61 C519.906,292.75 520.102,292.876 520.284,293.016 C520.718,292.68 521.138,292.204 521.558,291.588 L522.356,292.386 C521.964,292.918 521.544,293.352 521.096,293.674 C521.446,293.982 521.782,294.29 522.09,294.626 L521.376,295.746 C520.816,295.018 520.27,294.388 519.71,293.856 L519.71,299.428 L518.436,299.428 L518.436,294.136 Z M532.142,286.436 L533.444,286.548 C533.332,287.444 533.22,288.298 533.108,289.082 L535.096,289.082 L535.096,289.824 C535.012,292.064 534.648,293.996 534.004,295.648 C534.62,296.292 535.138,296.88 535.53,297.398 L534.634,298.448 C534.284,297.972 533.878,297.482 533.402,296.95 C532.87,297.93 532.212,298.784 531.428,299.512 L530.588,298.462 C531.372,297.762 532.002,296.922 532.492,295.97 C531.946,295.41 531.358,294.822 530.714,294.206 C531.022,293.03 531.316,291.742 531.568,290.356 L530.588,290.356 L530.588,289.082 L531.778,289.082 C531.904,288.228 532.03,287.346 532.142,286.436 Z M533.052,294.682 C533.5,293.408 533.78,291.966 533.864,290.356 L532.898,290.356 C532.66,291.728 532.408,292.89 532.142,293.814 C532.464,294.122 532.772,294.402 533.052,294.682 Z M542.46,293.31 L542.46,299.456 L541.186,299.456 L541.186,298.672 L537.35,298.672 L537.35,299.456 L536.09,299.456 L536.09,293.31 L542.46,293.31 Z M537.35,297.426 L541.186,297.426 L541.186,294.528 L537.35,294.528 L537.35,297.426 Z M535.614,292.288 L535.404,291.084 C536.09,290.86 537.056,289.334 538.302,286.492 L539.562,286.912 C538.806,288.536 538.05,289.908 537.266,291 C538.61,290.916 539.912,290.776 541.172,290.58 C540.836,289.88 540.486,289.236 540.15,288.634 L541.284,288.088 C542.012,289.306 542.684,290.65 543.328,292.12 L542.11,292.708 C541.97,292.344 541.83,292.008 541.69,291.7 C539.87,291.952 537.84,292.148 535.614,292.288 Z M548.676,286.394 L549.922,286.982 C549.446,288.13 548.83,289.222 548.074,290.244 L548.074,299.47 L546.758,299.47 L546.758,291.798 C546.184,292.386 545.568,292.96 544.91,293.506 L544.49,292.12 C546.38,290.482 547.78,288.578 548.676,286.394 Z M555.326,299.218 L552.708,299.218 C551.588,299.218 551.028,298.658 551.028,297.538 L551.028,293.618 C550.524,293.884 550.006,294.15 549.474,294.402 L548.872,293.142 C549.628,292.806 550.356,292.456 551.028,292.064 L551.028,286.618 L552.358,286.618 L552.358,291.238 C553.73,290.328 554.948,289.292 555.984,288.13 L556.908,289.18 C555.578,290.552 554.066,291.784 552.358,292.848 L552.358,297.356 C552.358,297.748 552.568,297.944 553.016,297.944 L555.102,297.944 C555.424,297.944 555.662,297.832 555.816,297.622 C555.956,297.412 556.054,296.67 556.082,295.382 L557.314,295.788 C557.216,297.398 557.034,298.378 556.782,298.714 C556.516,299.05 556.026,299.218 555.326,299.218 Z" id="承运商初始化" fill="#666666" fill-rule="nonzero"></path>
                <path d="M603.658,431.422 C603.882,431.786 604.092,432.206 604.302,432.668 L609.272,432.668 L609.272,433.97 L599.01,433.97 L599.01,436.98 C598.968,440.088 598.52,442.566 597.652,444.442 L596.546,443.448 C597.26,441.894 597.638,439.738 597.666,436.98 L597.666,432.668 L602.818,432.668 C602.622,432.304 602.398,431.982 602.174,431.674 L603.658,431.422 Z M602.412,434.166 L603.686,434.46 C603.574,434.782 603.476,435.09 603.378,435.384 L608.656,435.384 L608.656,436.546 L602.93,436.546 C602.594,437.33 602.23,438.044 601.838,438.674 L604.008,438.674 L604.008,437.134 L605.324,437.134 L605.324,438.674 L608.348,438.674 L608.348,439.864 L605.324,439.864 L605.324,441.124 L609.398,441.124 L609.398,442.328 L605.324,442.328 L605.324,444.456 L604.008,444.456 L604.008,442.328 L599.108,442.328 L599.108,441.124 L604.008,441.124 L604.008,439.864 L600.494,439.864 L600.214,438.702 C600.676,438.128 601.11,437.414 601.502,436.546 L599.626,436.546 L599.626,435.384 L601.992,435.384 C602.132,434.992 602.272,434.586 602.412,434.166 Z M611.092,432.794 L614.788,432.794 C614.956,432.332 615.096,431.884 615.222,431.436 L616.566,431.59 C616.454,431.996 616.328,432.402 616.202,432.794 L623.188,432.794 L623.188,434.096 L615.684,434.096 C615.166,435.272 614.536,436.378 613.78,437.386 L613.78,444.456 L612.478,444.456 L612.478,438.94 C612.114,439.332 611.736,439.696 611.344,440.046 L610.518,438.982 C612.114,437.568 613.36,435.944 614.242,434.096 L611.092,434.096 L611.092,432.794 Z M614.718,439.374 L618.666,439.374 L618.666,438.24 C619.408,437.82 620.122,437.33 620.808,436.77 L615.782,436.77 L615.782,435.552 L622.474,435.552 L622.474,436.77 C621.732,437.47 620.906,438.142 619.982,438.772 L619.982,439.374 L623.37,439.374 L623.37,440.662 L619.982,440.662 L619.982,442.944 C619.982,443.91 619.506,444.4 618.554,444.4 L616.818,444.4 L616.468,443.14 C616.944,443.168 617.462,443.182 618.022,443.182 C618.442,443.182 618.666,442.958 618.666,442.524 L618.666,440.662 L614.718,440.662 L614.718,439.374 Z M628.9,431.786 L630.048,432.486 C629.404,433.634 628.746,434.586 628.088,435.314 C627.416,436.07 626.492,436.868 625.288,437.708 L624.56,436.546 C625.456,436.042 626.296,435.356 627.08,434.474 C627.724,433.732 628.326,432.836 628.9,431.786 Z M629.306,438.254 L626.688,438.254 L626.688,436.98 L635.158,436.98 C635.102,438.772 635.018,440.214 634.878,441.334 C634.738,442.426 634.514,443.196 634.192,443.63 C633.87,444.05 633.352,444.288 632.638,444.33 L629.992,444.33 L629.628,443.014 C630.454,443.042 631.238,443.07 631.966,443.07 C632.666,443.07 633.142,442.776 633.366,442.188 C633.59,441.572 633.744,440.256 633.814,438.254 L630.65,438.254 C630.314,439.71 629.866,440.872 629.306,441.74 C628.578,442.748 627.5,443.672 626.072,444.484 L625.218,443.378 C626.478,442.706 627.444,441.95 628.088,441.124 C628.606,440.382 629.012,439.43 629.306,438.254 Z M633.156,431.604 C633.926,433.704 635.34,435.37 637.412,436.602 L636.516,437.652 C634.36,436.252 632.848,434.46 631.994,432.262 L633.156,431.604 Z M651.426,440.676 C651.314,442.146 651.146,443.112 650.922,443.56 C650.712,443.994 650.264,444.218 649.564,444.218 L646.666,444.218 C645.966,444.218 645.63,443.742 645.63,442.804 L645.63,436.672 L649.382,436.672 L649.382,433.27 L645.49,433.27 L645.49,432.01 L650.656,432.01 L650.656,437.96 L646.932,437.96 L646.932,442.272 C646.932,442.72 647.03,442.944 647.24,442.972 L649.34,442.972 C649.648,442.972 649.844,442.776 649.928,442.398 C650.012,442.02 650.068,441.306 650.096,440.256 L651.426,440.676 Z M638.644,431.996 L645.112,431.996 L645.112,433.256 L643.418,433.256 L643.418,434.586 L644.93,434.586 L644.93,444.386 L643.754,444.386 L643.754,443.714 L640.114,443.714 L640.114,444.386 L638.938,444.386 L638.938,434.586 L640.422,434.586 L640.422,433.256 L638.644,433.256 L638.644,431.996 Z M640.114,442.468 L643.754,442.468 L643.754,441.362 L640.114,441.362 L640.114,442.468 Z M640.702,435.79 L640.114,435.79 L640.114,439.094 C640.492,438.506 640.688,437.666 640.702,436.56 L640.702,435.79 Z M640.114,439.318 L640.114,440.158 L643.754,440.158 L643.754,439.206 L643.222,439.206 C642.564,439.206 642.242,438.856 642.242,438.184 L642.242,435.79 L641.57,435.79 L641.57,436.56 C641.556,438.058 641.262,439.15 640.702,439.85 L640.114,439.318 Z M641.556,434.586 L642.284,434.586 L642.284,433.256 L641.556,433.256 L641.556,434.586 Z M643.754,438.198 L643.754,435.79 L643.124,435.79 L643.124,437.918 C643.124,438.1 643.236,438.198 643.474,438.198 L643.754,438.198 Z" id="库存分配" fill="#666666" fill-rule="nonzero"></path>
                <path d="M696.81,292.134 L694.206,292.134 L694.206,297.468 C694.206,297.804 694.388,297.986 694.766,297.986 L697.202,297.986 C697.622,297.986 697.888,297.874 697.986,297.664 C698.098,297.44 698.182,296.964 698.238,296.25 L699.484,296.67 C699.372,297.888 699.204,298.63 698.952,298.882 C698.728,299.106 698.266,299.218 697.594,299.218 L694.192,299.218 C693.31,299.218 692.876,298.798 692.876,297.958 L692.876,291.308 L692.204,291.98 L691.42,290.902 C692.75,289.684 693.968,288.242 695.074,286.59 L696.054,286.59 C697.286,287.878 698.462,289.222 699.554,290.622 L698.686,291.532 C697.482,289.936 696.488,288.704 695.676,287.85 C694.948,288.928 694.136,289.964 693.212,290.958 L698.112,290.958 L698.112,294.822 C698.098,295.592 697.678,295.998 696.838,296.054 C696.292,296.054 695.774,296.04 695.284,296.012 L694.962,294.766 C695.48,294.822 695.928,294.85 696.32,294.85 C696.642,294.85 696.81,294.682 696.81,294.374 L696.81,292.134 Z M700.184,287.752 L701.486,287.752 L701.486,296.39 L700.184,296.39 L700.184,287.752 Z M702.606,299.316 L700.492,299.316 L700.184,298.042 C700.87,298.098 701.528,298.126 702.144,298.126 C702.48,298.126 702.648,297.916 702.648,297.51 L702.648,286.562 L703.978,286.562 L703.978,297.846 C703.978,298.826 703.516,299.316 702.606,299.316 Z M717.362,292.414 L714.394,292.414 L714.394,293.268 L717.558,293.268 L717.558,294.36 L714.394,294.36 L714.394,295.228 L717.964,295.228 L717.964,296.334 L714.394,296.334 L714.394,297.468 L713.106,297.468 L713.106,296.334 L710.04,296.334 L710.04,295.228 L713.106,295.228 L713.106,294.36 L710.474,294.36 L710.474,293.268 L713.106,293.268 L713.106,292.414 L710.768,292.414 L710.768,291.308 L713.106,291.308 L713.106,290.44 L710.082,290.44 L710.082,289.362 L713.106,289.362 L713.106,288.522 L710.768,288.522 L710.768,287.43 L713.106,287.43 L713.106,286.492 L714.394,286.492 L714.394,287.43 L717.362,287.43 L717.362,289.362 L718.202,289.362 L718.202,290.44 L717.362,290.44 L717.362,292.414 Z M714.394,288.522 L714.394,289.362 L716.088,289.362 L716.088,288.522 L714.394,288.522 Z M714.394,290.44 L714.394,291.308 L716.088,291.308 L716.088,290.44 L714.394,290.44 Z M713.456,297.944 C715.038,297.944 716.676,297.902 718.356,297.846 L718.132,299.12 L714.03,299.12 C711.454,299.12 709.62,298.742 708.514,298.014 C708.374,297.916 708.262,297.818 708.178,297.734 C707.73,298.35 707.212,298.882 706.624,299.344 L705.756,298.21 C706.372,297.79 706.876,297.286 707.282,296.698 C706.764,295.914 706.344,294.948 706.008,293.8 L707.128,293.394 C707.366,294.234 707.632,294.948 707.94,295.522 C708.318,294.64 708.542,293.632 708.626,292.512 L706.106,292.512 L706.106,291.504 C706.862,290.524 707.548,289.488 708.192,288.396 L706.106,288.396 L706.106,287.136 L709.676,287.136 L709.676,288.228 C709.046,289.404 708.43,290.426 707.814,291.308 L709.844,291.308 L709.844,292.106 C709.788,293.898 709.438,295.438 708.794,296.726 C708.962,296.894 709.144,297.034 709.34,297.146 C710.25,297.65 711.622,297.916 713.456,297.944 Z M725.608,294.99 L726.77,295.466 C726.28,296.754 725.706,297.874 725.048,298.798 L723.9,298.154 C724.656,297.118 725.216,296.054 725.608,294.99 Z M731.124,294.948 C731.656,295.97 732.132,297.062 732.524,298.238 L731.348,298.756 C730.928,297.468 730.452,296.32 729.948,295.34 L731.124,294.948 Z M727.932,299.33 L726.756,299.33 L726.406,298.084 L727.554,298.14 C727.918,298.14 728.1,297.916 728.1,297.496 L728.1,294.262 L724.782,294.262 L724.502,293.128 C724.768,292.68 725.02,292.19 725.272,291.644 L724.446,291.644 L724.446,290.44 L725.776,290.44 C725.916,290.02 726.07,289.6 726.21,289.152 L724.558,289.152 L724.558,287.906 L726.574,287.906 C726.7,287.444 726.826,286.968 726.952,286.464 L728.226,286.702 C728.114,287.122 728.016,287.528 727.918,287.906 L731.992,287.906 L731.992,289.152 L727.54,289.152 C727.4,289.6 727.246,290.02 727.106,290.44 L729.374,290.44 L729.374,293.086 L732.104,293.086 L732.104,294.262 L729.374,294.262 L729.374,297.902 C729.374,298.854 728.884,299.33 727.932,299.33 Z M726.63,291.644 C726.406,292.162 726.182,292.638 725.958,293.086 L728.1,293.086 L728.1,291.644 L726.63,291.644 Z M721.296,299.288 L720.078,299.288 L719.784,298 C720.148,298.042 720.498,298.07 720.834,298.07 C721.17,298.07 721.338,297.902 721.338,297.566 L721.338,294.556 C720.806,294.752 720.288,294.948 719.756,295.13 L719.42,293.786 C720.078,293.632 720.722,293.436 721.338,293.212 L721.338,290.258 L719.742,290.258 L719.742,288.984 L721.338,288.984 L721.338,286.534 L722.654,286.534 L722.654,288.984 L724.138,288.984 L724.138,290.258 L722.654,290.258 L722.654,292.666 C723.13,292.442 723.592,292.19 724.054,291.938 L724.054,293.282 C723.592,293.534 723.13,293.758 722.654,293.982 L722.654,297.902 C722.654,298.826 722.192,299.288 721.296,299.288 Z M744.354,291.868 L741.274,291.868 C740.322,291.868 739.846,291.434 739.846,290.58 L739.846,290.286 C739.342,290.426 738.838,290.58 738.334,290.72 L737.62,289.67 C738.404,289.46 739.146,289.25 739.846,289.026 L739.846,286.59 L741.148,286.59 L741.148,288.578 C742.618,288.018 743.822,287.402 744.774,286.73 L745.628,287.612 C744.368,288.466 742.87,289.208 741.148,289.838 L741.148,290.314 C741.148,290.594 741.302,290.734 741.624,290.734 L744.102,290.734 C744.354,290.734 744.522,290.678 744.634,290.58 C744.774,290.454 744.872,290.104 744.914,289.516 L746.118,289.908 C746.02,290.86 745.824,291.42 745.544,291.602 C745.278,291.77 744.886,291.868 744.354,291.868 Z M744.704,292.456 L744.704,296.796 L743.36,296.796 L743.36,293.66 L736.934,293.66 L736.934,296.978 L735.604,296.978 L735.604,292.456 L744.704,292.456 Z M741.134,296.684 C742.926,297.16 744.55,297.748 746.02,298.448 L745.278,299.596 C743.71,298.784 742.114,298.154 740.462,297.692 L741.134,296.684 Z M739.51,294.122 L740.798,294.234 C740.602,296.11 740.168,297.342 739.524,297.944 C738.824,298.728 737.172,299.246 734.568,299.47 L734.036,298.266 C736.248,298.154 737.718,297.804 738.418,297.188 C739.034,296.586 739.398,295.564 739.51,294.122 Z M735.8,289.628 C735.268,289.978 734.708,290.314 734.12,290.622 L733.728,289.32 C735.394,288.508 736.626,287.556 737.41,286.478 L738.516,286.996 C738.138,287.57 737.662,288.116 737.088,288.634 L737.088,292.008 L735.8,292.008 L735.8,289.628 Z M749.016,288.62 L751.844,288.62 C751.452,288.018 751.046,287.472 750.612,286.996 L751.718,286.464 C752.194,286.982 752.642,287.556 753.062,288.2 L752.222,288.62 L755.05,288.62 C755.498,287.92 755.876,287.178 756.198,286.394 L757.486,286.856 C757.178,287.5 756.828,288.088 756.436,288.62 L758.984,288.62 L758.984,294.626 L754.658,294.626 L754.658,295.732 L760.258,295.732 L760.258,296.992 L754.658,296.992 L754.658,299.498 L753.342,299.498 L753.342,296.992 L747.742,296.992 L747.742,295.732 L753.342,295.732 L753.342,294.626 L749.016,294.626 L749.016,288.62 Z M757.696,293.45 L757.696,292.162 L754.658,292.162 L754.658,293.45 L757.696,293.45 Z M753.342,293.45 L750.304,293.45 L750.304,292.162 L753.342,292.162 L753.342,293.45 Z M750.304,291.042 L753.342,291.042 L753.342,289.782 L750.304,289.782 L750.304,291.042 Z M754.658,289.782 L754.658,291.042 L757.696,291.042 L757.696,289.782 L754.658,289.782 Z" id="创建拣货单" fill="#666666" fill-rule="nonzero"></path>
                <path d="M1109.81,282.514 L1116.866,282.514 L1116.866,294.106 L1115.522,294.106 L1115.522,293.378 L1109.544,293.378 L1109.544,292.076 L1115.522,292.076 L1115.522,288.478 L1110.188,288.478 L1110.188,287.204 L1115.522,287.204 L1115.522,283.816 L1109.81,283.816 L1109.81,282.514 Z M1109.362,287.078 L1109.362,288.408 C1108.858,288.632 1108.354,288.828 1107.85,289.024 L1107.85,292.888 C1107.85,293.812 1107.388,294.288 1106.492,294.288 L1105.344,294.288 L1105.036,293 C1105.372,293.042 1105.708,293.07 1106.03,293.07 C1106.352,293.07 1106.52,292.888 1106.52,292.552 L1106.52,289.486 C1105.974,289.654 1105.428,289.822 1104.868,289.976 L1104.56,288.702 C1105.218,288.562 1105.876,288.408 1106.52,288.212 L1106.52,285.258 L1104.728,285.258 L1104.728,283.984 L1106.52,283.984 L1106.52,281.534 L1107.85,281.534 L1107.85,283.984 L1109.264,283.984 L1109.264,285.258 L1107.85,285.258 L1107.85,287.75 C1108.354,287.54 1108.858,287.316 1109.362,287.078 Z M1130.95,286.196 L1130.95,294.414 L1129.676,294.414 L1129.676,293.882 L1124.986,293.882 L1124.986,294.414 L1123.712,294.414 L1123.712,286.196 L1130.95,286.196 Z M1124.986,292.65 L1126.722,292.65 L1126.722,290.662 L1124.986,290.662 L1124.986,292.65 Z M1127.954,292.65 L1129.676,292.65 L1129.676,290.662 L1127.954,290.662 L1127.954,292.65 Z M1124.986,289.472 L1126.722,289.472 L1126.722,287.414 L1124.986,287.414 L1124.986,289.472 Z M1127.954,287.414 L1127.954,289.472 L1129.676,289.472 L1129.676,287.414 L1127.954,287.414 Z M1120.31,294.274 L1119.05,294.274 L1118.756,293.014 C1119.134,293.056 1119.498,293.084 1119.848,293.084 C1120.184,293.084 1120.352,292.902 1120.352,292.566 L1120.352,289.556 C1119.82,289.752 1119.288,289.948 1118.756,290.13 L1118.42,288.786 C1119.078,288.618 1119.722,288.422 1120.352,288.198 L1120.352,285.258 L1118.7,285.258 L1118.7,283.97 L1120.352,283.97 L1120.352,281.534 L1121.668,281.534 L1121.668,283.97 L1122.914,283.97 L1122.914,285.258 L1121.668,285.258 L1121.668,287.666 C1122.144,287.442 1122.606,287.204 1123.068,286.952 L1123.068,288.296 C1122.606,288.548 1122.144,288.772 1121.668,288.996 L1121.668,292.902 C1121.668,293.812 1121.206,294.274 1120.31,294.274 Z M1124.986,281.548 L1126.246,281.548 L1126.246,283.032 L1128.374,283.032 L1128.374,281.548 L1129.634,281.548 L1129.634,283.032 L1131.37,283.032 L1131.37,284.278 L1129.634,284.278 L1129.634,285.692 L1128.374,285.692 L1128.374,284.278 L1126.246,284.278 L1126.246,285.678 L1124.986,285.678 L1124.986,284.278 L1123.25,284.278 L1123.25,283.032 L1124.986,283.032 L1124.986,281.548 Z M1135.99,283.606 C1135.822,283.858 1135.654,284.11 1135.486,284.348 L1143.55,284.348 L1143.55,288.968 L1138.02,288.968 C1137.838,289.234 1137.656,289.486 1137.46,289.724 L1143.606,289.724 L1143.606,290.662 C1142.976,291.446 1142.164,292.118 1141.17,292.664 C1142.402,292.958 1143.76,293.126 1145.244,293.182 L1144.936,294.4 C1142.934,294.302 1141.142,293.966 1139.56,293.392 C1137.908,293.98 1135.92,294.344 1133.596,294.484 L1133.064,293.336 C1134.954,293.266 1136.592,293.056 1137.964,292.706 C1137.166,292.286 1136.424,291.81 1135.752,291.264 C1135.192,291.642 1134.576,291.992 1133.918,292.3 L1133.232,291.166 C1134.716,290.578 1135.808,289.85 1136.536,288.968 L1134.898,288.968 L1134.898,285.048 C1134.478,285.496 1134.016,285.902 1133.526,286.28 L1132.728,285.23 C1134.128,284.18 1135.08,282.892 1135.584,281.38 L1136.886,281.618 C1136.788,281.912 1136.69,282.192 1136.578,282.472 L1144.586,282.472 L1144.586,283.606 L1135.99,283.606 Z M1139.574,292.188 C1140.526,291.81 1141.31,291.348 1141.94,290.788 L1136.844,290.788 C1137.656,291.348 1138.566,291.824 1139.574,292.188 Z M1142.262,287.932 L1142.262,287.134 L1136.2,287.134 L1136.2,287.932 L1142.262,287.932 Z M1136.2,286.154 L1142.262,286.154 L1142.262,285.37 L1136.2,285.37 L1136.2,286.154 Z M1149.808,287.666 L1149.808,294.442 L1148.534,294.442 L1148.534,287.974 C1148.128,289.178 1147.624,290.298 1147.008,291.306 L1146.462,289.934 C1147.386,288.618 1148.044,287.106 1148.464,285.426 L1146.714,285.426 L1146.714,284.152 L1148.534,284.152 L1148.534,281.534 L1149.808,281.534 L1149.808,284.152 L1151.348,284.152 L1151.348,285.426 L1149.808,285.426 L1149.808,286.182 C1150.452,286.896 1151.096,287.694 1151.754,288.576 L1151.012,289.71 C1150.55,288.898 1150.144,288.212 1149.808,287.666 Z M1151.614,282.948 L1154.932,282.948 C1154.75,282.5 1154.554,282.094 1154.33,281.73 L1155.688,281.506 C1155.884,281.926 1156.066,282.416 1156.234,282.948 L1159.286,282.948 L1159.286,284.166 L1155.45,284.166 C1154.764,285.356 1154.162,286.224 1153.644,286.77 C1154.4,286.742 1155.156,286.686 1155.912,286.616 C1156.248,286.126 1156.556,285.622 1156.836,285.09 L1157.914,285.664 C1156.514,288.45 1154.47,290.34 1151.768,291.348 L1151.04,290.242 C1152.594,289.696 1153.91,288.856 1154.988,287.736 C1154.092,287.792 1153.14,287.834 1152.146,287.876 L1151.88,286.798 C1151.992,286.77 1152.076,286.728 1152.132,286.686 C1152.636,286.364 1153.28,285.524 1154.078,284.166 L1151.614,284.166 L1151.614,282.948 Z M1156.15,291.754 C1154.834,292.916 1153.308,293.798 1151.572,294.414 L1150.844,293.28 C1154.092,292.216 1156.514,290.186 1158.138,287.162 L1159.244,287.736 C1158.6,288.94 1157.844,290.018 1156.976,290.942 C1157.928,291.782 1158.754,292.608 1159.44,293.448 L1158.46,294.428 C1157.886,293.588 1157.116,292.692 1156.15,291.754 Z" id="扫描复核" fill="#666666" fill-rule="nonzero"></path>
                <g id="05" transform="translate(1087.000000, 327.000000)">
                    <ellipse id="椭圆形" fill="#8E9EF2" cx="40" cy="41" rx="40" ry="41"></ellipse>
                    <ellipse id="椭圆形" fill="#A0B0FF" cx="40" cy="41" rx="35" ry="36"></ellipse>
                </g>
                <path d="M1104.658,427.204 L1117.328,427.204 L1117.328,428.52 L1104.658,428.52 L1104.658,427.204 Z M1119.358,426.77 L1118.434,426.182 C1119.05,424.726 1119.498,423.144 1119.764,421.464 L1121.024,421.73 C1120.94,422.164 1120.842,422.584 1120.758,422.99 L1122.676,422.99 L1122.676,424.264 L1120.436,424.264 C1120.268,424.824 1120.086,425.342 1119.89,425.846 L1122.676,425.846 L1122.676,427.022 L1121.556,427.022 L1121.556,428.464 L1122.886,428.464 L1122.886,428.94 L1123.754,428.618 C1123.894,429.29 1124.09,429.892 1124.37,430.452 C1124.58,429.612 1124.72,428.688 1124.776,427.666 L1123.152,427.666 L1123.152,426.756 C1123.67,425.86 1124.146,424.908 1124.58,423.872 L1123.138,423.872 L1123.138,422.752 L1125.756,422.752 L1125.756,423.83 C1125.336,424.894 1124.916,425.818 1124.51,426.602 L1125.84,426.602 L1125.84,427.302 C1125.812,429.01 1125.588,430.48 1125.196,431.684 C1125.518,432.048 1125.882,432.314 1126.288,432.51 C1126.904,432.79 1127.87,432.972 1129.172,433.028 C1129.984,433.028 1130.754,433 1131.482,432.958 L1131.244,434.218 L1129.816,434.218 C1127.688,434.19 1126.232,433.938 1125.462,433.462 C1125.182,433.28 1124.93,433.084 1124.706,432.86 C1124.398,433.434 1124.062,433.938 1123.67,434.372 L1122.774,433.49 C1123.222,433.028 1123.586,432.468 1123.894,431.824 C1123.474,431.152 1123.138,430.354 1122.886,429.416 L1122.886,429.668 L1121.556,429.668 L1121.556,432.496 C1121.962,432.272 1122.368,431.978 1122.76,431.642 L1122.97,432.762 C1122.242,433.294 1121.402,433.742 1120.45,434.106 L1119.918,433 C1120.198,432.888 1120.352,432.706 1120.352,432.468 L1120.352,429.668 L1118.882,429.668 L1118.882,428.464 L1120.352,428.464 L1120.352,427.022 L1119.358,427.022 L1119.358,426.77 Z M1130.726,427.568 L1128.78,427.568 L1128.78,428.422 L1130.824,428.422 L1130.824,429.444 L1128.78,429.444 L1128.78,430.34 L1131.174,430.34 L1131.174,431.418 L1128.78,431.418 L1128.78,432.566 L1127.59,432.566 L1127.59,431.418 L1125.868,431.418 L1125.868,430.34 L1127.59,430.34 L1127.59,429.444 L1126.218,429.444 L1126.218,428.422 L1127.59,428.422 L1127.59,427.568 L1126.344,427.568 L1126.344,426.504 L1127.59,426.504 L1127.59,425.622 L1125.854,425.622 L1125.854,424.558 L1127.59,424.558 L1127.59,423.62 L1126.316,423.62 L1126.316,422.556 L1127.59,422.556 L1127.59,421.604 L1128.78,421.604 L1128.78,422.556 L1130.726,422.556 L1130.726,424.558 L1131.3,424.558 L1131.3,425.622 L1130.726,425.622 L1130.726,427.568 Z M1128.78,423.62 L1128.78,424.558 L1129.62,424.558 L1129.62,423.62 L1128.78,423.62 Z M1128.78,425.622 L1128.78,426.504 L1129.62,426.504 L1129.62,425.622 L1128.78,425.622 Z M1135.99,423.606 C1135.822,423.858 1135.654,424.11 1135.486,424.348 L1143.55,424.348 L1143.55,428.968 L1138.02,428.968 C1137.838,429.234 1137.656,429.486 1137.46,429.724 L1143.606,429.724 L1143.606,430.662 C1142.976,431.446 1142.164,432.118 1141.17,432.664 C1142.402,432.958 1143.76,433.126 1145.244,433.182 L1144.936,434.4 C1142.934,434.302 1141.142,433.966 1139.56,433.392 C1137.908,433.98 1135.92,434.344 1133.596,434.484 L1133.064,433.336 C1134.954,433.266 1136.592,433.056 1137.964,432.706 C1137.166,432.286 1136.424,431.81 1135.752,431.264 C1135.192,431.642 1134.576,431.992 1133.918,432.3 L1133.232,431.166 C1134.716,430.578 1135.808,429.85 1136.536,428.968 L1134.898,428.968 L1134.898,425.048 C1134.478,425.496 1134.016,425.902 1133.526,426.28 L1132.728,425.23 C1134.128,424.18 1135.08,422.892 1135.584,421.38 L1136.886,421.618 C1136.788,421.912 1136.69,422.192 1136.578,422.472 L1144.586,422.472 L1144.586,423.606 L1135.99,423.606 Z M1139.574,432.188 C1140.526,431.81 1141.31,431.348 1141.94,430.788 L1136.844,430.788 C1137.656,431.348 1138.566,431.824 1139.574,432.188 Z M1142.262,427.932 L1142.262,427.134 L1136.2,427.134 L1136.2,427.932 L1142.262,427.932 Z M1136.2,426.154 L1142.262,426.154 L1142.262,425.37 L1136.2,425.37 L1136.2,426.154 Z M1149.808,427.666 L1149.808,434.442 L1148.534,434.442 L1148.534,427.974 C1148.128,429.178 1147.624,430.298 1147.008,431.306 L1146.462,429.934 C1147.386,428.618 1148.044,427.106 1148.464,425.426 L1146.714,425.426 L1146.714,424.152 L1148.534,424.152 L1148.534,421.534 L1149.808,421.534 L1149.808,424.152 L1151.348,424.152 L1151.348,425.426 L1149.808,425.426 L1149.808,426.182 C1150.452,426.896 1151.096,427.694 1151.754,428.576 L1151.012,429.71 C1150.55,428.898 1150.144,428.212 1149.808,427.666 Z M1151.614,422.948 L1154.932,422.948 C1154.75,422.5 1154.554,422.094 1154.33,421.73 L1155.688,421.506 C1155.884,421.926 1156.066,422.416 1156.234,422.948 L1159.286,422.948 L1159.286,424.166 L1155.45,424.166 C1154.764,425.356 1154.162,426.224 1153.644,426.77 C1154.4,426.742 1155.156,426.686 1155.912,426.616 C1156.248,426.126 1156.556,425.622 1156.836,425.09 L1157.914,425.664 C1156.514,428.45 1154.47,430.34 1151.768,431.348 L1151.04,430.242 C1152.594,429.696 1153.91,428.856 1154.988,427.736 C1154.092,427.792 1153.14,427.834 1152.146,427.876 L1151.88,426.798 C1151.992,426.77 1152.076,426.728 1152.132,426.686 C1152.636,426.364 1153.28,425.524 1154.078,424.166 L1151.614,424.166 L1151.614,422.948 Z M1156.15,431.754 C1154.834,432.916 1153.308,433.798 1151.572,434.414 L1150.844,433.28 C1154.092,432.216 1156.514,430.186 1158.138,427.162 L1159.244,427.736 C1158.6,428.94 1157.844,430.018 1156.976,430.942 C1157.928,431.782 1158.754,432.608 1159.44,433.448 L1158.46,434.428 C1157.886,433.588 1157.116,432.692 1156.15,431.754 Z" id="一键复核" fill="#666666" fill-rule="nonzero"></path>
                <path d="M272.016,120.62 L274.844,120.62 C274.452,120.018 274.046,119.472 273.612,118.996 L274.718,118.464 C275.194,118.982 275.642,119.556 276.062,120.2 L275.222,120.62 L278.05,120.62 C278.498,119.92 278.876,119.178 279.198,118.394 L280.486,118.856 C280.178,119.5 279.828,120.088 279.436,120.62 L281.984,120.62 L281.984,126.626 L277.658,126.626 L277.658,127.732 L283.258,127.732 L283.258,128.992 L277.658,128.992 L277.658,131.498 L276.342,131.498 L276.342,128.992 L270.742,128.992 L270.742,127.732 L276.342,127.732 L276.342,126.626 L272.016,126.626 L272.016,120.62 Z M280.696,125.45 L280.696,124.162 L277.658,124.162 L277.658,125.45 L280.696,125.45 Z M276.342,125.45 L276.342,124.162 L273.304,124.162 L273.304,125.45 L276.342,125.45 Z M273.304,123.042 L276.342,123.042 L276.342,121.782 L273.304,121.782 L273.304,123.042 Z M277.658,121.782 L277.658,123.042 L280.696,123.042 L280.696,121.782 L277.658,121.782 Z M286.31,131.316 L285.12,131.316 L284.84,130.056 C285.19,130.112 285.526,130.154 285.862,130.154 C286.17,130.154 286.338,129.972 286.338,129.608 L286.338,126.598 C285.834,126.78 285.344,126.948 284.854,127.116 L284.518,125.8 C285.134,125.66 285.736,125.478 286.338,125.268 L286.338,122.37 L284.77,122.37 L284.77,121.096 L286.338,121.096 L286.338,118.562 L287.626,118.562 L287.626,121.096 L288.858,121.096 L288.858,122.37 L287.626,122.37 L287.626,124.764 C288.018,124.582 288.424,124.386 288.816,124.176 L288.816,125.478 C288.41,125.674 288.018,125.87 287.626,126.052 L287.626,129.93 C287.626,130.854 287.178,131.316 286.31,131.316 Z M290.664,125.24 C290.482,127.592 289.95,129.664 289.054,131.456 L288.018,130.532 C288.956,128.726 289.432,126.402 289.446,123.56 L289.446,118.996 L297.02,118.996 L297.02,122.622 L294.472,122.622 L294.472,124.022 L297.356,124.022 L297.356,125.24 L294.472,125.24 L294.472,126.682 L296.726,126.682 L296.726,131.442 L295.494,131.442 L295.494,130.84 L292.176,130.84 L292.176,131.442 L290.944,131.442 L290.944,126.682 L293.184,126.682 L293.184,125.24 L290.664,125.24 Z M293.184,122.622 L290.734,122.622 L290.734,123.56 C290.734,123.714 290.72,123.868 290.72,124.022 L293.184,124.022 L293.184,122.622 Z M292.176,129.664 L295.494,129.664 L295.494,127.858 L292.176,127.858 L292.176,129.664 Z M295.732,120.214 L290.734,120.214 L290.734,121.432 L295.732,121.432 L295.732,120.214 Z M305.714,127.382 L305.714,128.712 L304.538,128.992 L304.538,131.414 L303.25,131.414 L303.25,129.258 C301.85,129.538 300.408,129.79 298.91,130.014 L298.588,128.712 L299.764,128.572 L299.764,120.228 L298.756,120.228 L298.756,118.982 L305.504,118.982 L305.504,119.752 L310.992,119.752 L310.992,120.97 C310.684,123.476 310.082,125.618 309.172,127.41 C309.816,128.502 310.614,129.496 311.552,130.392 L310.656,131.414 C309.788,130.518 309.06,129.594 308.458,128.642 C307.73,129.72 306.89,130.644 305.91,131.414 L305,130.378 C306.092,129.524 306.988,128.502 307.702,127.326 C306.722,125.394 306.134,123.294 305.952,121.026 L305.392,121.026 L305.392,120.228 L304.538,120.228 L304.538,127.676 C304.944,127.578 305.336,127.48 305.714,127.382 Z M307.17,121.026 C307.338,122.832 307.744,124.484 308.416,125.982 C309.06,124.526 309.508,122.874 309.746,121.026 L307.17,121.026 Z M303.25,127.97 L303.25,126.318 L301.066,126.318 L301.066,128.376 C301.808,128.25 302.536,128.11 303.25,127.97 Z M301.066,125.128 L303.25,125.128 L303.25,123.28 L301.066,123.28 L301.066,125.128 Z M301.066,122.076 L303.25,122.076 L303.25,120.228 L301.066,120.228 L301.066,122.076 Z M320.19,118.562 L321.534,118.562 L321.534,122.3 L324.502,122.3 L324.502,129.748 C324.502,130.798 323.998,131.33 322.99,131.33 L321.436,131.33 L321.086,130.042 L322.556,130.084 C322.962,130.084 323.172,129.874 323.172,129.454 L323.172,128.418 L318.594,128.418 L318.594,131.358 L317.25,131.358 L317.25,122.3 L320.19,122.3 L320.19,118.562 Z M318.594,126.01 L318.594,127.284 L323.172,127.284 L323.172,126.01 L318.594,126.01 Z M323.172,124.876 L323.172,123.588 L318.594,123.588 L318.594,124.876 L323.172,124.876 Z M317.684,118.884 C318.188,119.598 318.678,120.382 319.154,121.236 L318.104,121.754 C317.628,120.886 317.124,120.116 316.578,119.416 L317.684,118.884 Z M323.984,118.87 L325.062,119.388 C324.67,120.256 324.138,121.096 323.494,121.908 L322.472,121.362 C323.116,120.522 323.62,119.696 323.984,118.87 Z M315.094,125.772 L316.27,126.22 C315.598,128.012 314.842,129.706 314.03,131.288 L312.798,130.742 C313.666,129.118 314.436,127.466 315.094,125.772 Z M314.002,118.66 C314.968,119.36 315.78,120.046 316.452,120.746 L315.5,121.698 C314.912,121.04 314.1,120.34 313.05,119.584 L314.002,118.66 Z M313.61,121.936 C314.52,122.636 315.29,123.336 315.906,124.036 L314.968,124.988 C314.408,124.344 313.638,123.63 312.658,122.86 L313.61,121.936 Z" id="单据取消" fill="#666666" fill-rule="nonzero"></path>
                <path d="M929.518,293.506 L929.518,294.836 C929.518,294.906 929.504,294.976 929.504,295.046 L930.988,295.046 L930.988,293.506 L929.518,293.506 Z M929.42,296.18 C929.252,297.468 928.874,298.532 928.258,299.4 L927.292,298.546 C927.936,297.594 928.272,296.376 928.3,294.92 L928.3,290.58 L927.88,290.958 L927.054,289.964 C928.09,289.124 928.972,287.976 929.728,286.492 L931.002,286.786 C930.89,287.024 930.764,287.248 930.652,287.472 L933.928,287.472 L933.928,288.41 C933.564,288.928 933.186,289.376 932.822,289.754 L934.992,289.754 L934.992,298.238 C934.992,298.924 934.586,299.274 933.788,299.274 L932.822,299.274 L932.514,298.084 C932.822,298.126 933.13,298.154 933.41,298.154 C933.634,298.154 933.746,298.028 933.746,297.804 L933.746,296.18 L932.206,296.18 L932.206,299.19 L930.988,299.19 L930.988,296.18 L929.42,296.18 Z M931.394,289.754 C931.73,289.418 932.052,289.026 932.388,288.578 L929.994,288.578 C929.714,288.998 929.406,289.39 929.098,289.754 L931.394,289.754 Z M933.746,295.046 L933.746,293.506 L932.206,293.506 L932.206,295.046 L933.746,295.046 Z M933.746,292.358 L933.746,290.916 L932.206,290.916 L932.206,292.358 L933.746,292.358 Z M930.988,290.916 L929.518,290.916 L929.518,292.358 L930.988,292.358 L930.988,290.916 Z M922.896,287.192 L927.656,287.192 L927.656,288.48 L925.626,288.48 C925.458,289.488 925.234,290.454 924.926,291.35 L927.362,291.35 L927.362,298.028 L925.024,298.028 L925.024,298.98 L923.764,298.98 L923.764,293.954 C923.582,294.262 923.4,294.542 923.218,294.822 L922.434,293.59 C923.386,292.078 924.016,290.37 924.324,288.48 L922.896,288.48 L922.896,287.192 Z M925.024,296.81 L926.158,296.81 L926.158,292.582 L925.024,292.582 L925.024,296.81 Z M944.624,286.618 L945.968,286.618 C945.968,287.822 945.926,288.956 945.842,289.992 C946.57,293.436 947.83,296.18 949.622,298.224 L948.67,299.344 C947.284,297.552 946.22,295.396 945.464,292.876 L945.352,293.422 C944.848,295.83 943.658,297.804 941.782,299.372 L940.886,298.28 C942.482,296.908 943.518,295.214 944.022,293.198 C944.414,291.504 944.61,289.306 944.624,286.618 Z M938.422,286.632 C939.332,287.318 940.102,288.004 940.732,288.704 L939.822,289.628 C939.262,288.97 938.492,288.27 937.498,287.542 L938.422,286.632 Z M936.574,290.692 L939.808,290.692 L939.808,296.544 C940.242,296.18 940.704,295.76 941.208,295.284 L941.544,296.656 C940.648,297.482 939.696,298.224 938.674,298.896 L938.17,297.706 C938.408,297.51 938.534,297.272 938.534,296.978 L938.534,291.966 L936.574,291.966 L936.574,290.692 Z M956.608,294.99 L957.77,295.466 C957.28,296.754 956.706,297.874 956.048,298.798 L954.9,298.154 C955.656,297.118 956.216,296.054 956.608,294.99 Z M962.124,294.948 C962.656,295.97 963.132,297.062 963.524,298.238 L962.348,298.756 C961.928,297.468 961.452,296.32 960.948,295.34 L962.124,294.948 Z M958.932,299.33 L957.756,299.33 L957.406,298.084 L958.554,298.14 C958.918,298.14 959.1,297.916 959.1,297.496 L959.1,294.262 L955.782,294.262 L955.502,293.128 C955.768,292.68 956.02,292.19 956.272,291.644 L955.446,291.644 L955.446,290.44 L956.776,290.44 C956.916,290.02 957.07,289.6 957.21,289.152 L955.558,289.152 L955.558,287.906 L957.574,287.906 C957.7,287.444 957.826,286.968 957.952,286.464 L959.226,286.702 C959.114,287.122 959.016,287.528 958.918,287.906 L962.992,287.906 L962.992,289.152 L958.54,289.152 C958.4,289.6 958.246,290.02 958.106,290.44 L960.374,290.44 L960.374,293.086 L963.104,293.086 L963.104,294.262 L960.374,294.262 L960.374,297.902 C960.374,298.854 959.884,299.33 958.932,299.33 Z M957.63,291.644 C957.406,292.162 957.182,292.638 956.958,293.086 L959.1,293.086 L959.1,291.644 L957.63,291.644 Z M952.296,299.288 L951.078,299.288 L950.784,298 C951.148,298.042 951.498,298.07 951.834,298.07 C952.17,298.07 952.338,297.902 952.338,297.566 L952.338,294.556 C951.806,294.752 951.288,294.948 950.756,295.13 L950.42,293.786 C951.078,293.632 951.722,293.436 952.338,293.212 L952.338,290.258 L950.742,290.258 L950.742,288.984 L952.338,288.984 L952.338,286.534 L953.654,286.534 L953.654,288.984 L955.138,288.984 L955.138,290.258 L953.654,290.258 L953.654,292.666 C954.13,292.442 954.592,292.19 955.054,291.938 L955.054,293.282 C954.592,293.534 954.13,293.758 953.654,293.982 L953.654,297.902 C953.654,298.826 953.192,299.288 952.296,299.288 Z M975.354,291.868 L972.274,291.868 C971.322,291.868 970.846,291.434 970.846,290.58 L970.846,290.286 C970.342,290.426 969.838,290.58 969.334,290.72 L968.62,289.67 C969.404,289.46 970.146,289.25 970.846,289.026 L970.846,286.59 L972.148,286.59 L972.148,288.578 C973.618,288.018 974.822,287.402 975.774,286.73 L976.628,287.612 C975.368,288.466 973.87,289.208 972.148,289.838 L972.148,290.314 C972.148,290.594 972.302,290.734 972.624,290.734 L975.102,290.734 C975.354,290.734 975.522,290.678 975.634,290.58 C975.774,290.454 975.872,290.104 975.914,289.516 L977.118,289.908 C977.02,290.86 976.824,291.42 976.544,291.602 C976.278,291.77 975.886,291.868 975.354,291.868 Z M975.704,292.456 L975.704,296.796 L974.36,296.796 L974.36,293.66 L967.934,293.66 L967.934,296.978 L966.604,296.978 L966.604,292.456 L975.704,292.456 Z M972.134,296.684 C973.926,297.16 975.55,297.748 977.02,298.448 L976.278,299.596 C974.71,298.784 973.114,298.154 971.462,297.692 L972.134,296.684 Z M970.51,294.122 L971.798,294.234 C971.602,296.11 971.168,297.342 970.524,297.944 C969.824,298.728 968.172,299.246 965.568,299.47 L965.036,298.266 C967.248,298.154 968.718,297.804 969.418,297.188 C970.034,296.586 970.398,295.564 970.51,294.122 Z M966.8,289.628 C966.268,289.978 965.708,290.314 965.12,290.622 L964.728,289.32 C966.394,288.508 967.626,287.556 968.41,286.478 L969.516,286.996 C969.138,287.57 968.662,288.116 968.088,288.634 L968.088,292.008 L966.8,292.008 L966.8,289.628 Z" id="确认拣货" fill="#666666" fill-rule="nonzero"></path>
                <g id="入库" transform="translate(1110.000000, 350.000000)">
                    <path d="M33,18 L31,18 L31,6 C31,4.8954305 30.1045695,4 29,4 L27,4 C26.4477153,4 26,3.55228475 26,3 C26,2.44771525 26.4477153,2 27,2 L31,2 C32.1045695,2 33,2.8954305 33,4 L33,18 Z M16,40 L2,40 C0.8954305,40 1.3527075e-16,39.1045695 0,38 L0,4 C-1.3527075e-16,2.8954305 0.8954305,2 2,2 L6,2 C6.55228475,2 7,2.44771525 7,3 C7,3.55228475 6.55228475,4 6,4 L4,4 C2.8954305,4 2,4.8954305 2,6 L2,36 C2,37.1045695 2.8954305,38 4,38 L16,38 L16,40 Z" id="合并形状" fill="#FFFFFF"></path>
                    <circle id="椭圆形" fill="#FFFFFF" cx="32" cy="18" r="1"></circle>
                    <circle id="椭圆形" fill="#FFFFFF" cx="16" cy="39" r="1"></circle>
                    <path d="M11,0 L22,0 C23.1045695,-2.02906125e-16 24,0.8954305 24,2 L24,4 C24,5.1045695 23.1045695,6 22,6 L11,6 C9.8954305,6 9,5.1045695 9,4 L9,2 C9,0.8954305 9.8954305,2.02906125e-16 11,0 Z M12,2 C11.4477153,2 11,2.44771525 11,3 C11,3.55228475 11.4477153,4 12,4 L21,4 C21.5522847,4 22,3.55228475 22,3 C22,2.44771525 21.5522847,2 21,2 L12,2 Z" id="合并形状" fill="#FFFFFF"></path>
                    <rect id="矩形" fill="#FFFFFF" x="7" y="11" width="15" height="2" rx="1"></rect>
                    <rect id="矩形" fill="#FFFFFF" x="7" y="17" width="9" height="2" rx="1"></rect>
                    <rect id="矩形" fill="#FFFFFF" x="7" y="22" width="9" height="2" rx="1"></rect>
                    <circle id="椭圆形" stroke="#FFFFFF" stroke-width="1.5" cx="28.5" cy="31.5" r="7.5"></circle>
                    <path d="M26.5,31.5 L28,33.5" id="直线-8" stroke="#FFFFFF" stroke-width="1.5" stroke-linecap="round"></path>
                    <path d="M28,33.5 L31.5,30.5" id="直线" stroke="#FFFFFF" stroke-width="1.5" stroke-linecap="round"></path>
                </g>
            </g>
        </g>
    </g>
</svg>