<?xml version="1.0" encoding="UTF-8"?>
<svg width="577px" height="116px" viewBox="0 0 577 116" version="1.1" xmlns="http://www.w3.org/2000/svg" xmlns:xlink="http://www.w3.org/1999/xlink">
    <!-- Generator: Sketch 53.1 (72631) - https://sketchapp.com -->
    <title>分组 6</title>
    <desc>Created with Sketch.</desc>
    <defs>
        <path d="M12.6,16.6 L12.6,13.36 L47.4,13.36 L47.4,16.6 L32.52,16.6 L32.52,19.52 L44.8,19.52 L44.8,30.24 C44.8,33.92 43.2,35.64 39.72,35.64 L32,35.64 C31.44,37.84 30.44,39.68 28.8,41.28 C33.28,43.32 38.68,44.2 47.52,44.72 L47.52,47.68 C37.28,47.36 30.6,46.4 25.24,43.88 C22.32,45.48 18.32,46.88 12.96,48.12 L12.96,45.12 C16.56,44.12 19.4,43.04 21.56,41.72 C19.76,40.48 18.04,38.96 16.36,37.12 L22.28,37.12 C23.16,37.84 24,38.48 24.88,39.08 C25.76,38.04 26.36,36.92 26.8,35.64 L15.16,35.64 L15.16,19.52 L27.4,19.52 L27.4,16.6 L12.6,16.6 Z M19.92,32.4 L27.36,32.4 C27.4,32.12 27.4,31.84 27.4,31.56 L27.4,29.08 L19.92,29.08 L19.92,32.4 Z M32.52,30.84 C32.52,31.4 32.48,31.92 32.44,32.4 L37.72,32.4 C39.36,32.4 40.04,31.68 40.04,29.88 L40.04,29.08 L32.52,29.08 L32.52,30.84 Z M40.04,22.76 L32.52,22.76 L32.52,25.96 L40.04,25.96 L40.04,22.76 Z M19.92,22.76 L19.92,25.96 L27.4,25.96 L27.4,22.76 L19.92,22.76 Z M56.4399999,18.36 L56.4399999,15.08 L65.7999999,15.08 L66.7199999,11.64 L72.1999999,11.64 C71.8399999,12.88 71.4799999,14 71.1199999,15.08 L88.8799999,15.08 L88.8799999,18.36 L69.9999999,18.36 C69.3999999,20.08 68.7599999,21.68 68.0799999,23.16 L90.8799999,23.16 L90.8799999,26.52 L66.4799999,26.52 C65.7199999,27.96 64.9599999,29.32 64.0799999,30.76 L87.6799999,30.76 L87.6799999,34.04 C84.4399999,37.76 82.2399999,39.8 78.9599999,41.92 C80.6399999,42.48 82.3199999,43.08 84.1199999,43.76 L84.1199999,48.44 C75.6799999,44.92 68.9199999,42.88 60.4799999,41.08 L60.4799999,37.6 C65.6399999,38.44 70.1199999,39.36 74.6799999,40.64 C77.2799999,38.64 78.9199999,36.92 81.1999999,34.04 L59.4399999,34.04 L59.4399999,30.76 C60.1999999,29.28 60.9199999,27.88 61.5599999,26.52 L54.3999999,26.52 L54.3999999,23.16 L63.0399999,23.16 C63.6799999,21.64 64.2399999,20.08 64.7999999,18.36 L56.4399999,18.36 Z M97.2799998,46.28 L97.2799998,42.84 L107.76,42.84 L107.76,12.32 L112.64,12.32 L112.64,42.84 L117.72,42.84 L117.72,12.32 L122.6,12.32 L122.6,42.84 L133.16,42.84 L133.16,46.28 L97.2799998,46.28 Z M124.88,35.44 C126.44,29.2 127.12,25.16 127.68,18.44 L132.36,18.44 C131.52,26 130.76,29.88 129.04,35.44 L124.88,35.44 Z M101.32,35.44 C99.6399998,29.88 98.8799998,26 98.0399998,18.44 L102.68,18.44 C103.24,25 103.88,29 105.48,35.44 L101.32,35.44 Z M140.4,16.6 L140.4,13.36 L175.2,13.36 L175.2,16.6 L160.32,16.6 L160.32,19.52 L172.6,19.52 L172.6,30.24 C172.6,33.92 171,35.64 167.52,35.64 L159.8,35.64 C159.24,37.84 158.24,39.68 156.6,41.28 C161.08,43.32 166.48,44.2 175.32,44.72 L175.32,47.68 C165.08,47.36 158.4,46.4 153.04,43.88 C150.12,45.48 146.12,46.88 140.76,48.12 L140.76,45.12 C144.36,44.12 147.2,43.04 149.36,41.72 C147.56,40.48 145.84,38.96 144.16,37.12 L150.08,37.12 C150.96,37.84 151.8,38.48 152.68,39.08 C153.56,38.04 154.16,36.92 154.6,35.64 L142.96,35.64 L142.96,19.52 L155.2,19.52 L155.2,16.6 L140.4,16.6 Z M147.72,32.4 L155.16,32.4 C155.2,32.12 155.2,31.84 155.2,31.56 L155.2,29.08 L147.72,29.08 L147.72,32.4 Z M160.32,30.84 C160.32,31.4 160.28,31.92 160.24,32.4 L165.52,32.4 C167.16,32.4 167.84,31.68 167.84,29.88 L167.84,29.08 L160.32,29.08 L160.32,30.84 Z M167.84,22.76 L160.32,22.76 L160.32,25.96 L167.84,25.96 L167.84,22.76 Z M147.72,22.76 L147.72,25.96 L155.2,25.96 L155.2,22.76 L147.72,22.76 Z M183.92,47.92 L183.92,30.04 L216.88,30.04 L216.88,42.28 C216.88,46.28 215.48,47.76 211.84,47.76 L207.8,47.76 L207.8,44.72 L209.88,44.72 C211.52,44.72 212,44.2 212,42.52 L212,33.2 L188.8,33.2 L188.8,47.92 L183.92,47.92 Z M187.56,27.84 L187.56,19.6 L213.28,19.6 L213.28,23.2 C213.28,26.56 212.08,27.84 208.88,27.84 L187.56,27.84 Z M192.08,43.76 L192.08,35.4 L208.72,35.4 L208.72,39.52 C208.72,42.56 207.56,43.76 204.28,43.76 L192.08,43.76 Z M182.24,17.48 L182.24,14.32 L197.56,14.32 L197.56,11.92 L203.36,11.92 L203.36,14.32 L218.56,14.32 L218.56,17.48 L182.24,17.48 Z M192.44,25.2 L206.84,25.2 C208.04,25.2 208.4,24.76 208.4,23.44 L208.4,22.2 L192.44,22.2 L192.44,25.2 Z M196.48,41.12 L202.68,41.12 C203.96,41.12 204.36,40.72 204.36,39.44 L204.36,38 L196.48,38 L196.48,41.12 Z M243.88,27.84 C239.08,26.64 236.72,24.56 235.28,19.76 L239.6,19.76 C240.28,22.44 241.52,23.92 243.32,25 L243.32,22.64 C245.6,20 246.76,17.4 247.36,12.12 L251.96,12.12 C251.72,13.84 251.4,15.32 251,16.64 L261.12,16.64 L261.12,19.88 L258.72,19.88 C258.48,27.76 257.16,33.4 254.28,38.04 C256,40.44 258.2,42.48 260.96,44.64 L260.96,48.28 C257.16,46.04 254.24,43.84 251.92,41.24 C249.72,43.76 246.92,46 243.44,48.28 L243.44,44.76 C245.92,42.52 247.92,40.36 249.52,38 C247.36,34.56 246.04,30.4 245.16,24.92 C244.76,25.2 244.32,25.48 243.88,25.72 L243.88,27.84 Z M242.64,48.08 C239.24,46.44 236.52,44.8 234.28,42.72 C231.8,44.88 228.68,46.56 224.68,48.12 L224.68,45 C227.68,43.4 230,41.84 231.84,40.04 C229.6,37.08 227.96,33.36 226.6,28.28 L230.96,28.28 C231.88,31.96 232.92,34.72 234.32,37.04 C235.8,34.76 236.88,31.96 237.76,28.32 L242.16,28.32 C240.8,33.48 239.12,37.28 236.68,40.24 C238.28,41.96 240.2,43.44 242.64,44.96 L242.64,48.08 Z M225.36,18.28 L225.36,15.16 L231.92,15.16 L231.92,12.08 L237.04,12.08 L237.04,15.16 L243.4,15.16 L243.4,18.28 L225.36,18.28 Z M249.72,19.88 C249.12,21.08 248.36,22.08 247.44,23 L249.08,23 C249.72,27.48 250.6,30.88 251.84,33.76 C253.4,30.08 254.28,25.72 254.52,19.88 L249.72,19.88 Z M224.72,27.84 L224.72,25.32 C227.2,24 228.32,22.64 229.16,19.76 L233.52,19.76 C231.96,24.72 229.52,26.68 224.72,27.84 Z M268.199999,16.6 L268.199999,13.36 L302.999999,13.36 L302.999999,16.6 L288.119999,16.6 L288.119999,19.52 L300.399999,19.52 L300.399999,30.24 C300.399999,33.92 298.799999,35.64 295.319999,35.64 L287.599999,35.64 C287.039999,37.84 286.039999,39.68 284.399999,41.28 C288.879999,43.32 294.279999,44.2 303.119999,44.72 L303.119999,47.68 C292.879999,47.36 286.199999,46.4 280.839999,43.88 C277.919999,45.48 273.919999,46.88 268.559999,48.12 L268.559999,45.12 C272.159999,44.12 274.999999,43.04 277.159999,41.72 C275.359999,40.48 273.639999,38.96 271.959999,37.12 L277.879999,37.12 C278.759999,37.84 279.599999,38.48 280.479999,39.08 C281.359999,38.04 281.959999,36.92 282.399999,35.64 L270.759999,35.64 L270.759999,19.52 L282.999999,19.52 L282.999999,16.6 L268.199999,16.6 Z M275.519999,32.4 L282.959999,32.4 C282.999999,32.12 282.999999,31.84 282.999999,31.56 L282.999999,29.08 L275.519999,29.08 L275.519999,32.4 Z M288.119999,30.84 C288.119999,31.4 288.079999,31.92 288.039999,32.4 L293.319999,32.4 C294.959999,32.4 295.639999,31.68 295.639999,29.88 L295.639999,29.08 L288.119999,29.08 L288.119999,30.84 Z M295.639999,22.76 L288.119999,22.76 L288.119999,25.96 L295.639999,25.96 L295.639999,22.76 Z M275.519999,22.76 L275.519999,25.96 L282.999999,25.96 L282.999999,22.76 L275.519999,22.76 Z M321.159999,16.76 L321.159999,13.6 L345.999999,13.6 L345.999999,16.76 L335.639999,16.76 L335.639999,19.56 L344.879999,19.56 L344.879999,30.32 C344.879999,34.08 343.399999,35.56 339.839999,35.56 L335.439999,35.56 C335.159999,38.16 334.479999,40.16 333.239999,41.84 C336.519999,43.44 340.479999,44.36 345.839999,45 L345.839999,47.96 C339.359999,47.36 334.479999,46.24 330.559999,44.36 C328.159999,46 324.799999,47.2 320.159999,48.28 L320.159999,45.28 C323.079999,44.44 325.319999,43.56 326.959999,42.32 C324.879999,40.84 323.039999,39.04 321.359999,36.84 L326.559999,36.84 C327.479999,37.84 328.439999,38.72 329.439999,39.52 C330.079999,38.4 330.479999,37.12 330.679999,35.56 L321.719999,35.56 L321.719999,19.56 L330.879999,19.56 L330.879999,16.76 L321.159999,16.76 Z M313.719999,48.16 L313.719999,25.44 C312.519999,26.2 311.119999,26.84 309.559999,27.36 L309.559999,24.44 C313.119999,21.64 314.919999,18.68 315.959999,12.2 L320.759999,12.2 C320.199999,15.56 319.439999,18.2 318.359999,20.28 L318.359999,48.16 L313.719999,48.16 Z M325.959999,32.48 L330.879999,32.48 L330.879999,28.92 L325.959999,28.92 L325.959999,32.48 Z M338.399999,32.48 C340.039999,32.48 340.639999,31.88 340.639999,30.04 L340.639999,28.92 L335.639999,28.92 L335.639999,32.48 L338.399999,32.48 Z M340.639999,22.64 L335.639999,22.64 L335.639999,25.92 L340.639999,25.92 L340.639999,22.64 Z M325.959999,22.64 L325.959999,25.92 L330.879999,25.92 L330.879999,22.64 L325.959999,22.64 Z M364.239999,17.2 L364.239999,14.2 L372.799999,14.2 L372.799999,11.8 L377.439999,11.8 L377.439999,14.2 L387.879999,14.2 L387.879999,17.2 L377.439999,17.2 L377.439999,19.52 L386.439999,19.52 L386.439999,25.16 L389.039999,25.16 L389.039999,28.12 L386.439999,28.12 L386.439999,29.32 C386.439999,32.56 385.039999,33.92 381.639999,33.92 L377.439999,33.92 L377.439999,37 L387.079999,37 L387.079999,39.88 L377.439999,39.88 L377.439999,44.36 L388.839999,44.36 L388.839999,47.32 L375.199999,47.32 C371.399999,47.32 369.079999,46.4 367.399999,43.88 C366.199999,45.56 364.399999,46.92 361.879999,48.32 L361.879999,44.68 C364.359999,42.48 365.279999,40.32 365.359999,35.68 L369.599999,35.68 C369.519999,37.48 369.319999,39 368.999999,40.32 C369.919999,42.32 371.159999,43.48 372.799999,44 L372.799999,33.92 L365.039999,33.92 L365.039999,31.04 L372.799999,31.04 L372.799999,28.12 L364.239999,28.12 L364.239999,25.16 L372.799999,25.16 L372.799999,22.36 L365.199999,22.36 L365.199999,19.52 L372.799999,19.52 L372.799999,17.2 L364.239999,17.2 Z M352.999999,20.6 L352.999999,17.44 L356.119999,17.44 L356.119999,11.84 L360.759999,11.84 L360.759999,17.44 L363.519999,17.44 L363.519999,20.6 L360.759999,20.6 L360.759999,28.4 L363.479999,27.56 L363.479999,30.68 C362.519999,31.12 361.639999,31.48 360.759999,31.8 L360.759999,43.08 C360.759999,46.36 359.239999,47.76 356.279999,47.76 L353.239999,47.76 L353.239999,44.6 L354.359999,44.6 C355.599999,44.6 356.119999,44.12 356.119999,42.76 L356.119999,33.16 C355.039999,33.4 353.919999,33.6 352.599999,33.84 L352.599999,29.92 C353.879999,29.76 355.039999,29.64 356.119999,29.44 L356.119999,20.6 L352.999999,20.6 Z M380.119999,31.04 C381.679999,31.04 382.199999,30.56 382.199999,28.88 L382.199999,28.12 L377.439999,28.12 L377.439999,31.04 L380.119999,31.04 Z M382.199999,22.36 L377.439999,22.36 L377.439999,25.16 L382.199999,25.16 L382.199999,22.36 Z" id="path-1"></path>
        <filter x="-5.2%" y="-44.8%" width="110.4%" height="206.0%" filterUnits="objectBoundingBox" id="filter-2">
            <feOffset dx="0" dy="3" in="SourceAlpha" result="shadowOffsetOuter1"></feOffset>
            <feGaussianBlur stdDeviation="6" in="shadowOffsetOuter1" result="shadowBlurOuter1"></feGaussianBlur>
            <feColorMatrix values="0 0 0 0 0   0 0 0 0 0   0 0 0 0 0  0 0 0 0.597410402 0" type="matrix" in="shadowBlurOuter1"></feColorMatrix>
        </filter>
        <path d="M20.35,103.31 C17.44,103.31 16.15,102.08 16.15,99.17 L16.15,86.3 C14.71,86.96 13.09,87.59 11.2,88.25 L11.2,86.24 C16.84,83.75 19.9,81.47 23.23,76.64 L26.74,76.64 C30.07,81.47 33.07,83.75 38.8,86.24 L38.8,88.25 C32.23,85.97 28.99,84.05 25,79.85 C22.15,82.79 19.72,84.62 16.24,86.24 L33.1,86.24 L33.1,92.96 C33.1,95.57 31.96,96.65 29.41,96.65 L26.29,96.65 L26.29,94.61 L28.57,94.61 C29.65,94.61 30.1,94.1 30.1,92.96 L30.1,88.4 L19.33,88.4 L19.33,99.02 C19.33,100.58 19.93,101.18 21.4,101.18 L32.59,101.18 C33.88,101.18 34.51,100.49 34.51,99.14 L34.51,97.46 L37,97.46 L37,99.5 C37,102.17 35.71,103.31 32.89,103.31 L20.35,103.31 Z M51.23,87.56 L51.23,78.14 L66.98,78.14 L66.98,83.66 C66.98,86.45 65.84,87.56 63.02,87.56 L60.53,87.56 L60.53,90.62 L69.02,90.62 L69.02,92.66 L64.88,92.66 C65.48,96.26 66.59,98.06 69.05,100.43 L69.05,102.53 C64.7,99.89 62.99,97.61 62.18,92.66 L60.53,92.66 L60.53,104.09 L57.5,104.09 L57.5,92.66 L55.82,92.66 C55.01,97.61 53.3,99.89 48.98,102.53 L48.98,100.43 C51.41,98.06 52.55,96.26 53.12,92.66 L48.95,92.66 L48.95,90.62 L57.5,90.62 L57.5,87.56 L51.23,87.56 Z M41.42,88.31 L41.42,86.48 C44.39,84.32 45.8,82.13 46.82,77.06 L49.76,77.06 C49.16,79.88 48.47,81.92 47.57,83.51 L47.57,104.09 L44.66,104.09 L44.66,86.63 C43.73,87.26 42.68,87.8 41.42,88.31 Z M54.14,85.55 L62.24,85.55 C63.56,85.55 64.07,85.01 64.07,83.54 L64.07,80.15 L54.14,80.15 L54.14,85.55 Z M81.36,79.85 L81.36,77.99 L99.09,77.99 L99.09,79.85 L93.72,79.85 L93.72,82.28 L98.55,82.28 L98.55,86.09 C98.55,88.19 97.68,89 95.46,89 L81.78,89 L81.78,82.28 L86.58,82.28 L86.58,79.85 L81.36,79.85 Z M72.84,87.44 L72.84,85.52 L80.22,85.52 L80.22,87.44 L77.91,87.44 L77.91,91.61 L80.79,91.61 L80.79,93.5 L77.91,93.5 L77.91,99.62 C78.78,99.29 79.47,98.9 80.61,98.12 L80.61,100.28 C78.99,101.63 77.61,102.53 75.27,103.37 L75.27,93.5 L72.3,93.5 L72.3,91.61 L75.27,91.61 L75.27,87.44 L72.84,87.44 Z M81.12,96.77 L81.12,94.91 L99.42,94.91 L99.42,96.77 L91.53,96.77 L91.53,100.43 C91.53,102.89 90.54,103.79 88.14,103.79 L86.19,103.79 L86.19,101.96 L87.45,101.96 C88.5,101.96 88.86,101.57 88.86,100.37 L88.86,96.77 L81.12,96.77 Z M82.41,92.84 L82.41,91.01 L97.92,91.01 L97.92,92.84 L82.41,92.84 Z M72.12,84.53 L72.12,82.85 C74.1,81.32 74.82,80.09 75.09,77.06 L77.79,77.06 C77.64,78.14 77.43,79.07 77.16,79.85 L80.79,79.85 L80.79,81.77 L76.17,81.77 C75.3,82.97 73.98,83.81 72.12,84.53 Z M99.75,103.43 C96.15,102.59 94.29,101.15 93.21,97.82 L95.73,97.82 C96.54,99.89 97.68,100.91 99.75,101.78 L99.75,103.43 Z M80.52,103.46 L80.52,101.78 C82.53,100.91 83.58,99.92 84.39,97.82 L86.91,97.82 C85.74,101.24 84,102.62 80.52,103.46 Z M83.97,87.23 L86.58,87.23 L86.58,84.05 L83.97,84.05 L83.97,87.23 Z M88.86,84.05 L88.86,87.23 L91.41,87.23 L91.41,84.05 L88.86,84.05 Z M96.3,84.05 L93.72,84.05 L93.72,87.23 L94.98,87.23 C95.91,87.23 96.3,86.9 96.3,85.91 L96.3,84.05 Z M88.86,79.85 L88.86,82.28 L91.41,82.28 L91.41,79.85 L88.86,79.85 Z M113.06,104.27 L113.06,102.05 C115.01,99.83 115.58,98.18 115.58,94.28 L115.58,78.32 L138.71,78.32 L138.71,99.86 C138.71,102.56 137.51,103.76 134.78,103.76 L132.35,103.76 L132.35,101.63 L133.88,101.63 C135.08,101.63 135.59,101.18 135.59,99.89 L135.59,94.55 L128.69,94.55 L128.69,103.61 L125.57,103.61 L125.57,94.55 L118.67,94.55 C118.49,99.53 117.05,101.75 113.06,104.27 Z M128.69,87.44 L128.69,92.54 L135.59,92.54 L135.59,87.44 L128.69,87.44 Z M118.7,87.44 L118.7,92.54 L125.57,92.54 L125.57,87.44 L118.7,87.44 Z M135.59,80.45 L128.69,80.45 L128.69,85.4 L135.59,85.4 L135.59,80.45 Z M118.7,80.45 L118.7,85.4 L125.57,85.4 L125.57,80.45 L118.7,80.45 Z M154.92,103.31 C151.74,103.31 150.45,102.17 150.45,98.81 L150.45,79.13 L153.72,79.13 L153.72,98.81 C153.72,100.55 154.38,101.15 156.15,101.15 L161.04,101.15 C162.57,101.15 163.14,100.52 163.14,99.02 L163.14,97.58 L165.69,97.58 L165.69,99.35 C165.69,102.14 164.55,103.31 161.76,103.31 L154.92,103.31 Z M143.61,98.96 C144.78,93.26 145.29,89.21 145.62,82.91 L148.08,82.91 C147.96,89.21 147.69,92.84 146.7,98.96 L143.61,98.96 Z M159.03,90.26 C158.79,85.34 158.37,81.83 157.5,77 L159.93,77 C161.04,81.38 161.61,84.77 162.18,90.26 L159.03,90.26 Z M167.58,98.84 C167.07,92.6 166.59,88.79 165.42,82.73 L167.91,82.73 C169.26,88.25 170.1,93.29 170.64,98.84 L167.58,98.84 Z M189.64,104.03 L189.64,101.87 C191.02,100.82 192.13,99.86 193.06,98.81 C191.41,96.89 190.33,94.52 189.46,91.25 L192.1,91.25 C192.76,93.62 193.54,95.39 194.56,96.86 C195.7,95.03 196.39,92.9 196.87,89.99 L188.86,89.99 L188.86,104.12 L185.98,104.12 L185.98,78.32 L199.3,78.32 L199.3,82.46 C199.3,85.04 198.34,85.97 195.61,85.97 L192.52,85.97 L192.52,84.05 L194.74,84.05 C195.97,84.05 196.39,83.63 196.39,82.37 L196.39,80.33 L188.86,80.33 L188.86,88.01 L199.63,88.01 L199.63,89.96 C198.91,93.8 197.89,96.5 196.12,98.75 C197.26,99.89 198.67,100.91 200.47,101.99 L200.47,104 C198.04,102.83 196.15,101.69 194.65,100.37 C193.33,101.63 191.68,102.8 189.64,104.03 Z M173.77,104.18 L173.77,101.93 C174.97,100.07 175.36,98.57 175.36,94.43 L175.36,78.17 L183.79,78.17 L183.79,100.64 C183.79,102.89 182.86,103.7 180.64,103.7 L178.81,103.7 L178.81,101.84 L180.13,101.84 C180.97,101.84 181.3,101.48 181.3,100.52 L181.3,94.37 L177.88,94.37 C177.82,99.44 176.77,101.63 173.77,104.18 Z M177.88,87.17 L177.88,92.48 L181.3,92.48 L181.3,87.17 L177.88,87.17 Z M177.88,80.09 L177.88,85.31 L181.3,85.31 L181.3,80.09 L177.88,80.09 Z M231.23,90.86 C225.2,90.17 220.97,89.39 217.61,88.25 C214.19,89.42 209.9,90.2 204.14,90.92 L204.14,89.15 C208.34,88.55 211.67,87.83 214.46,86.9 C212.36,85.85 210.62,84.5 208.82,82.79 C207.62,83.24 206.24,83.6 204.59,83.93 L204.59,82.34 C208.46,80.99 210.38,79.67 212.12,76.88 L215.6,76.88 C215.15,77.63 214.7,78.29 214.22,78.89 L228.41,78.89 L228.41,81.02 C226.04,83.63 223.73,85.49 220.82,86.93 C223.58,87.8 226.88,88.46 231.23,89.06 L231.23,90.86 Z M204.8,104.24 L204.8,102.35 C210.5,100.52 212.99,98.45 213.62,94.7 L205.85,94.7 L205.85,92.66 L213.8,92.66 L213.8,90.14 L216.98,90.14 L216.98,92.66 L228.08,92.66 L228.08,99.47 C228.08,102.41 226.91,103.58 224.24,103.58 L220.34,103.58 L220.34,101.51 L223.04,101.51 C224.39,101.51 224.93,100.91 224.93,99.59 L224.93,94.7 L216.77,94.7 C216.02,99.83 212.75,102.38 204.8,104.24 Z M224.51,80.9 L212.24,80.9 C211.55,81.44 210.83,81.89 210.02,82.28 L212.12,82.28 C213.86,83.66 215.6,84.77 217.58,85.67 C220.25,84.44 222.38,82.91 224.51,80.9 Z M234.63,94.82 L234.63,93.02 C238.92,92.45 242.31,91.73 245.13,90.8 C243.45,89.96 241.89,88.97 240.33,87.77 C239.01,88.4 237.48,88.97 235.65,89.48 L235.65,87.71 C238.89,86.39 241.08,84.92 242.97,82.16 L246.33,82.16 C245.94,82.82 245.55,83.42 245.1,83.96 L258,83.96 L258,85.85 C256.23,87.92 254.13,89.54 251.43,90.83 C254.22,91.7 257.43,92.36 261.48,92.93 L261.48,94.73 C255.84,94.1 251.73,93.32 248.28,92.12 C244.71,93.32 240.27,94.16 234.63,94.82 Z M238.68,103.7 L238.68,94.85 L257.55,94.85 L257.55,99.98 C257.55,102.62 256.53,103.7 254.1,103.7 L238.68,103.7 Z M235.56,83.27 L235.56,79.01 L246.33,79.01 L246.33,77 L249.9,77 L249.9,79.01 L260.76,79.01 L260.76,83.27 L257.73,83.27 L257.73,80.99 L238.59,80.99 L238.59,83.27 L235.56,83.27 Z M241.71,101.72 L252.93,101.72 C254.04,101.72 254.52,101.06 254.52,100.01 L254.52,96.8 L241.71,96.8 L241.71,101.72 Z M243.27,85.85 C243.09,86.03 242.91,86.18 242.7,86.33 C244.47,87.65 246.24,88.73 248.13,89.57 C250.29,88.58 252.12,87.38 253.92,85.85 L243.27,85.85 Z M265.12,104.12 L265.12,102.02 C267.1,100.16 267.7,98.69 267.7,95.06 L267.7,79.91 L277.3,79.91 L277.3,76.97 L280.87,76.97 L280.87,79.91 L290.38,79.91 L290.38,87.86 C290.38,90.8 289.12,92.09 286.15,92.09 L271,92.09 L271,94.37 C271,99.53 269.56,101.72 265.12,104.12 Z M271,82.04 L271,89.96 L285.19,89.96 C286.57,89.96 287.2,89.36 287.2,87.89 L287.2,82.04 L271,82.04 Z M295.97,104.3 L295.97,102.05 C302.87,96.26 305.33,92.21 305.84,84.14 L296.3,84.14 L296.3,81.98 L300.29,81.98 C299.9,80.45 299.42,79.1 298.58,77.33 L301.19,77.33 C302.03,78.89 302.57,80.21 303.02,81.98 L305.9,81.98 C305.93,81.56 305.93,81.11 305.93,80.63 L305.93,76.82 L309.23,76.82 L309.23,79.49 C309.23,80.36 309.23,81.2 309.2,81.98 L321.05,81.98 L321.05,98.99 C321.05,102.17 319.79,103.46 316.64,103.46 L312.98,103.46 L312.98,101.3 L315.62,101.3 C317.3,101.3 317.81,100.76 317.81,99.08 L317.81,84.14 L309.08,84.14 C308.39,93.83 305.15,98.48 295.97,104.3 Z M311.54,95.99 C311.15,93.56 310.61,91.61 309.56,89.15 L312.2,89.15 C313.25,91.31 313.91,93.26 314.42,95.99 L311.54,95.99 Z M335.61,104 L335.61,101.12 C338.79,95.18 339.9,91.34 340.32,82.16 C339.33,84.14 337.89,85.52 335.73,86.87 L335.73,84.92 C337.62,82.82 338.46,81.08 339.09,77 L341.88,77 C341.67,78.17 341.43,79.16 341.16,80.06 L351.96,80.06 L351.96,99.44 C351.96,102.32 351,103.31 348.39,103.31 L346.17,103.31 L346.17,101.36 L347.55,101.36 C348.78,101.36 349.29,100.85 349.29,99.44 L349.29,82.01 L347.67,82.01 C347.46,93.44 345.99,97.61 341.07,104.03 L341.07,101.15 C344.19,94.97 345.09,91.1 345.21,82.01 L342.84,82.01 C342.39,92.57 340.71,97.43 335.61,104 Z M325.74,89.18 L325.74,86.99 C326.73,84.83 327.06,82.82 327.06,78.56 L329.19,78.56 C329.19,79.73 329.16,80.72 329.07,81.62 L330.69,81.62 L330.69,76.97 L333.45,76.97 L333.45,81.62 L335.94,81.62 L335.94,83.6 L333.45,83.6 L333.45,91.64 C334.35,91.43 335.31,91.19 336.39,90.89 L336.39,92.9 C335.34,93.29 334.38,93.62 333.45,93.89 L333.45,104.03 L330.69,104.03 L330.69,94.58 C329.34,94.88 327.84,95.09 326.01,95.3 L326.01,92.75 C327.78,92.6 329.25,92.42 330.69,92.18 L330.69,83.6 L328.83,83.6 C328.38,86.09 327.42,87.59 325.74,89.18 Z M363.34,81.5 L363.34,79.46 L371.5,79.46 L371.5,77 L374.71,77 L374.71,79.46 L382.39,79.46 L382.39,81.5 L372.16,81.5 C370.63,84.17 369.25,85.79 367.33,87.41 C371.56,87.41 374.68,87.32 377.92,86.87 C377.5,85.85 377.02,84.86 376.42,83.75 L378.97,83.75 C380.23,85.82 381.13,87.83 381.88,90.26 L379.03,90.26 L378.58,88.73 C374.83,89.39 371.26,89.6 366.58,89.6 L364.24,89.6 L364.24,87.41 C366.34,85.43 367.63,83.87 368.77,81.5 L363.34,81.5 Z M379.45,103.46 C377.26,103.46 376.36,102.59 376.36,100.13 L376.36,91.07 L379,91.07 L379,100.07 C379,101.15 379.33,101.45 380.47,101.45 C381.34,101.45 381.64,101.09 381.64,100.07 L381.64,98.99 L383.47,98.99 L383.47,100.4 C383.47,102.65 382.66,103.46 380.59,103.46 L379.45,103.46 Z M362.65,104.21 L362.65,102.29 C364.69,100.37 365.38,98.78 365.38,95.66 L365.38,91.1 L368.02,91.1 L368.02,95.63 C368.02,100.04 366.64,102.2 362.65,104.21 Z M370.93,103.46 L370.93,91.07 L373.57,91.07 L373.57,103.46 L370.93,103.46 Z M356.44,103.55 C358.36,99.41 359.14,96.71 359.8,91.97 L362.35,91.97 C361.81,96.8 361.21,99.41 359.56,103.55 L356.44,103.55 Z M359.35,83.36 C358.78,81.23 358.12,79.49 357.04,77.45 L359.77,77.45 C360.82,79.34 361.51,81.11 362.14,83.36 L359.35,83.36 Z M359.56,90.56 C358.99,88.43 358.3,86.72 357.25,84.65 L359.98,84.65 C361.03,86.57 361.72,88.31 362.32,90.56 L359.56,90.56 Z M402.44,104.03 L402.44,101.87 C403.82,100.82 404.93,99.86 405.86,98.81 C404.21,96.89 403.13,94.52 402.26,91.25 L404.9,91.25 C405.56,93.62 406.34,95.39 407.36,96.86 C408.5,95.03 409.19,92.9 409.67,89.99 L401.66,89.99 L401.66,104.12 L398.78,104.12 L398.78,78.32 L412.1,78.32 L412.1,82.46 C412.1,85.04 411.14,85.97 408.41,85.97 L405.32,85.97 L405.32,84.05 L407.54,84.05 C408.77,84.05 409.19,83.63 409.19,82.37 L409.19,80.33 L401.66,80.33 L401.66,88.01 L412.43,88.01 L412.43,89.96 C411.71,93.8 410.69,96.5 408.92,98.75 C410.06,99.89 411.47,100.91 413.27,101.99 L413.27,104 C410.84,102.83 408.95,101.69 407.45,100.37 C406.13,101.63 404.48,102.8 402.44,104.03 Z M386.57,104.18 L386.57,101.93 C387.77,100.07 388.16,98.57 388.16,94.43 L388.16,78.17 L396.59,78.17 L396.59,100.64 C396.59,102.89 395.66,103.7 393.44,103.7 L391.61,103.7 L391.61,101.84 L392.93,101.84 C393.77,101.84 394.1,101.48 394.1,100.52 L394.1,94.37 L390.68,94.37 C390.62,99.44 389.57,101.63 386.57,104.18 Z M390.68,87.17 L390.68,92.48 L394.1,92.48 L394.1,87.17 L390.68,87.17 Z M390.68,80.09 L390.68,85.31 L394.1,85.31 L394.1,80.09 L390.68,80.09 Z M444.03,90.86 C438,90.17 433.77,89.39 430.41,88.25 C426.99,89.42 422.7,90.2 416.94,90.92 L416.94,89.15 C421.14,88.55 424.47,87.83 427.26,86.9 C425.16,85.85 423.42,84.5 421.62,82.79 C420.42,83.24 419.04,83.6 417.39,83.93 L417.39,82.34 C421.26,80.99 423.18,79.67 424.92,76.88 L428.4,76.88 C427.95,77.63 427.5,78.29 427.02,78.89 L441.21,78.89 L441.21,81.02 C438.84,83.63 436.53,85.49 433.62,86.93 C436.38,87.8 439.68,88.46 444.03,89.06 L444.03,90.86 Z M417.6,104.24 L417.6,102.35 C423.3,100.52 425.79,98.45 426.42,94.7 L418.65,94.7 L418.65,92.66 L426.6,92.66 L426.6,90.14 L429.78,90.14 L429.78,92.66 L440.88,92.66 L440.88,99.47 C440.88,102.41 439.71,103.58 437.04,103.58 L433.14,103.58 L433.14,101.51 L435.84,101.51 C437.19,101.51 437.73,100.91 437.73,99.59 L437.73,94.7 L429.57,94.7 C428.82,99.83 425.55,102.38 417.6,104.24 Z M437.31,80.9 L425.04,80.9 C424.35,81.44 423.63,81.89 422.82,82.28 L424.92,82.28 C426.66,83.66 428.4,84.77 430.38,85.67 C433.05,84.44 435.18,82.91 437.31,80.9 Z M456.73,87.56 L456.73,78.14 L472.48,78.14 L472.48,83.66 C472.48,86.45 471.34,87.56 468.52,87.56 L466.03,87.56 L466.03,90.62 L474.52,90.62 L474.52,92.66 L470.38,92.66 C470.98,96.26 472.09,98.06 474.55,100.43 L474.55,102.53 C470.2,99.89 468.49,97.61 467.68,92.66 L466.03,92.66 L466.03,104.09 L463,104.09 L463,92.66 L461.32,92.66 C460.51,97.61 458.8,99.89 454.48,102.53 L454.48,100.43 C456.91,98.06 458.05,96.26 458.62,92.66 L454.45,92.66 L454.45,90.62 L463,90.62 L463,87.56 L456.73,87.56 Z M446.92,88.31 L446.92,86.48 C449.89,84.32 451.3,82.13 452.32,77.06 L455.26,77.06 C454.66,79.88 453.97,81.92 453.07,83.51 L453.07,104.09 L450.16,104.09 L450.16,86.63 C449.23,87.26 448.18,87.8 446.92,88.31 Z M459.64,85.55 L467.74,85.55 C469.06,85.55 469.57,85.01 469.57,83.54 L469.57,80.15 L459.64,80.15 L459.64,85.55 Z M495.89,103.79 L495.89,101.9 L498.8,101.9 C500.09,101.9 500.42,101.48 500.42,100.13 L500.42,95.63 L484.94,95.63 C482.51,95.63 481.7,94.94 481.7,92.81 L481.7,91.04 L484.58,91.04 L484.58,92.27 C484.58,93.41 484.97,93.71 486.14,93.71 L496.85,93.71 L496.85,90.38 L480.53,90.38 L480.53,88.46 L499.88,88.46 L499.88,93.71 L503.51,93.71 L503.51,100.22 C503.51,102.77 502.49,103.79 499.61,103.79 L495.89,103.79 Z M493.31,86.54 L493.31,78.62 L503.27,78.62 L503.27,83.06 C503.27,85.58 502.46,86.54 499.97,86.54 L493.31,86.54 Z M485.24,87.08 L485.24,85.19 L486.62,85.19 C487.73,85.19 488.21,84.74 488.21,83.54 L488.21,80.51 L484.88,80.51 C484.34,84.11 482.36,86.15 478.22,87.92 L478.22,86.12 C480.68,84.41 481.82,82.88 482.18,80.51 L478.31,80.51 L478.31,78.56 L482.3,78.56 L482.3,76.88 L485.06,76.88 L485.06,78.56 L490.91,78.56 L490.91,83.72 C490.91,86.15 489.83,87.08 487.43,87.08 L485.24,87.08 Z M478.22,99.86 L478.22,97.91 L497.99,97.91 L497.99,99.86 L478.22,99.86 Z M495.89,84.71 L499.22,84.71 C500.33,84.71 500.69,84.17 500.69,82.91 L500.69,80.48 L495.89,80.48 L495.89,84.71 Z M516.57,104.06 L516.57,102.02 C518.49,100.22 519.03,98.87 519.03,95.63 L519.03,79.46 L525.09,79.46 L525.09,77 L528.24,77 L528.24,79.46 L534.21,79.46 L534.21,87.95 C534.21,90.71 532.98,91.82 530.25,91.82 L522.09,91.82 L522.09,94.85 C522.09,99.71 520.68,101.81 516.57,104.06 Z M508.35,83.42 L508.35,81.38 L511.59,81.38 L511.59,76.97 L514.44,76.97 L514.44,81.38 L517.47,81.38 L517.47,83.42 L514.44,83.42 L514.44,89.6 C515.37,89.36 516.36,89.06 517.53,88.67 L517.53,90.68 C516.36,91.16 515.37,91.55 514.44,91.88 L514.44,100.52 C514.44,102.71 513.36,103.76 511.26,103.76 L508.83,103.76 L508.83,101.72 L510.33,101.72 C511.2,101.72 511.59,101.3 511.59,100.4 L511.59,92.72 C510.54,92.96 509.43,93.2 508.08,93.44 L508.08,90.86 C509.37,90.68 510.51,90.5 511.59,90.29 L511.59,83.42 L508.35,83.42 Z M522.09,81.47 L522.09,89.78 L529.32,89.78 C530.7,89.78 531.3,89.24 531.3,87.86 L531.3,81.47 L522.09,81.47 Z M538.42,90.95 L538.42,89.03 L540.16,89.03 L540.16,79.25 L542.8,79.25 C543.1,78.59 543.34,77.81 543.55,76.91 L546.28,76.91 C546.07,77.87 545.83,78.56 545.5,79.25 L549.37,79.25 L549.37,100.55 C549.37,102.92 548.5,103.76 546.25,103.76 L544.54,103.76 L544.54,101.87 L545.56,101.87 C546.58,101.87 546.97,101.42 546.97,100.34 L546.97,90.95 L542.62,90.95 L542.62,94.04 C542.62,99.59 541.69,101.75 538.51,104.33 L538.51,102.23 C539.71,100.31 540.16,98.69 540.16,94.58 L540.16,90.95 L538.42,90.95 Z M549.94,104.33 L549.94,102.05 C551.89,99.35 552.4,97.25 552.4,91.31 L552.4,85.7 L561.85,85.7 L561.85,100.13 C561.85,101.06 562.15,101.33 562.99,101.33 C563.8,101.33 564.13,101 564.13,100.04 L564.13,98.69 L565.9,98.69 L565.9,100.37 C565.9,102.47 565.06,103.31 563.05,103.31 L561.88,103.31 C559.9,103.31 559,102.44 559,100.22 L559,87.71 L555.25,87.71 L555.25,91.28 C555.25,98.6 554.08,101.18 549.94,104.33 Z M550.48,81.98 L550.48,79.94 L555.85,79.94 L555.85,77 L559.09,77 L559.09,79.94 L564.82,79.94 L564.82,81.98 L550.48,81.98 Z M542.62,81.11 L542.62,89.03 L546.97,89.03 L546.97,81.11 L542.62,81.11 Z M544.3,97.58 C544.09,95.96 543.82,94.58 543.28,92.96 L544.99,92.96 C545.56,94.4 545.92,95.69 546.16,97.58 L544.3,97.58 Z M544.24,87.32 C544.03,85.88 543.79,84.68 543.28,83.03 L544.99,83.03 C545.53,84.44 545.8,85.52 546.07,87.32 L544.24,87.32 Z" id="path-3"></path>
        <filter x="-3.5%" y="-59.6%" width="107.0%" height="240.8%" filterUnits="objectBoundingBox" id="filter-4">
            <feOffset dx="0" dy="3" in="SourceAlpha" result="shadowOffsetOuter1"></feOffset>
            <feGaussianBlur stdDeviation="6" in="shadowOffsetOuter1" result="shadowBlurOuter1"></feGaussianBlur>
            <feColorMatrix values="0 0 0 0 0   0 0 0 0 0   0 0 0 0 0  0 0 0 0.599076705 0" type="matrix" in="shadowBlurOuter1"></feColorMatrix>
        </filter>
    </defs>
    <g id="页面-5" stroke="none" stroke-width="1" fill="none" fill-rule="evenodd">
        <g id="1920*1080-基础数据-01-1登录页优化" transform="translate(-314.000000, -362.000000)" fill-rule="nonzero">
            <g id="分组-6" transform="translate(314.000000, 359.000000)">
                <g id="更专业更高效更便捷">
                    <use fill="black" fill-opacity="1" filter="url(#filter-2)" xlink:href="#path-1"></use>
                    <use fill="#FFFFFF" xlink:href="#path-1"></use>
                </g>
                <g id="仓保镖用心服务客户为物流服务保驾护航">
                    <use fill="black" fill-opacity="1" filter="url(#filter-4)" xlink:href="#path-3"></use>
                    <use fill="#FFFFFF" xlink:href="#path-3"></use>
                </g>
            </g>
        </g>
    </g>
</svg>