<?xml version="1.0" encoding="UTF-8"?>
<svg width="248px" height="147px" viewBox="0 0 248 147" version="1.1" xmlns="http://www.w3.org/2000/svg" xmlns:xlink="http://www.w3.org/1999/xlink">
    <!-- Generator: Sketch 53.1 (72631) - https://sketchapp.com -->
    <title>down-all</title>
    <desc>Created with Sketch.</desc>
    <g id="页面-2" stroke="none" stroke-width="1" fill="none" fill-rule="evenodd">
        <g id="1920*1080-查询无结果" transform="translate(-810.000000, -482.000000)" fill-rule="nonzero">
            <g id="搜索无结果" transform="translate(810.000000, 482.000000)">
                <path d="M84.792975,83.4502953 L104.418607,83.4502953 C105.212898,83.4383881 105.850491,82.7975892 105.850491,82.011212 C105.850491,81.2248348 105.212898,80.5840359 104.418607,80.5721287 L84.792975,80.5721287 C83.9986841,80.5840359 83.361091,81.2248348 83.361091,82.011212 C83.361091,82.7975892 83.9986841,83.4383881 84.792975,83.4502953 Z M124.044073,88.4871691 L84.792975,88.4871691 C83.9901009,88.4871691 83.3392429,89.1314686 83.3392429,89.9262524 C83.3392429,90.7210361 83.9901009,91.3653357 84.792975,91.3653357 L124.044073,91.3653357 C124.838364,91.3534284 125.475957,90.7126296 125.475957,89.9262524 C125.475957,89.1398752 124.838364,88.4990763 124.044073,88.4871691 L124.044073,88.4871691 Z M144.86467,55.5678306 L144.86467,55.5670054 L139.353526,51.9736711 C139.141821,51.8534248 138.902001,51.7901474 138.657923,51.790134 L138.657756,51.790134 C138.290327,51.7865267 137.936501,51.927566 137.674126,52.1822214 C137.41175,52.4368767 137.26232,52.7842852 137.258712,53.1480119 C137.255044,53.6408554 137.523981,54.0962322 137.960151,54.3410035 L141.549547,56.6817626 L137.090146,59.1454849 C136.771919,59.3267715 136.540258,59.6266353 136.446874,59.9781421 C136.35349,60.3296488 136.406157,60.7035348 136.59312,61.0163427 C136.982468,61.6626567 137.821666,61.8833281 138.483688,61.5134775 L144.714445,58.0711653 C145.017218,57.9610975 145.271713,57.7499099 145.434058,57.4740093 C145.738268,56.9581928 145.665972,56.306116 145.255988,55.8678941 C145.144901,55.7453254 145.012325,55.6436666 144.86467,55.5678306 Z M158.880287,52.8601622 L153.39382,56.4384767 C152.906254,56.6761496 152.604356,57.1743297 152.622037,57.7120432 C152.639718,58.2497567 152.973704,58.7274471 153.475852,58.9332289 L159.750959,62.3999687 C160.073389,62.5830163 160.456114,62.63163 160.814783,62.5350952 C161.173452,62.4385604 161.478623,62.2048013 161.663036,61.8853383 C162.036836,61.2317073 161.804607,60.4018637 161.144334,60.0318111 L156.6856,57.5684188 L160.274162,55.2281548 L160.287501,55.2205625 C160.943046,54.8424645 161.164891,54.0099158 160.783027,53.3609282 C160.532228,52.9368841 160.07277,52.6766318 159.576391,52.6774503 C159.332272,52.6775308 159.092376,52.7404982 158.880287,52.8601622 L158.880287,52.8601622 Z M173.056466,42.7750259 L173.144334,42.884455 L174.767465,45.2653216 C175.018896,45.635862 175.534263,45.7740101 175.949425,45.5818903 C176.363753,45.3904307 176.540321,44.9350539 176.353582,44.5356294 C175.937753,43.6433616 175.299672,42.8172792 174.625076,41.9806336 L173.059468,39.6837782 C172.915501,39.4771085 172.693137,39.3369489 172.443061,39.2952472 C171.95237,39.2095855 171.489357,39.5038721 171.410993,39.9514915 C171.387275,40.0841618 171.399294,40.2206767 171.44584,40.3472847 C171.730617,41.1335897 172.374535,41.930953 173.056466,42.7750259 L173.056466,42.7750259 Z M173.913466,42.4741373 C174.57339,43.2650636 175.258156,44.1038548 175.681987,44.9753263 L173.913466,42.4741373 C173.154671,41.5653642 172.428556,40.7212913 172.144278,39.9736084 L173.913466,42.4741373 Z M175.537931,47.2051709 C175.459113,47.1518447 175.370074,47.1151051 175.27633,47.0972273 L175.261824,47.0935961 L175.262491,47.0935961 L175.20947,47.0863338 C175.083416,47.0745297 174.95646,47.0961784 174.841661,47.1490534 L174.840994,47.1490534 C174.755961,47.1878405 174.67743,47.2424725 174.60907,47.3109688 L172.927083,48.9494342 C172.605124,49.2653426 172.567276,49.7984586 172.844217,50.1402801 C173.019882,50.3656095 173.316369,50.4624624 173.593008,50.3848863 C173.731062,50.345439 174.950036,49.9588886 175.760518,48.3587152 C175.992275,47.9614364 175.892736,47.4448256 175.537931,47.2051709 L175.537931,47.2051709 Z M173.367587,49.6855635 L175.177458,47.8095891 C174.454177,49.3458876 173.367587,49.6855635 173.367587,49.6855635 Z M180.660924,77.3362959 C178.630968,75.3267949 175.651976,74.8304853 173.152504,75.8463768 L169.811871,72.9292583 C173.024621,68.6273583 174.925026,63.3069262 174.925026,57.5466319 C174.925026,56.7702302 174.890846,56.0025761 174.823154,55.2433395 L174.81465,55.2468057 C178.720836,53.5913401 181.466737,49.7264963 181.466737,45.2336317 C181.466737,41.7294252 179.265714,39.1297005 176.936142,36.3781285 C175.293503,34.4382793 173.596176,32.4335649 172.292169,29.8173351 C171.96608,29.1691036 171.296017,28.7608238 170.564497,28.7646372 C169.832925,28.7619768 169.162985,29.1698277 168.835325,29.8173351 C167.531985,32.433565 165.833324,34.4395998 164.191352,36.3781285 L164.061135,36.5319564 C163.31876,36.0018467 162.548852,35.5105862 161.754571,35.060193 C161.783249,35.0765331 161.812594,35.0917178 161.841272,35.108058 L161.841272,28.764472 C161.841272,22.4058665 156.634747,17.2516411 150.211249,17.2516411 L86.2463735,17.2516411 C79.8230422,17.2516411 74.6163507,22.4057015 74.6163507,28.764472 L74.6163507,97.1215034 L69.5282054,97.1215034 C68.5591618,97.1215034 68.0744733,97.6011429 68.0744733,98.5605867 C68.0744733,99.5198656 68.5591618,99.99967 69.5282054,99.99967 L167.656033,99.99967 C168.625076,99.99967 169.109765,99.5198656 169.109765,98.5605867 C169.109765,97.6011429 168.625076,97.1215034 167.656033,97.1215034 L161.841605,97.1215034 L161.841605,79.9850409 C161.830934,79.9911477 161.81993,79.9969246 161.809092,80.0030316 C163.037936,79.3011986 164.207226,78.5018175 165.305452,77.612757 L168.605402,80.4943896 C167.706052,82.9178394 168.237426,85.7436845 170.20269,87.6893106 L178.051409,95.4589407 C178.818024,96.2192918 179.755625,96.7891356 180.787473,97.1218336 L177.832657,97.1218336 C176.863447,97.1218336 176.378925,97.601473 176.378925,98.5609169 C176.378925,99.5201957 176.863447,100 177.832657,100 L186.555216,100 C187.524259,100 188.008948,99.5201956 188.008948,98.5609169 C188.008948,97.601473 187.524259,97.1218336 186.555216,97.1218336 L185.080976,97.1218336 C186.112813,96.7891127 187.050409,96.219272 187.81704,95.4589407 L188.509809,94.7733171 C191.206525,92.1037757 191.206525,87.7757975 188.509809,85.1060911 L180.660924,77.3362959 L180.660924,77.3362959 Z M170.563997,32.3622627 C173.496137,38.2049175 178.559607,40.9018575 178.559606,45.2681275 C178.559606,49.6343974 174.96154,53.2292171 170.563997,53.2292173 C166.166454,53.2292174 162.568388,49.6984375 162.568388,45.2681275 C162.568388,40.900537 167.631857,38.2044224 170.563997,32.3622627 Z M166.156783,55.1758335 C166.1156,55.1576778 166.073584,55.1418329 166.032735,55.1231821 C166.144612,55.9154289 166.202801,56.7241807 166.202801,57.5466319 C166.202801,67.0842927 158.39243,74.8157958 148.75785,74.8157958 C139.123103,74.8157958 131.312899,67.0841275 131.312899,57.5466319 C131.312899,48.0091362 139.123103,40.2774681 148.75785,40.2774681 C152.755353,40.2714292 156.63265,41.6303324 159.735786,44.1249815 C159.739454,44.0984083 159.74429,44.0721651 159.748291,44.0455917 C159.690334,44.4390641 159.661136,44.8361637 159.660924,45.2337969 C159.660924,49.6650971 162.334964,53.4837265 166.156783,55.1758335 L166.156783,55.1758335 Z M77.524315,28.7646372 C77.524315,23.996137 81.4298338,20.1301378 86.246707,20.1301377 L150.211582,20.1301377 C155.028622,20.1301377 158.934141,23.9963018 158.934141,28.7646372 L158.934141,33.6749165 C158.95715,33.6844896 158.979659,33.6952179 159.002668,33.7047908 C155.855944,32.3781076 152.393431,31.6428036 148.75785,31.6428036 C134.30623,31.6428036 122.590507,43.240471 122.590507,57.5464669 C122.590507,63.2344686 124.444062,68.4933365 127.583783,72.7663524 C127.556772,72.729546 127.528094,72.6938949 127.50125,72.6569234 L77.524315,72.6569234 L77.524315,28.7646372 Z M158.934141,96.4022095 L77.524315,96.4022095 L77.524315,75.5352549 L129.928861,75.5352549 C129.912021,75.5179245 129.896015,75.4997688 129.879175,75.4824385 C134.641194,80.393048 141.338632,83.4502953 148.75785,83.4502953 C152.367254,83.4502953 155.805925,82.72671 158.934141,81.4183473 L158.934141,96.4022095 L158.934141,96.4022095 Z M148.75785,80.5721287 C135.911855,80.5721287 125.497971,70.2631827 125.497971,57.5466319 C125.497971,44.8300811 135.911855,34.5211351 148.75785,34.5211351 C153.58845,34.513522 158.300494,36.0017198 162.234091,38.7773158 C162.243595,38.7646068 162.253765,38.7520629 162.263436,38.7393539 C161.436114,39.8316641 160.724337,40.9484019 160.254821,42.1545977 C160.290669,42.062499 160.325349,41.9700703 160.364531,41.8791269 C157.113933,39.5146003 153.100873,38.1187607 148.75785,38.1187607 C137.918802,38.1187607 129.132218,46.8168048 129.132218,57.5466319 C129.132218,68.276459 137.918635,76.9745032 148.75785,76.9745032 C159.597065,76.9745032 168.383482,68.276624 168.383482,57.5466319 C168.383482,56.9831465 168.359473,56.4256027 168.311454,55.8744961 C168.24843,55.8612921 168.186573,55.8439616 168.124048,55.8296022 C168.924098,56.0138184 169.742757,56.1071249 170.564164,56.1077138 C171.08913,56.1072516 171.613373,56.0691349 172.132774,55.9936632 C172.077586,56.0015857 172.022398,56.0106636 171.967043,56.0179258 C172.001223,56.5238083 172.017896,57.0331569 172.017896,57.5469621 C172.017729,70.2630177 161.603846,80.5721289 148.75785,80.5721287 L148.75785,80.5721287 Z M185.575335,92.1569221 L185.174179,92.5540359 C183.612905,94.0995772 181.081754,94.0995772 179.52048,92.5540359 L173.651698,86.7443913 L173.651031,86.7437311 C172.089924,85.1980246 172.090257,82.6923792 173.651698,81.1470029 L174.052187,80.7503843 C174.052399,80.7502056 174.052621,80.7500403 174.052854,80.7498891 C175.614295,79.2045128 178.145445,79.2048429 179.706553,80.7503843 L185.575335,86.5600289 C187.136442,88.1057354 187.136442,90.6112158 185.575335,92.1569221 L185.575335,92.1569221 Z M59.3524147,97.1216686 L40.4537319,97.1216686 C39.4846883,97.1216686 38.9999998,97.601308 39,98.5607517 C39,99.5200306 39.4846885,99.999835 40.4537319,99.999835 L59.3524147,99.999835 C60.321625,99.999835 60.8061468,99.5200306 60.8061468,98.5607517 C60.8061468,97.6013079 60.321625,97.1216684 59.3524147,97.1216686 Z M202.546268,97.1216686 L193.823709,97.1216686 C192.854666,97.1216686 192.369977,97.601308 192.369977,98.5607517 C192.369977,99.5200306 192.854499,99.999835 193.823709,99.999835 L202.546268,99.999835 C203.515478,99.999835 204,99.5200306 204,98.5607517 C204,97.6013079 203.515478,97.1216684 202.546268,97.1216686 Z M66.0191741,37.3856023 L66.0108374,37.3737186 C65.0919802,36.0887934 63.2949479,35.7844387 61.9971099,36.6938719 L58.1347746,39.3998897 C56.8412716,40.306022 56.530484,42.0763633 57.4391708,43.3614536 L57.8064802,43.8802103 L57.8144834,43.8914336 C58.7330073,45.1765239 60.5298727,45.4812088 61.8282109,44.5719407 L65.6912131,41.8659229 C66.9847161,40.9597906 67.2955037,39.1894493 66.3868171,37.9043588 L66.0191741,37.3856023 L66.0191741,37.3856023 Z M63.2824432,41.2177659 L62.0244538,42.1134999 C61.7502369,42.3088374 61.4084026,42.3872962 61.0753291,42.3313457 C60.7422557,42.2753952 60.4457028,42.0896986 60.2519312,41.8157472 L60.2422607,41.8023781 C59.8407937,41.2345662 59.9748188,40.4527867 60.5430445,40.0478816 L61.8010337,39.1521475 L61.8143723,39.1429047 C62.3858009,38.7468156 63.1733937,38.8842587 63.5735563,39.4499004 L63.5830601,39.4632694 C63.984657,40.0310174 63.8506953,40.8128605 63.2824432,41.2177659 L63.2824432,41.2177659 Z M52.9165786,33.1384995 L59.3152336,33.1384995 C60.9055188,33.1384995 62.1946868,31.8623219 62.1946868,30.2880616 L62.1946868,29.6545944 C62.1946868,28.080334 60.9055187,26.8041565 59.3152336,26.8041565 L52.9165786,26.8041565 C51.3262934,26.8041565 50.0371255,28.0803341 50.0371255,29.6545944 L50.0371255,30.2880616 C50.0371255,31.8623221 51.3262936,33.1384995 52.9165786,33.1384995 Z M54.5162007,28.7045584 L57.7156115,28.7045584 C58.1762999,28.6993562 58.6042602,28.9396726 58.8361348,29.333776 C59.0680094,29.7278794 59.0680094,30.2149416 58.8361348,30.609045 C58.6042602,31.0031484 58.1762999,31.2434648 57.7156115,31.2382626 L54.5143666,31.2382626 C54.1749649,31.2380439 53.8495569,31.1043432 53.6097513,30.8665826 C53.3699457,30.628822 53.235393,30.3064843 53.2357027,29.9705028 C53.2358352,29.6345076 53.3708402,29.3123358 53.6109994,29.0749062 C53.8511586,28.8374765 54.1767855,28.7042518 54.5162007,28.7045584 L54.5162007,28.7045584 Z M58.1347746,19.6958875 L61.9971099,22.4019053 L62.0089479,22.4101579 C63.3114544,23.3133193 65.1069859,23.0002167 66.0193408,21.7108351 L66.3866504,21.1914183 C67.2953371,19.906493 66.9845496,18.1361516 65.6910465,17.2300194 L61.8280442,14.5240016 L61.81704,14.516244 C60.5145335,13.6129177 58.7190019,13.92569 57.8064802,15.2150718 L57.4391708,15.7344887 C56.530484,17.0194139 56.8412716,18.7897553 58.1347746,19.6958875 L58.1347746,19.6958875 Z M60.2424276,17.2927389 L60.2520981,17.280195 L60.261435,17.266991 C60.6689206,16.7065041 61.4582264,16.5791113 62.0244538,16.9824423 L63.2824432,17.8781762 C63.8506899,18.2831423 63.9847112,19.064974 63.5832267,19.6328379 L63.5737231,19.6467021 L63.5642193,19.6599063 C63.1567337,20.2203933 62.3674278,20.3477861 61.8012003,19.9444549 L60.5432112,19.0480607 C59.9746328,18.6430037 59.8405891,17.8607476 60.2424276,17.2927389 L60.2424276,17.2927389 Z" id="形状" fill="#B8B8B8"></path>
                <path d="M38.7167969,124.37207 L38.7167969,123.428711 L46.3320312,123.428711 L46.3320312,124.331055 C45.7714816,125.79851 44.862311,127.058588 43.6044922,128.111328 C44.7529354,128.840498 46.1588458,129.36686 47.8222656,129.69043 C47.5032536,130.091473 47.2252616,130.456053 46.9882812,130.78418 C45.2929603,130.310219 43.861985,129.649418 42.6953125,128.801758 C41.4192645,129.667648 39.8606863,130.369463 38.0195312,130.907227 C37.7825509,130.569985 37.5455741,130.241864 37.3085938,129.922852 C39.1041756,129.453448 40.6080669,128.840499 41.8203125,128.083984 C40.7174424,127.063146 39.9199243,125.825854 39.4277344,124.37207 L38.7167969,124.37207 Z M44.609375,119.040039 L41.0273438,119.040039 L41.0273438,119.614258 C41.0273438,121.127286 40.2571692,122.31217 38.7167969,123.168945 C38.4615873,122.868163 38.1927097,122.585613 37.9101562,122.321289 C39.2773506,121.646807 39.9609375,120.717128 39.9609375,119.532227 L39.9609375,118.02832 L45.6757812,118.02832 L45.6757812,120.790039 C45.6757812,121.200197 45.8763001,121.405273 46.2773438,121.405273 L47.8222656,121.405273 C47.7766925,121.778973 47.7402345,122.116209 47.7128906,122.416992 L45.9628906,122.416992 C45.0605424,122.416992 44.609375,121.943039 44.609375,120.995117 L44.609375,119.040039 Z M45.1015625,124.37207 L40.4736328,124.37207 C40.9749374,125.602545 41.7223258,126.632483 42.7158203,127.461914 C43.827805,126.591467 44.6230445,125.561529 45.1015625,124.37207 Z M36.1875,124.946289 C36.5703144,125.119467 36.9348941,125.274413 37.28125,125.411133 C36.5885382,127.471039 36.0234397,129.243808 35.5859375,130.729492 L34.3964844,130.319336 C34.970706,128.797193 35.5677052,127.006195 36.1875,124.946289 Z M34.875,121.077148 C35.5312533,121.53288 36.3424431,122.157223 37.3085938,122.950195 C37.007811,123.287437 36.748048,123.588215 36.5292969,123.852539 C35.4811146,122.922847 34.7018255,122.262046 34.1914062,121.870117 L34.875,121.077148 Z M35.421875,117.577148 C36.2786501,118.251631 37.0716109,118.903317 37.8007812,119.532227 C37.4908839,119.851239 37.2220063,120.133788 36.9941406,120.379883 C36.2193972,119.650713 35.4628943,118.967126 34.7246094,118.329102 L35.421875,117.577148 Z M52.4605469,130.78418 L51.3804688,130.78418 L51.3804688,123.708984 C50.7196582,124.479171 49.9904988,125.219723 49.1929688,125.930664 C49.0015615,125.611652 48.7828137,125.278973 48.5367188,124.932617 C50.2958421,123.460605 51.6698518,121.829111 52.6587891,120.038086 L48.9195313,120.038086 L48.9195313,119.026367 L53.1714844,119.026367 C53.4312513,118.456703 53.6545564,117.873375 53.8414063,117.276367 L54.9761719,117.536133 C54.7938793,118.041995 54.5933605,118.538735 54.3746094,119.026367 L62.0992188,119.026367 L62.0992188,120.038086 L53.8824219,120.038086 C53.5998684,120.575849 53.2899757,121.099932 52.9527344,121.610352 L60.4449219,121.610352 L60.4449219,128.911133 C60.4449219,130.041347 59.8934951,130.606445 58.790625,130.606445 C58.3075497,130.61556 57.5738331,130.620117 56.5894531,130.620117 C56.54388,130.31022 56.4755213,129.936526 56.384375,129.499023 C57.2229209,129.562826 57.8973933,129.594727 58.4078125,129.594727 C59.0367219,129.594727 59.3511719,129.284834 59.3511719,128.665039 L59.3511719,127.694336 L52.4605469,127.694336 L52.4605469,130.78418 Z M52.4605469,126.764648 L59.3511719,126.764648 L59.3511719,125.124023 L52.4605469,125.124023 L52.4605469,126.764648 Z M59.3511719,122.567383 L52.4605469,122.567383 L52.4605469,124.194336 L59.3511719,124.194336 L59.3511719,122.567383 Z M63.4699219,118.807617 L69.3078125,118.807617 L69.3078125,117.344727 L70.2785156,117.344727 L70.2785156,118.807617 L76.1984375,118.807617 L76.1984375,119.723633 L71.1330078,119.723633 C72.5731192,120.821946 74.393739,121.651364 76.5949219,122.211914 C76.3579415,122.567385 76.1483082,122.890949 75.9660156,123.182617 C75.4738257,123.013997 74.9998721,122.831707 74.5441406,122.635742 L74.5441406,128.569336 L73.5050781,128.569336 L73.5050781,127.954102 L66.1359375,127.954102 L66.1359375,128.583008 L65.096875,128.583008 L65.096875,122.704102 C64.6320289,122.918295 64.1444036,123.123371 63.6339844,123.319336 C63.4425772,123.036782 63.2283866,122.745119 62.9914063,122.444336 C65.3429805,121.701494 67.1453713,120.794602 68.3986328,119.723633 L63.4699219,119.723633 L63.4699219,118.807617 Z M63.1417969,129.307617 L76.4582031,129.307617 L76.4582031,130.291992 L63.1417969,130.291992 L63.1417969,129.307617 Z M69.3078125,122.293945 L69.3078125,119.949219 C68.2596302,120.960943 66.9061281,121.856441 65.2472656,122.635742 L74.5373047,122.635742 C72.8556557,121.920244 71.4360735,121.033859 70.2785156,119.976562 L70.2785156,122.293945 L69.3078125,122.293945 Z M66.1359375,127.010742 L73.5050781,127.010742 L73.5050781,125.75293 L66.1359375,125.75293 L66.1359375,127.010742 Z M73.5050781,123.579102 L66.1359375,123.579102 L66.1359375,124.823242 L73.5050781,124.823242 L73.5050781,123.579102 Z M82.4089844,121.665039 L87.4128906,121.665039 L87.4128906,127.899414 L83.3933594,127.899414 L83.3933594,128.706055 L82.4089844,128.706055 L82.4089844,121.665039 Z M80.7,121.829102 C81.830214,120.516595 82.7735639,118.994475 83.5300781,117.262695 L84.5691406,117.65918 C84.327603,118.15137 84.0837903,118.620766 83.8376953,119.067383 L90.5027344,119.067383 C90.3933588,123.232768 90.3022139,126.249665 90.2292969,128.118164 C90.1563799,129.758797 89.4454495,130.579102 88.0964844,130.579102 C87.2670532,130.579102 86.524222,130.556315 85.8679688,130.510742 C85.813281,130.146157 85.7358078,129.745119 85.6355469,129.307617 C86.4467489,129.435222 87.1804655,129.499023 87.8367188,129.499023 C88.6570354,129.499023 89.0990882,128.970383 89.1628906,127.913086 C89.2540369,125.862294 89.3315101,123.241878 89.3953125,120.051758 L83.2703125,120.051758 C82.7279921,120.944991 82.1674508,121.74251 81.5886719,122.444336 C81.3699208,122.262043 81.0736998,122.056967 80.7,121.829102 Z M81.6433594,127.584961 C81.6707033,128.058922 81.702604,128.450845 81.7390625,128.760742 C80.5815046,129.517256 79.7338569,130.12337 79.1960938,130.579102 L78.5535156,129.663086 C78.863413,129.398762 79.0183594,129.006839 79.0183594,128.487305 L79.0183594,123.05957 L77.41875,123.05957 L77.41875,122.075195 L80.0710938,122.075195 L80.0710938,128.678711 C80.5906276,128.332355 81.1147109,127.967775 81.6433594,127.584961 Z M86.4285156,126.969727 L86.4285156,125.206055 L83.3933594,125.206055 L83.3933594,126.969727 L86.4285156,126.969727 Z M86.4285156,122.594727 L83.3933594,122.594727 L83.3933594,124.303711 L86.4285156,124.303711 L86.4285156,122.594727 Z M78.7859375,117.604492 C79.7794321,118.625331 80.499477,119.381833 80.9460938,119.874023 L80.0164063,120.65332 C79.4421846,119.896806 78.763155,119.11296 77.9792969,118.301758 L78.7859375,117.604492 Z M97.8480469,119.983398 C98.5772172,121.058925 99.2608041,122.180007 99.8988281,123.34668 C99.5524723,123.510743 99.2015643,123.693033 98.8460938,123.893555 C98.6865878,123.556313 98.5225269,123.223634 98.3539063,122.895508 C96.3897037,123.086915 94.5257901,123.273762 92.7621094,123.456055 L92.2699219,122.321289 C92.7985704,122.038736 93.254295,121.587568 93.6371094,120.967773 C93.9880226,120.439125 94.3320947,119.846683 94.669336,119.19043 L92.1195313,119.19043 L92.1195313,118.178711 L99.9671875,118.178711 L99.9671875,119.19043 L95.9613281,119.19043 C95.2822883,120.34343 94.5941441,121.391597 93.896875,122.334961 C95.1957096,122.239257 96.517311,122.120769 97.8617188,121.979492 C97.560936,121.455401 97.246486,120.944989 96.9183594,120.448242 L97.8480469,119.983398 Z M92.2152344,125.206055 L95.428125,125.206055 L95.428125,123.510742 L96.521875,123.510742 L96.521875,125.206055 L99.6527344,125.206055 L99.6527344,126.217773 L96.521875,126.217773 L96.521875,128.624023 C97.5974012,128.487304 98.704812,128.341472 99.8441406,128.186523 C99.8441406,128.505535 99.8623696,128.861001 99.8988281,129.25293 C97.3193882,129.571942 94.7263151,129.92285 92.1195313,130.305664 L91.8050781,129.157227 C92.9671933,129.038736 94.1748635,128.904298 95.428125,128.753906 L95.428125,126.217773 L92.2152344,126.217773 L92.2152344,125.206055 Z M103.672266,117.358398 L104.807031,117.358398 L104.807031,128.924805 C104.807031,130.064133 104.255604,130.633789 103.152734,130.633789 C102.779035,130.633789 102.113677,130.629232 101.156641,130.620117 C101.101953,130.246417 101.033594,129.836265 100.951563,129.389648 C101.75365,129.462565 102.373435,129.499023 102.810938,129.499023 C103.385159,129.508138 103.672266,129.211917 103.672266,128.610352 L103.672266,117.358398 Z M100.705469,118.834961 L101.812891,118.834961 L101.812891,127.543945 L100.705469,127.543945 L100.705469,118.834961 Z M111.742188,125.260742 L118.960938,125.260742 L118.960938,130.811523 L117.894531,130.811523 L117.894531,129.963867 L112.808594,129.963867 L112.808594,130.811523 L111.742188,130.811523 L111.742188,125.260742 Z M111.46875,122.663086 L114.804688,122.663086 L114.804688,120.530273 L111.017578,120.530273 L111.017578,119.545898 L114.804688,119.545898 L114.804688,117.358398 L115.898438,117.358398 L115.898438,119.545898 L119.726563,119.545898 L119.726563,120.530273 L115.898438,120.530273 L115.898438,122.663086 L119.248047,122.663086 L119.248047,123.647461 L111.46875,123.647461 L111.46875,122.663086 Z M107.955078,125.575195 C109.167324,125.402017 110.169918,125.247071 110.962891,125.110352 C110.908203,125.465822 110.867188,125.812173 110.839844,126.149414 C109.82812,126.295248 108.447274,126.509439 106.697266,126.791992 L106.478516,125.780273 C107.061852,125.174151 107.756832,124.212572 108.563477,122.895508 C107.797848,122.945638 107.102868,122.995768 106.478516,123.045898 L106.21875,122.116211 C107.057296,120.995112 107.92773,119.377289 108.830078,117.262695 L109.869141,117.672852 C108.884761,119.605153 108.078128,121.058914 107.449219,122.03418 C107.977867,122.020508 108.529294,122.004557 109.103516,121.986328 C109.413413,121.45768 109.736978,120.881188 110.074219,120.256836 L111.085938,120.762695 C110.04687,122.494475 109.00326,124.098625 107.955078,125.575195 Z M117.894531,126.217773 L112.808594,126.217773 L112.808594,129.006836 L117.894531,129.006836 L117.894531,126.217773 Z M106.164063,128.801758 C107.850269,128.473631 109.495435,128.113609 111.099609,127.72168 C111.072266,128.086265 111.058594,128.432616 111.058594,128.760742 C109.582024,129.07064 108.050789,129.435219 106.464844,129.854492 L106.164063,128.801758 Z M134.263281,129.116211 C133.916925,129.489911 133.629819,129.831704 133.401953,130.141602 C131.187098,129.439775 129.359643,128.197926 127.919531,126.416016 L127.919531,130.838867 L126.880469,130.838867 L126.880469,126.402344 C125.599863,127.883471 123.76785,129.189122 121.384375,130.319336 C121.165624,130.045897 120.892189,129.754233 120.564063,129.444336 C122.715115,128.619462 124.462819,127.553066 125.807227,126.245117 L120.864844,126.245117 L120.864844,125.260742 L126.880469,125.260742 L126.880469,123.78418 L123.257422,123.78418 L123.257422,124.317383 L122.218359,124.317383 L122.218359,118.02832 L132.581641,118.02832 L132.581641,124.317383 L131.542578,124.317383 L131.542578,123.78418 L127.919531,123.78418 L127.919531,125.260742 L133.9625,125.260742 L133.9625,126.245117 L128.835547,126.245117 C130.166283,127.653327 131.975509,128.610349 134.263281,129.116211 Z M127.919531,122.854492 L131.542578,122.854492 L131.542578,121.350586 L127.919531,121.350586 L127.919531,122.854492 Z M131.542578,118.958008 L127.919531,118.958008 L127.919531,120.461914 L131.542578,120.461914 L131.542578,118.958008 Z M123.257422,122.854492 L126.880469,122.854492 L126.880469,121.350586 L123.257422,121.350586 L123.257422,122.854492 Z M123.257422,120.461914 L126.880469,120.461914 L126.880469,118.958008 L123.257422,118.958008 L123.257422,120.461914 Z M140.897656,130.729492 L139.83125,130.729492 L139.83125,123.797852 L147.432813,123.797852 L147.432813,129.116211 C147.432813,130.100591 146.926958,130.597331 145.915234,130.606445 C145.377471,130.61556 144.689327,130.620117 143.850781,130.620117 C143.805208,130.328449 143.736849,129.977541 143.645703,129.567383 C144.438676,129.622071 145.085805,129.649414 145.587109,129.649414 C146.106643,129.649414 146.366406,129.412437 146.366406,128.938477 L146.366406,128.254883 L140.897656,128.254883 L140.897656,130.729492 Z M138.628125,122.102539 L143.044141,122.102539 L143.044141,121.15918 L139.544141,121.15918 L139.544141,120.297852 L143.044141,120.297852 L143.044141,119.381836 L139.065625,119.381836 L139.065625,118.520508 L143.044141,118.520508 L143.044141,117.290039 L144.151563,117.290039 L144.151563,118.520508 L148.321484,118.520508 L148.321484,119.381836 L144.151563,119.381836 L144.151563,120.297852 L147.966016,120.297852 L147.966016,121.15918 L144.151563,121.15918 L144.151563,122.102539 L148.594922,122.102539 L148.594922,122.963867 L138.628125,122.963867 L138.628125,122.102539 Z M139.298047,127.352539 C139.325391,127.808271 139.357292,128.204751 139.39375,128.541992 C138.40937,129.198245 137.575394,129.790687 136.891797,130.319336 L136.262891,129.416992 C136.572788,129.125324 136.727734,128.728844 136.727734,128.227539 L136.727734,123.05957 L135.059766,123.05957 L135.059766,122.061523 L137.766797,122.061523 L137.766797,128.432617 C138.277216,128.086261 138.787628,127.726239 139.298047,127.352539 Z M146.366406,124.672852 L140.897656,124.672852 L140.897656,125.616211 L146.366406,125.616211 L146.366406,124.672852 Z M140.897656,127.407227 L146.366406,127.407227 L146.366406,126.463867 L140.897656,126.463867 L140.897656,127.407227 Z M136.604688,117.754883 C137.352087,118.493168 138.012888,119.181312 138.587109,119.819336 L137.630078,120.612305 C137.001169,119.801103 136.385941,119.081058 135.784375,118.452148 L136.604688,117.754883 Z M149.446094,129.444336 L155.707813,129.444336 L155.707813,128.432617 L150.5125,128.432617 L150.5125,127.625977 L155.707813,127.625977 L155.707813,126.477539 L152.016406,126.477539 L152.016406,126.969727 L151.059375,126.969727 L151.059375,121.829102 L155.707813,121.829102 L155.707813,120.844727 L149.555469,120.844727 L149.555469,119.99707 L155.707813,119.99707 L155.707813,118.923828 C154.053507,118.973959 152.339983,119.017252 150.567188,119.053711 C150.5125,118.762043 150.448698,118.45215 150.375781,118.124023 C154.996898,118.069336 158.738397,117.94629 161.600391,117.754883 L161.764453,118.68457 C160.142049,118.762045 158.451311,118.832682 156.692188,118.896484 L156.692188,119.99707 L162.899219,119.99707 L162.899219,120.844727 L156.692188,120.844727 L156.692188,121.829102 L161.381641,121.829102 L161.381641,126.956055 L160.424609,126.956055 L160.424609,126.477539 L156.692188,126.477539 L156.692188,127.625977 L161.901172,127.625977 L161.901172,128.432617 L156.692188,128.432617 L156.692188,129.444336 L162.899219,129.444336 L162.899219,130.291992 L149.446094,130.291992 L149.446094,129.444336 Z M156.692188,125.68457 L160.424609,125.68457 L160.424609,124.508789 L156.692188,124.508789 L156.692188,125.68457 Z M152.016406,125.68457 L155.707813,125.68457 L155.707813,124.508789 L152.016406,124.508789 L152.016406,125.68457 Z M160.424609,122.62207 L156.692188,122.62207 L156.692188,123.78418 L160.424609,123.78418 L160.424609,122.62207 Z M152.016406,123.78418 L155.707813,123.78418 L155.707813,122.62207 L152.016406,122.62207 L152.016406,123.78418 Z M171.461328,118.506836 C173.348056,118.488607 175.088924,118.30176 176.683984,117.946289 L177.039453,118.999023 C175.234757,119.236004 173.698965,119.39095 172.432031,119.463867 L172.432031,122.649414 L177.422266,122.649414 L177.422266,123.579102 L175.467188,123.579102 L175.467188,130.743164 L174.455469,130.743164 L174.455469,123.579102 L172.432031,123.579102 L172.432031,124.249023 C172.432031,127.047215 171.762116,129.225578 170.422266,130.78418 C170.203515,130.501626 169.961981,130.209962 169.697656,129.90918 C170.873443,128.624017 171.461328,126.723645 171.461328,124.208008 L171.461328,118.506836 Z M164.174219,124.645508 L166.963281,124.645508 L166.963281,123.34668 L167.947656,123.34668 L167.947656,124.645508 L170.627344,124.645508 L170.627344,125.520508 L167.947656,125.520508 L167.947656,129.088867 C167.947656,130.055018 167.482817,130.538086 166.553125,130.538086 C166.161196,130.538086 165.719143,130.533529 165.226953,130.524414 C165.190495,130.223631 165.140365,129.877281 165.076563,129.485352 C165.605211,129.540039 166.01992,129.567383 166.320703,129.567383 C166.749091,129.567383 166.963281,129.334963 166.963281,128.870117 L166.963281,125.520508 L164.174219,125.520508 L164.174219,124.645508 Z M163.791406,122.088867 L165.992578,122.088867 C165.605206,121.47363 165.240627,120.944989 164.898828,120.50293 L165.637109,119.983398 C165.937892,120.347984 166.325258,120.862952 166.799219,121.52832 L166.026758,122.088867 L167.831445,122.088867 C168.328193,121.373369 168.786196,120.666996 169.205469,119.969727 L170.176172,120.516602 C169.734112,121.086266 169.312567,121.610349 168.911523,122.088867 L170.982813,122.088867 L170.982813,122.963867 L163.791406,122.963867 L163.791406,122.088867 Z M164.228906,118.916992 L167.182031,118.916992 C166.986067,118.543292 166.762762,118.137697 166.512109,117.700195 L167.387109,117.290039 C167.669663,117.754885 167.933983,118.224281 168.180078,118.698242 L167.72207,118.916992 L170.627344,118.916992 L170.627344,119.791992 L164.228906,119.791992 L164.228906,118.916992 Z M165.226953,126.135742 L166.156641,126.573242 C165.664451,127.603195 165.176825,128.532873 164.69375,129.362305 C164.429426,129.198241 164.128648,129.034181 163.791406,128.870117 C164.238023,128.177405 164.716534,127.265956 165.226953,126.135742 Z M169.164453,126.204102 C169.674872,126.896813 170.121483,127.534828 170.504297,128.118164 L169.629297,128.719727 C169.228253,128.0179 168.804429,127.357099 168.357813,126.737305 L169.164453,126.204102 Z M178.669922,118.807617 L184.507813,118.807617 L184.507813,117.344727 L185.478516,117.344727 L185.478516,118.807617 L191.398438,118.807617 L191.398438,119.723633 L186.333008,119.723633 C187.773119,120.821946 189.593739,121.651364 191.794922,122.211914 C191.557942,122.567385 191.348308,122.890949 191.166016,123.182617 C190.673826,123.013997 190.199872,122.831707 189.744141,122.635742 L189.744141,128.569336 L188.705078,128.569336 L188.705078,127.954102 L181.335938,127.954102 L181.335938,128.583008 L180.296875,128.583008 L180.296875,122.704102 C179.832029,122.918295 179.344404,123.123371 178.833984,123.319336 C178.642577,123.036782 178.428387,122.745119 178.191406,122.444336 C180.542981,121.701494 182.345371,120.794602 183.598633,119.723633 L178.669922,119.723633 L178.669922,118.807617 Z M178.341797,129.307617 L191.658203,129.307617 L191.658203,130.291992 L178.341797,130.291992 L178.341797,129.307617 Z M184.507813,122.293945 L184.507813,119.949219 C183.45963,120.960943 182.106128,121.856441 180.447266,122.635742 L189.737305,122.635742 C188.055656,121.920244 186.636074,121.033859 185.478516,119.976562 L185.478516,122.293945 L184.507813,122.293945 Z M181.335938,127.010742 L188.705078,127.010742 L188.705078,125.75293 L181.335938,125.75293 L181.335938,127.010742 Z M188.705078,123.579102 L181.335938,123.579102 L181.335938,124.823242 L188.705078,124.823242 L188.705078,123.579102 Z M197.608984,121.665039 L202.612891,121.665039 L202.612891,127.899414 L198.593359,127.899414 L198.593359,128.706055 L197.608984,128.706055 L197.608984,121.665039 Z M195.9,121.829102 C197.030214,120.516595 197.973564,118.994475 198.730078,117.262695 L199.769141,117.65918 C199.527603,118.15137 199.28379,118.620766 199.037695,119.067383 L205.702734,119.067383 C205.593359,123.232768 205.502214,126.249665 205.429297,128.118164 C205.35638,129.758797 204.64545,130.579102 203.296484,130.579102 C202.467053,130.579102 201.724222,130.556315 201.067969,130.510742 C201.013281,130.146157 200.935808,129.745119 200.835547,129.307617 C201.646749,129.435222 202.380466,129.499023 203.036719,129.499023 C203.857035,129.499023 204.299088,128.970383 204.362891,127.913086 C204.454037,125.862294 204.53151,123.241878 204.595313,120.051758 L198.470313,120.051758 C197.927992,120.944991 197.367451,121.74251 196.788672,122.444336 C196.569921,122.262043 196.2737,122.056967 195.9,121.829102 Z M196.843359,127.584961 C196.870703,128.058922 196.902604,128.450845 196.939063,128.760742 C195.781505,129.517256 194.933857,130.12337 194.396094,130.579102 L193.753516,129.663086 C194.063413,129.398762 194.218359,129.006839 194.218359,128.487305 L194.218359,123.05957 L192.61875,123.05957 L192.61875,122.075195 L195.271094,122.075195 L195.271094,128.678711 C195.790628,128.332355 196.314711,127.967775 196.843359,127.584961 Z M201.628516,126.969727 L201.628516,125.206055 L198.593359,125.206055 L198.593359,126.969727 L201.628516,126.969727 Z M201.628516,122.594727 L198.593359,122.594727 L198.593359,124.303711 L201.628516,124.303711 L201.628516,122.594727 Z M193.985938,117.604492 C194.979432,118.625331 195.699477,119.381833 196.146094,119.874023 L195.216406,120.65332 C194.642185,119.896806 193.963155,119.11296 193.179297,118.301758 L193.985938,117.604492 Z M215.426953,128.282227 C215.426953,128.036132 215.513541,127.827638 215.686719,127.656738 C215.859897,127.485839 216.062694,127.400391 216.295117,127.400391 C216.536655,127.400391 216.74287,127.488118 216.91377,127.663574 C217.084669,127.839031 217.170117,128.045246 217.170117,128.282227 C217.170117,128.519207 217.085808,128.720865 216.917188,128.887207 C216.748567,129.053549 216.541212,129.136719 216.295117,129.136719 C216.044465,129.136719 215.83711,129.05241 215.673047,128.883789 C215.508984,128.715168 215.426953,128.51465 215.426953,128.282227 Z M211.6125,128.282227 C211.6125,128.036132 211.697948,127.827638 211.868848,127.656738 C212.039747,127.485839 212.248241,127.400391 212.494336,127.400391 C212.731316,127.400391 212.935253,127.488118 213.106152,127.663574 C213.277052,127.839031 213.3625,128.045246 213.3625,128.282227 C213.3625,128.519207 213.278191,128.720865 213.10957,128.887207 C212.94095,129.053549 212.733595,129.136719 212.4875,129.136719 C212.241405,129.136719 212.03405,129.053549 211.86543,128.887207 C211.696809,128.720865 211.6125,128.519207 211.6125,128.282227 Z M207.825391,128.282227 C207.825391,128.036132 207.90856,127.827638 208.074902,127.656738 C208.241244,127.485839 208.445181,127.400391 208.686719,127.400391 C208.919142,127.400391 209.123079,127.486978 209.298535,127.660156 C209.473992,127.833334 209.561719,128.040689 209.561719,128.282227 C209.561719,128.519207 209.47741,128.720865 209.308789,128.887207 C209.140168,129.053549 208.930535,129.136719 208.679883,129.136719 C208.438345,129.136719 208.235548,129.054688 208.071484,128.890625 C207.907421,128.726562 207.825391,128.523764 207.825391,128.282227 Z" id="没有查询到结果请重新查询…" fill="#999999"></path>
            </g>
        </g>
    </g>
</svg>